%TF.GenerationSoftware,KiCad,Pcbnew,9.0.7*%
%TF.CreationDate,2026-04-17T15:52:38+05:30*%
%TF.ProjectId,lab,6c61622e-6b69-4636-9164-5f7063625858,rev?*%
%TF.SameCoordinates,Original*%
%TF.FileFunction,Paste,Top*%
%TF.FilePolarity,Positive*%
%FSLAX46Y46*%
G04 Gerber Fmt 4.6, Leading zero omitted, Abs format (unit mm)*
G04 Created by KiCad (PCBNEW 9.0.7) date 2026-04-17 15:52:38*
%MOMM*%
%LPD*%
G01*
G04 APERTURE LIST*
G04 Aperture macros list*
%AMRoundRect*
0 Rectangle with rounded corners*
0 $1 Rounding radius*
0 $2 $3 $4 $5 $6 $7 $8 $9 X,Y pos of 4 corners*
0 Add a 4 corners polygon primitive as box body*
4,1,4,$2,$3,$4,$5,$6,$7,$8,$9,$2,$3,0*
0 Add four circle primitives for the rounded corners*
1,1,$1+$1,$2,$3*
1,1,$1+$1,$4,$5*
1,1,$1+$1,$6,$7*
1,1,$1+$1,$8,$9*
0 Add four rect primitives between the rounded corners*
20,1,$1+$1,$2,$3,$4,$5,0*
20,1,$1+$1,$4,$5,$6,$7,0*
20,1,$1+$1,$6,$7,$8,$9,0*
20,1,$1+$1,$8,$9,$2,$3,0*%
G04 Aperture macros list end*
%ADD10RoundRect,0.250000X0.650000X-1.000000X0.650000X1.000000X-0.650000X1.000000X-0.650000X-1.000000X0*%
%ADD11RoundRect,0.250000X-0.440000X0.255000X-0.440000X-0.255000X0.440000X-0.255000X0.440000X0.255000X0*%
%ADD12RoundRect,0.150000X-0.150000X0.825000X-0.150000X-0.825000X0.150000X-0.825000X0.150000X0.825000X0*%
%ADD13RoundRect,0.250003X-2.999997X3.499997X-2.999997X-3.499997X2.999997X-3.499997X2.999997X3.499997X0*%
%ADD14RoundRect,0.250000X-0.262500X-0.450000X0.262500X-0.450000X0.262500X0.450000X-0.262500X0.450000X0*%
%ADD15RoundRect,0.150000X0.150000X-0.512500X0.150000X0.512500X-0.150000X0.512500X-0.150000X-0.512500X0*%
%ADD16RoundRect,0.250000X1.000000X0.650000X-1.000000X0.650000X-1.000000X-0.650000X1.000000X-0.650000X0*%
%ADD17RoundRect,0.235000X-1.465000X0.940000X-1.465000X-0.940000X1.465000X-0.940000X1.465000X0.940000X0*%
%ADD18R,0.800000X0.900000*%
G04 APERTURE END LIST*
D10*
%TO.C,D2*%
X143500000Y-91500000D03*
X143500000Y-87500000D03*
%TD*%
%TO.C,D4*%
X132500000Y-90500000D03*
X132500000Y-94500000D03*
%TD*%
D11*
%TO.C,U3*%
X143325000Y-67900000D03*
X141675000Y-67900000D03*
X143325000Y-69100000D03*
X141675000Y-69100000D03*
D12*
X144405000Y-66025000D03*
X143135000Y-66025000D03*
X141865000Y-66025000D03*
X140595000Y-66025000D03*
X140595000Y-70975000D03*
X141865000Y-70975000D03*
X143135000Y-70975000D03*
X144405000Y-70975000D03*
%TD*%
D13*
%TO.C,BT1*%
X115000000Y-46930000D03*
X115000000Y-126310000D03*
%TD*%
D14*
%TO.C,R11*%
X201087500Y-61000000D03*
X202912500Y-61000000D03*
%TD*%
D15*
%TO.C,U4*%
X143531250Y-81931250D03*
X144481250Y-81931250D03*
X145431250Y-81931250D03*
X145431250Y-79656250D03*
X144481250Y-79656250D03*
X143531250Y-79656250D03*
%TD*%
D14*
%TO.C,R13*%
X201087500Y-121000000D03*
X202912500Y-121000000D03*
%TD*%
D10*
%TO.C,D3*%
X157000000Y-82000000D03*
X157000000Y-78000000D03*
%TD*%
D14*
%TO.C,R12*%
X201087500Y-91000000D03*
X202912500Y-91000000D03*
%TD*%
D16*
%TO.C,D5*%
X138500000Y-60000000D03*
X134500000Y-60000000D03*
%TD*%
D17*
%TO.C,L1*%
X136500000Y-78475000D03*
X136500000Y-84525000D03*
%TD*%
D18*
%TO.C,Q1*%
X143500000Y-74500000D03*
X141600000Y-74500000D03*
X142550000Y-76600000D03*
%TD*%
M02*
