%TF.GenerationSoftware,KiCad,Pcbnew,9.0.7*%
%TF.CreationDate,2026-04-17T15:52:38+05:30*%
%TF.ProjectId,lab,6c61622e-6b69-4636-9164-5f7063625858,rev?*%
%TF.SameCoordinates,Original*%
%TF.FileFunction,Copper,L1,Top*%
%TF.FilePolarity,Positive*%
%FSLAX46Y46*%
G04 Gerber Fmt 4.6, Leading zero omitted, Abs format (unit mm)*
G04 Created by KiCad (PCBNEW 9.0.7) date 2026-04-17 15:52:38*
%MOMM*%
%LPD*%
G01*
G04 APERTURE LIST*
G04 Aperture macros list*
%AMRoundRect*
0 Rectangle with rounded corners*
0 $1 Rounding radius*
0 $2 $3 $4 $5 $6 $7 $8 $9 X,Y pos of 4 corners*
0 Add a 4 corners polygon primitive as box body*
4,1,4,$2,$3,$4,$5,$6,$7,$8,$9,$2,$3,0*
0 Add four circle primitives for the rounded corners*
1,1,$1+$1,$2,$3*
1,1,$1+$1,$4,$5*
1,1,$1+$1,$6,$7*
1,1,$1+$1,$8,$9*
0 Add four rect primitives between the rounded corners*
20,1,$1+$1,$2,$3,$4,$5,0*
20,1,$1+$1,$4,$5,$6,$7,0*
20,1,$1+$1,$6,$7,$8,$9,0*
20,1,$1+$1,$8,$9,$2,$3,0*%
G04 Aperture macros list end*
%TA.AperFunction,NonConductor*%
%ADD10C,0.200000*%
%TD*%
%TA.AperFunction,ComponentPad*%
%ADD11C,3.800000*%
%TD*%
%TA.AperFunction,SMDPad,CuDef*%
%ADD12RoundRect,0.250000X0.650000X-1.000000X0.650000X1.000000X-0.650000X1.000000X-0.650000X-1.000000X0*%
%TD*%
%TA.AperFunction,ComponentPad*%
%ADD13C,1.600000*%
%TD*%
%TA.AperFunction,SMDPad,CuDef*%
%ADD14RoundRect,0.150000X-0.150000X0.825000X-0.150000X-0.825000X0.150000X-0.825000X0.150000X0.825000X0*%
%TD*%
%TA.AperFunction,HeatsinkPad*%
%ADD15C,0.500000*%
%TD*%
%TA.AperFunction,HeatsinkPad*%
%ADD16R,3.300000X2.410000*%
%TD*%
%TA.AperFunction,SMDPad,CuDef*%
%ADD17RoundRect,0.250003X-2.999997X3.499997X-2.999997X-3.499997X2.999997X-3.499997X2.999997X3.499997X0*%
%TD*%
%TA.AperFunction,ComponentPad*%
%ADD18C,1.400000*%
%TD*%
%TA.AperFunction,ComponentPad*%
%ADD19R,1.700000X1.700000*%
%TD*%
%TA.AperFunction,ComponentPad*%
%ADD20C,1.700000*%
%TD*%
%TA.AperFunction,SMDPad,CuDef*%
%ADD21RoundRect,0.250000X-0.262500X-0.450000X0.262500X-0.450000X0.262500X0.450000X-0.262500X0.450000X0*%
%TD*%
%TA.AperFunction,ComponentPad*%
%ADD22C,3.000000*%
%TD*%
%TA.AperFunction,ComponentPad*%
%ADD23C,2.500000*%
%TD*%
%TA.AperFunction,SMDPad,CuDef*%
%ADD24RoundRect,0.150000X0.150000X-0.512500X0.150000X0.512500X-0.150000X0.512500X-0.150000X-0.512500X0*%
%TD*%
%TA.AperFunction,ComponentPad*%
%ADD25RoundRect,0.250001X0.949999X-0.949999X0.949999X0.949999X-0.949999X0.949999X-0.949999X-0.949999X0*%
%TD*%
%TA.AperFunction,ComponentPad*%
%ADD26C,2.400000*%
%TD*%
%TA.AperFunction,ComponentPad*%
%ADD27R,1.800000X1.800000*%
%TD*%
%TA.AperFunction,ComponentPad*%
%ADD28C,1.800000*%
%TD*%
%TA.AperFunction,ComponentPad*%
%ADD29RoundRect,0.250001X0.949999X0.949999X-0.949999X0.949999X-0.949999X-0.949999X0.949999X-0.949999X0*%
%TD*%
%TA.AperFunction,SMDPad,CuDef*%
%ADD30RoundRect,0.250000X1.000000X0.650000X-1.000000X0.650000X-1.000000X-0.650000X1.000000X-0.650000X0*%
%TD*%
%TA.AperFunction,ComponentPad*%
%ADD31R,2.000000X2.000000*%
%TD*%
%TA.AperFunction,ComponentPad*%
%ADD32C,2.000000*%
%TD*%
%TA.AperFunction,SMDPad,CuDef*%
%ADD33RoundRect,0.235000X-1.465000X0.940000X-1.465000X-0.940000X1.465000X-0.940000X1.465000X0.940000X0*%
%TD*%
%TA.AperFunction,ComponentPad*%
%ADD34RoundRect,0.250000X-0.550000X-0.550000X0.550000X-0.550000X0.550000X0.550000X-0.550000X0.550000X0*%
%TD*%
%TA.AperFunction,ComponentPad*%
%ADD35RoundRect,0.250000X-0.550000X0.550000X-0.550000X-0.550000X0.550000X-0.550000X0.550000X0.550000X0*%
%TD*%
%TA.AperFunction,ComponentPad*%
%ADD36R,1.358000X1.358000*%
%TD*%
%TA.AperFunction,ComponentPad*%
%ADD37C,1.358000*%
%TD*%
%TA.AperFunction,SMDPad,CuDef*%
%ADD38R,0.800000X0.900000*%
%TD*%
%TA.AperFunction,ComponentPad*%
%ADD39RoundRect,0.250000X0.600000X0.750000X-0.600000X0.750000X-0.600000X-0.750000X0.600000X-0.750000X0*%
%TD*%
%TA.AperFunction,ComponentPad*%
%ADD40O,1.700000X2.000000*%
%TD*%
%TA.AperFunction,Conductor*%
%ADD41C,0.300000*%
%TD*%
%TA.AperFunction,Conductor*%
%ADD42C,2.000000*%
%TD*%
G04 APERTURE END LIST*
D10*
X102236068Y-34500000D02*
G75*
G02*
X97763932Y-34500000I-2236068J0D01*
G01*
X97763932Y-34500000D02*
G75*
G02*
X102236068Y-34500000I2236068J0D01*
G01*
D11*
%TO.P,2.2mm,1*%
%TO.N,N/C*%
X101000000Y-135000000D03*
%TD*%
%TO.P,2.2mm,1*%
%TO.N,N/C*%
X240000000Y-135500000D03*
%TD*%
%TO.P,2.2mm,1*%
%TO.N,N/C*%
X239000000Y-35000000D03*
%TD*%
%TO.P,2.2mm,1*%
%TO.N,N/C*%
X100000000Y-34500000D03*
%TD*%
D12*
%TO.P,D2,1,K*%
%TO.N,Net-(D2-K)*%
X143500000Y-91500000D03*
%TO.P,D2,2,A*%
%TO.N,Net-(D2-A)*%
X143500000Y-87500000D03*
%TD*%
%TO.P,D4,2,A*%
%TO.N,Net-(D2-K)*%
X132500000Y-90500000D03*
%TO.P,D4,1,K*%
%TO.N,+5V_Sys*%
X132500000Y-94500000D03*
%TD*%
D13*
%TO.P,C5,2*%
%TO.N,GND*%
X148000000Y-67000000D03*
%TO.P,C5,1*%
%TO.N,Net-(D5-K)*%
X148000000Y-72000000D03*
%TD*%
%TO.P,C4,1*%
%TO.N,Net-(U4-EN)*%
X148500000Y-80500000D03*
%TO.P,C4,2*%
%TO.N,GND*%
X153500000Y-80500000D03*
%TD*%
%TO.P,C3,1*%
%TO.N,Net-(D2-K)*%
X138500000Y-88500000D03*
%TO.P,C3,2*%
%TO.N,GND*%
X138500000Y-93500000D03*
%TD*%
%TO.P,C1,1*%
%TO.N,+5V_DC*%
X142000000Y-53000000D03*
%TO.P,C1,2*%
%TO.N,GND*%
X142000000Y-48000000D03*
%TD*%
D14*
%TO.P,U3,1,TEMP*%
%TO.N,GND*%
X144405000Y-66025000D03*
%TO.P,U3,2,PROG*%
%TO.N,Net-(U3-PROG)*%
X143135000Y-66025000D03*
%TO.P,U3,3,GND*%
%TO.N,GND*%
X141865000Y-66025000D03*
%TO.P,U3,4,V_{CC}*%
%TO.N,Net-(D5-K)*%
X140595000Y-66025000D03*
%TO.P,U3,5,BAT*%
%TO.N,Net-(BT1-+)*%
X140595000Y-70975000D03*
%TO.P,U3,6,~{STDBY}*%
%TO.N,unconnected-(U3-~{STDBY}-Pad6)*%
X141865000Y-70975000D03*
%TO.P,U3,7,~{CHRG}*%
%TO.N,unconnected-(U3-~{CHRG}-Pad7)*%
X143135000Y-70975000D03*
%TO.P,U3,8,CE*%
%TO.N,Net-(D5-K)*%
X144405000Y-70975000D03*
D15*
%TO.P,U3,9,EPAD*%
%TO.N,GND*%
X143700000Y-67800000D03*
X142500000Y-67800000D03*
X141300000Y-67800000D03*
D16*
X142500000Y-68500000D03*
D15*
X143700000Y-69200000D03*
X142500000Y-69200000D03*
X141300000Y-69200000D03*
%TD*%
D17*
%TO.P,BT1,1,+*%
%TO.N,Net-(BT1-+)*%
X115000000Y-46930000D03*
%TO.P,BT1,2,-*%
%TO.N,GND*%
X115000000Y-126310000D03*
%TD*%
D18*
%TO.P,R2,1*%
%TO.N,GND*%
X151490000Y-75500000D03*
%TO.P,R2,2*%
%TO.N,Net-(D5-K)*%
X146410000Y-75500000D03*
%TD*%
%TO.P,Rg1,1*%
%TO.N,Net-(U4-FB)*%
X149010000Y-85000000D03*
%TO.P,Rg1,2*%
%TO.N,GND*%
X154090000Y-85000000D03*
%TD*%
D19*
%TO.P,J8,1,Pin_1*%
%TO.N,Vbat*%
X133725000Y-55500000D03*
D20*
%TO.P,J8,2,Pin_2*%
%TO.N,+5V_DC*%
X136265000Y-55500000D03*
%TD*%
D21*
%TO.P,R11,1*%
%TO.N,Vrelay*%
X201087500Y-61000000D03*
%TO.P,R11,2*%
%TO.N,Net-(K1-Pad5)*%
X202912500Y-61000000D03*
%TD*%
D22*
%TO.P,K2,1*%
%TO.N,230V_L*%
X206300000Y-98000000D03*
D23*
%TO.P,K2,2*%
%TO.N,Net-(U2-O2)*%
X208250000Y-104050000D03*
D22*
%TO.P,K2,3*%
%TO.N,Net-(J3-Pin_1)*%
X220450000Y-104050000D03*
%TO.P,K2,4*%
%TO.N,unconnected-(K2-Pad4)*%
X220500000Y-92000000D03*
D23*
%TO.P,K2,5*%
%TO.N,Net-(K2-Pad5)*%
X208250000Y-92050000D03*
%TD*%
D19*
%TO.P,J6,1,Pin_1*%
%TO.N,Vrelay*%
X186000000Y-88275000D03*
D20*
%TO.P,J6,2,Pin_2*%
%TO.N,+5V_Sys*%
X186000000Y-85735000D03*
%TD*%
D24*
%TO.P,U4,1,SW*%
%TO.N,Net-(D2-A)*%
X143531250Y-81931250D03*
%TO.P,U4,2,GND*%
%TO.N,GND*%
X144481250Y-81931250D03*
%TO.P,U4,3,FB*%
%TO.N,Net-(U4-FB)*%
X145431250Y-81931250D03*
%TO.P,U4,4,EN*%
%TO.N,Net-(U4-EN)*%
X145431250Y-79656250D03*
%TO.P,U4,5,IN*%
X144481250Y-79656250D03*
%TO.P,U4,6,NC*%
%TO.N,unconnected-(U4-NC-Pad6)*%
X143531250Y-79656250D03*
%TD*%
D25*
%TO.P,J4,1,Pin_1*%
%TO.N,Net-(J4-Pin_1)*%
X234000000Y-129000000D03*
D26*
%TO.P,J4,2,Pin_2*%
%TO.N,230V_N*%
X234000000Y-125500000D03*
%TO.P,J4,3,Pin_3*%
%TO.N,Earth*%
X234000000Y-122000000D03*
%TD*%
D18*
%TO.P,R3,1*%
%TO.N,Net-(U1-VCC_3V3)*%
X151000000Y-122010000D03*
%TO.P,R3,2*%
%TO.N,Net-(U1-D1)*%
X151000000Y-127090000D03*
%TD*%
D21*
%TO.P,R13,1*%
%TO.N,Vrelay*%
X201087500Y-121000000D03*
%TO.P,R13,2*%
%TO.N,Net-(K3-Pad5)*%
X202912500Y-121000000D03*
%TD*%
D19*
%TO.P,J5,1,Pin_1*%
%TO.N,Vdd*%
X147775000Y-100500000D03*
D20*
%TO.P,J5,2,Pin_2*%
%TO.N,+5V_Sys*%
X145235000Y-100500000D03*
%TD*%
D18*
%TO.P,R8,1*%
%TO.N,Net-(D1-A2)*%
X155500000Y-104010000D03*
%TO.P,R8,2*%
%TO.N,Net-(U1-D10)*%
X155500000Y-109090000D03*
%TD*%
D12*
%TO.P,D3,1,K*%
%TO.N,+5V_Sys*%
X157000000Y-82000000D03*
%TO.P,D3,2,A*%
%TO.N,+5V_DC*%
X157000000Y-78000000D03*
%TD*%
D18*
%TO.P,Rf1,1*%
%TO.N,Net-(U4-FB)*%
X153990000Y-88500000D03*
%TO.P,Rf1,2*%
%TO.N,Net-(D2-K)*%
X148910000Y-88500000D03*
%TD*%
D21*
%TO.P,R12,1*%
%TO.N,Vrelay*%
X201087500Y-91000000D03*
%TO.P,R12,2*%
%TO.N,Net-(K2-Pad5)*%
X202912500Y-91000000D03*
%TD*%
D22*
%TO.P,K3,1*%
%TO.N,230V_L*%
X206300000Y-128000000D03*
D23*
%TO.P,K3,2*%
%TO.N,Net-(U2-O3)*%
X208250000Y-134050000D03*
D22*
%TO.P,K3,3*%
%TO.N,Net-(J4-Pin_1)*%
X220450000Y-134050000D03*
%TO.P,K3,4*%
%TO.N,unconnected-(K3-Pad4)*%
X220500000Y-122000000D03*
D23*
%TO.P,K3,5*%
%TO.N,Net-(K3-Pad5)*%
X208250000Y-122050000D03*
%TD*%
D27*
%TO.P,D1,1,A1*%
%TO.N,Net-(D1-A1)*%
X164500000Y-106500000D03*
D28*
%TO.P,D1,2,A2*%
%TO.N,Net-(D1-A2)*%
X159500000Y-106500000D03*
%TO.P,D1,3,K*%
%TO.N,GND*%
X162000000Y-106500000D03*
%TD*%
D29*
%TO.P,J1,1,Pin_1*%
%TO.N,Earth*%
X225000000Y-41332500D03*
D26*
%TO.P,J1,2,Pin_2*%
%TO.N,230V_N*%
X221500000Y-41332500D03*
%TO.P,J1,3,Pin_3*%
%TO.N,230V_L*%
X218000000Y-41332500D03*
%TD*%
D28*
%TO.P,RV1,1*%
%TO.N,230V_L*%
X204600000Y-49250000D03*
%TO.P,RV1,2*%
%TO.N,230V_N*%
X206000000Y-41750000D03*
%TD*%
D18*
%TO.P,R9,1*%
%TO.N,Net-(U1-D5)*%
X168500000Y-108990000D03*
%TO.P,R9,2*%
%TO.N,Net-(D1-A1)*%
X168500000Y-103910000D03*
%TD*%
D30*
%TO.P,D5,1,K*%
%TO.N,Net-(D5-K)*%
X138500000Y-60000000D03*
%TO.P,D5,2,A*%
%TO.N,Vbat*%
X134500000Y-60000000D03*
%TD*%
D18*
%TO.P,R7,1*%
%TO.N,Net-(U1-D0)*%
X180000000Y-130490000D03*
%TO.P,R7,2*%
%TO.N,GND*%
X180000000Y-125410000D03*
%TD*%
D31*
%TO.P,SW2,1,A*%
%TO.N,Net-(U1-VUSB)*%
X139500000Y-118500000D03*
D32*
%TO.P,SW2,2,B*%
%TO.N,Vdd*%
X139500000Y-114500000D03*
%TO.P,SW2,3,C*%
%TO.N,unconnected-(SW2-C-Pad3)*%
X139500000Y-110500000D03*
%TO.P,SW2,4,A*%
%TO.N,unconnected-(SW2-A-Pad4)*%
X144500000Y-118500000D03*
%TO.P,SW2,5,B*%
%TO.N,unconnected-(SW2-B-Pad5)*%
X144500000Y-114500000D03*
%TO.P,SW2,6,C*%
%TO.N,unconnected-(SW2-C-Pad6)*%
X144500000Y-110500000D03*
%TD*%
D18*
%TO.P,R6,1*%
%TO.N,Net-(U1-D0)*%
X183500000Y-130490000D03*
%TO.P,R6,2*%
%TO.N,Vmainsorbat*%
X183500000Y-125410000D03*
%TD*%
%TO.P,R1,1*%
%TO.N,Net-(U3-PROG)*%
X145010000Y-63500000D03*
%TO.P,R1,2*%
%TO.N,GND*%
X150090000Y-63500000D03*
%TD*%
D19*
%TO.P,SW1,1,1*%
%TO.N,GND*%
X174120000Y-130223500D03*
D20*
%TO.P,SW1,2,2*%
%TO.N,Net-(U1-D1)*%
X174120000Y-127683500D03*
%TD*%
D33*
%TO.P,L1,1,1*%
%TO.N,Net-(U4-EN)*%
X136500000Y-78475000D03*
%TO.P,L1,2,2*%
%TO.N,Net-(D2-A)*%
X136500000Y-84525000D03*
%TD*%
D34*
%TO.P,U2,1,I1*%
%TO.N,Net-(U1-D4)*%
X185000000Y-101460000D03*
D13*
%TO.P,U2,2,I2*%
%TO.N,Net-(U1-D3)*%
X185000000Y-104000000D03*
%TO.P,U2,3,I3*%
%TO.N,Net-(U1-D2)*%
X185000000Y-106540000D03*
%TO.P,U2,4,I4*%
%TO.N,unconnected-(U2-I4-Pad4)*%
X185000000Y-109080000D03*
%TO.P,U2,5,I5*%
%TO.N,unconnected-(U2-I5-Pad5)*%
X185000000Y-111620000D03*
%TO.P,U2,6,I6*%
%TO.N,unconnected-(U2-I6-Pad6)*%
X185000000Y-114160000D03*
%TO.P,U2,7,I7*%
%TO.N,unconnected-(U2-I7-Pad7)*%
X185000000Y-116700000D03*
%TO.P,U2,8,GND*%
%TO.N,GND*%
X185000000Y-119240000D03*
%TO.P,U2,9,COM*%
%TO.N,Vrelay*%
X192620000Y-119240000D03*
%TO.P,U2,10,O7*%
%TO.N,unconnected-(U2-O7-Pad10)*%
X192620000Y-116700000D03*
%TO.P,U2,11,O6*%
%TO.N,unconnected-(U2-O6-Pad11)*%
X192620000Y-114160000D03*
%TO.P,U2,12,O5*%
%TO.N,unconnected-(U2-O5-Pad12)*%
X192620000Y-111620000D03*
%TO.P,U2,13,O4*%
%TO.N,unconnected-(U2-O4-Pad13)*%
X192620000Y-109080000D03*
%TO.P,U2,14,O3*%
%TO.N,Net-(U2-O3)*%
X192620000Y-106540000D03*
%TO.P,U2,15,O2*%
%TO.N,Net-(U2-O2)*%
X192620000Y-104000000D03*
%TO.P,U2,16,O1*%
%TO.N,Net-(U2-O1)*%
X192620000Y-101460000D03*
%TD*%
D25*
%TO.P,J2,1,Pin_1*%
%TO.N,Net-(J2-Pin_1)*%
X234000000Y-69000000D03*
D26*
%TO.P,J2,2,Pin_2*%
%TO.N,230V_N*%
X234000000Y-65500000D03*
%TO.P,J2,3,Pin_3*%
%TO.N,Earth*%
X234000000Y-62000000D03*
%TD*%
D19*
%TO.P,J7,1,Pin_1*%
%TO.N,Vmainsorbat*%
X187500000Y-127000000D03*
D20*
%TO.P,J7,2,Pin_2*%
%TO.N,+5V_DC*%
X187500000Y-129540000D03*
%TD*%
D35*
%TO.P,C2,1*%
%TO.N,+5V_DC*%
X150000000Y-48000000D03*
D13*
%TO.P,C2,2*%
%TO.N,GND*%
X150000000Y-51500000D03*
%TD*%
D36*
%TO.P,U1,1,D0*%
%TO.N,Net-(U1-D0)*%
X169740000Y-129740000D03*
D37*
%TO.P,U1,2,D1*%
%TO.N,Net-(U1-D1)*%
X169740000Y-127200000D03*
%TO.P,U1,3,D2*%
%TO.N,Net-(U1-D2)*%
X169740000Y-124660000D03*
%TO.P,U1,4,D3*%
%TO.N,Net-(U1-D3)*%
X169740000Y-122120000D03*
%TO.P,U1,5,D4*%
%TO.N,Net-(U1-D4)*%
X169740000Y-119580000D03*
%TO.P,U1,6,D5*%
%TO.N,Net-(U1-D5)*%
X169740000Y-117040000D03*
%TO.P,U1,7,TX_D6*%
%TO.N,unconnected-(U1-TX_D6-Pad7)*%
X169740000Y-114500000D03*
%TO.P,U1,8,RX_D7*%
%TO.N,unconnected-(U1-RX_D7-Pad8)*%
X154500000Y-114500000D03*
%TO.P,U1,9,D8*%
%TO.N,unconnected-(U1-D8-Pad9)*%
X154500000Y-117040000D03*
%TO.P,U1,10,D9*%
%TO.N,unconnected-(U1-D9-Pad10)*%
X154500000Y-119580000D03*
%TO.P,U1,11,D10*%
%TO.N,Net-(U1-D10)*%
X154500000Y-122120000D03*
%TO.P,U1,12,VCC_3V3*%
%TO.N,Net-(U1-VCC_3V3)*%
X154500000Y-124660000D03*
%TO.P,U1,13,GND*%
%TO.N,GND*%
X154500000Y-127200000D03*
%TO.P,U1,14,VUSB*%
%TO.N,Net-(U1-VUSB)*%
X154500000Y-129740000D03*
%TD*%
D38*
%TO.P,Q1,1*%
%TO.N,Net-(D5-K)*%
X143500000Y-74500000D03*
%TO.P,Q1,2*%
%TO.N,Net-(BT1-+)*%
X141600000Y-74500000D03*
%TO.P,Q1,3*%
%TO.N,Net-(U4-EN)*%
X142550000Y-76600000D03*
%TD*%
D39*
%TO.P,PS1,1,AC/L*%
%TO.N,230V_L*%
X190000000Y-51500000D03*
D40*
%TO.P,PS1,2,AC/N*%
%TO.N,230V_N*%
X190000000Y-46500000D03*
%TO.P,PS1,3,-Vout*%
%TO.N,GND*%
X160920000Y-56500000D03*
%TO.P,PS1,4,+Vout*%
%TO.N,+5V_DC*%
X160920000Y-41500000D03*
%TD*%
D22*
%TO.P,K1,1*%
%TO.N,230V_L*%
X206300000Y-68000000D03*
D23*
%TO.P,K1,2*%
%TO.N,Net-(U2-O1)*%
X208250000Y-74050000D03*
D22*
%TO.P,K1,3*%
%TO.N,Net-(J2-Pin_1)*%
X220450000Y-74050000D03*
%TO.P,K1,4*%
%TO.N,unconnected-(K1-Pad4)*%
X220500000Y-62000000D03*
D23*
%TO.P,K1,5*%
%TO.N,Net-(K1-Pad5)*%
X208250000Y-62050000D03*
%TD*%
D25*
%TO.P,J3,1,Pin_1*%
%TO.N,Net-(J3-Pin_1)*%
X234000000Y-99000000D03*
D26*
%TO.P,J3,2,Pin_2*%
%TO.N,230V_N*%
X234000000Y-95500000D03*
%TO.P,J3,3,Pin_3*%
%TO.N,Earth*%
X234000000Y-92000000D03*
%TD*%
D41*
%TO.N,GND*%
X172223500Y-130223500D02*
X172000000Y-130000000D01*
X174120000Y-130223500D02*
X172223500Y-130223500D01*
X144481250Y-81931250D02*
X144481250Y-83481250D01*
X144481250Y-83481250D02*
X144500000Y-83500000D01*
%TO.N,Net-(D5-K)*%
X138500000Y-63930000D02*
X138500000Y-60000000D01*
X140595000Y-66025000D02*
X138500000Y-63930000D01*
%TO.N,Vbat*%
X133725000Y-59225000D02*
X134500000Y-60000000D01*
X133725000Y-55500000D02*
X133725000Y-59225000D01*
%TO.N,+5V_DC*%
X138765000Y-53000000D02*
X142000000Y-53000000D01*
X136265000Y-55500000D02*
X138765000Y-53000000D01*
%TO.N,Net-(D5-K)*%
X140595000Y-60405000D02*
X141000000Y-60000000D01*
X140595000Y-66025000D02*
X140595000Y-60405000D01*
%TO.N,GND*%
X148590000Y-65000000D02*
X150090000Y-63500000D01*
X146500000Y-65000000D02*
X148590000Y-65000000D01*
X145475000Y-66025000D02*
X146500000Y-65000000D01*
X144405000Y-66025000D02*
X145475000Y-66025000D01*
%TO.N,Net-(U3-PROG)*%
X143510000Y-63500000D02*
X145010000Y-63500000D01*
X143135000Y-63875000D02*
X143510000Y-63500000D01*
X143135000Y-66025000D02*
X143135000Y-63875000D01*
%TO.N,Net-(D5-K)*%
X152500000Y-62500000D02*
X152500000Y-71000000D01*
X141000000Y-60000000D02*
X150000000Y-60000000D01*
X150000000Y-60000000D02*
X152500000Y-62500000D01*
X149500000Y-74000000D02*
X144000000Y-74000000D01*
X152500000Y-71000000D02*
X149500000Y-74000000D01*
%TO.N,+5V_Sys*%
X133367500Y-95367500D02*
X176367500Y-95367500D01*
X132500000Y-94500000D02*
X133367500Y-95367500D01*
X176367500Y-95367500D02*
X186000000Y-85735000D01*
%TO.N,Net-(D2-K)*%
X134500000Y-88500000D02*
X132500000Y-90500000D01*
X138500000Y-88500000D02*
X134500000Y-88500000D01*
X143000000Y-91500000D02*
X140000000Y-88500000D01*
X140000000Y-88500000D02*
X138500000Y-88500000D01*
X143500000Y-91500000D02*
X143000000Y-91500000D01*
X145910000Y-91500000D02*
X148910000Y-88500000D01*
X143500000Y-91500000D02*
X145910000Y-91500000D01*
%TO.N,Net-(D2-A)*%
X140937500Y-84937500D02*
X140937500Y-84525000D01*
X143500000Y-87500000D02*
X140937500Y-84937500D01*
%TO.N,+5V_DC*%
X157000000Y-64000000D02*
X157000000Y-78000000D01*
X146000000Y-53000000D02*
X157000000Y-64000000D01*
X142000000Y-53000000D02*
X146000000Y-53000000D01*
%TO.N,Net-(U4-EN)*%
X146500000Y-80500000D02*
X148500000Y-80500000D01*
X145656250Y-79656250D02*
X146500000Y-80500000D01*
X145431250Y-79656250D02*
X145656250Y-79656250D01*
X144600000Y-76600000D02*
X148500000Y-80500000D01*
X142550000Y-76600000D02*
X144600000Y-76600000D01*
%TO.N,+5V_DC*%
X139500000Y-47500000D02*
X139500000Y-50500000D01*
X141000000Y-46000000D02*
X139500000Y-47500000D01*
X148000000Y-46000000D02*
X141000000Y-46000000D01*
X150000000Y-48000000D02*
X148000000Y-46000000D01*
X139500000Y-50500000D02*
X142000000Y-53000000D01*
%TO.N,GND*%
X145500000Y-51500000D02*
X142000000Y-48000000D01*
X150000000Y-51500000D02*
X145500000Y-51500000D01*
X160920000Y-56500000D02*
X155000000Y-56500000D01*
X155000000Y-56500000D02*
X150000000Y-51500000D01*
%TO.N,Net-(BT1-+)*%
X138500000Y-74500000D02*
X141600000Y-74500000D01*
X115000000Y-51000000D02*
X138500000Y-74500000D01*
X116550000Y-46930000D02*
X115000000Y-46930000D01*
X115000000Y-46930000D02*
X115000000Y-51000000D01*
X140595000Y-70975000D02*
X116550000Y-46930000D01*
%TO.N,+5V_Sys*%
X157000000Y-82000000D02*
X157000000Y-88735000D01*
X157000000Y-82000000D02*
X182265000Y-82000000D01*
X182265000Y-82000000D02*
X186000000Y-85735000D01*
X157000000Y-88735000D02*
X145235000Y-100500000D01*
%TO.N,Net-(U4-EN)*%
X142550000Y-76600000D02*
X144481250Y-78531250D01*
X144481250Y-78706250D02*
X144481250Y-79656250D01*
X145431250Y-79656250D02*
X144481250Y-78706250D01*
X142550000Y-76600000D02*
X138375000Y-76600000D01*
X142550000Y-76600000D02*
X142550000Y-77000000D01*
X138375000Y-76600000D02*
X136500000Y-78475000D01*
X144481250Y-78531250D02*
X144481250Y-78706250D01*
%TO.N,Net-(D5-K)*%
X146410000Y-75500000D02*
X144500000Y-75500000D01*
X144405000Y-70975000D02*
X144405000Y-71405000D01*
X144500000Y-75500000D02*
X143500000Y-74500000D01*
X144000000Y-71810000D02*
X144000000Y-74000000D01*
X144405000Y-71405000D02*
X144000000Y-71810000D01*
X144000000Y-74000000D02*
X143500000Y-74500000D01*
%TO.N,Net-(K1-Pad5)*%
X207200000Y-61000000D02*
X208250000Y-62050000D01*
X202912500Y-61000000D02*
X207200000Y-61000000D01*
%TO.N,Vdd*%
X139500000Y-112410603D02*
X139500000Y-114500000D01*
X147775000Y-104135603D02*
X139500000Y-112410603D01*
X147775000Y-100500000D02*
X147775000Y-104135603D01*
%TO.N,Net-(K2-Pad5)*%
X202912500Y-91000000D02*
X207200000Y-91000000D01*
X207200000Y-91000000D02*
X208250000Y-92050000D01*
%TO.N,Net-(D1-A1)*%
X165910000Y-106500000D02*
X164500000Y-106500000D01*
X168500000Y-103910000D02*
X165910000Y-106500000D01*
%TO.N,Net-(D1-A2)*%
X159500000Y-106500000D02*
X157990000Y-106500000D01*
X157990000Y-106500000D02*
X155500000Y-104010000D01*
%TO.N,Net-(D2-A)*%
X140937500Y-84525000D02*
X143531250Y-81931250D01*
X136500000Y-84525000D02*
X140937500Y-84525000D01*
%TO.N,+5V_DC*%
X156500000Y-41500000D02*
X150000000Y-48000000D01*
X160920000Y-41500000D02*
X156500000Y-41500000D01*
%TO.N,Net-(K3-Pad5)*%
X202912500Y-121000000D02*
X207200000Y-121000000D01*
X207200000Y-121000000D02*
X208250000Y-122050000D01*
D42*
%TO.N,230V_L*%
X218000000Y-41332500D02*
X217749000Y-41583500D01*
%TO.N,Net-(J2-Pin_1)*%
X220450000Y-74050000D02*
X228950000Y-74050000D01*
X228950000Y-74050000D02*
X234000000Y-69000000D01*
%TO.N,Net-(J3-Pin_1)*%
X220450000Y-104050000D02*
X228950000Y-104050000D01*
X228950000Y-104050000D02*
X234000000Y-99000000D01*
D41*
%TO.N,Vmainsorbat*%
X185090000Y-127000000D02*
X183500000Y-125410000D01*
X187500000Y-127000000D02*
X185090000Y-127000000D01*
%TO.N,Vrelay*%
X192143240Y-102611000D02*
X193096760Y-102611000D01*
X193096760Y-102611000D02*
X201087500Y-94620260D01*
X191469000Y-93744000D02*
X191469000Y-118089000D01*
X186000000Y-99245760D02*
X191754240Y-105000000D01*
X186000000Y-88275000D02*
X186000000Y-99245760D01*
X201087500Y-73187500D02*
X201087500Y-61000000D01*
X186000000Y-88275000D02*
X186000000Y-96467760D01*
X186000000Y-88275000D02*
X191469000Y-93744000D01*
X191992240Y-105000000D02*
X192143240Y-105151000D01*
X201087500Y-113379740D02*
X201087500Y-121000000D01*
X192143240Y-105151000D02*
X192858760Y-105151000D01*
X186000000Y-88275000D02*
X201087500Y-73187500D01*
X201087500Y-94620260D02*
X201087500Y-91000000D01*
X191469000Y-118089000D02*
X192620000Y-119240000D01*
X191754240Y-105000000D02*
X191992240Y-105000000D01*
X192858760Y-105151000D02*
X201087500Y-113379740D01*
X186000000Y-96467760D02*
X192143240Y-102611000D01*
%TO.N,Net-(U2-O1)*%
X192620000Y-101460000D02*
X192620000Y-89680000D01*
X192620000Y-89680000D02*
X208250000Y-74050000D01*
%TO.N,Net-(U2-O2)*%
X208200000Y-104000000D02*
X208250000Y-104050000D01*
X192620000Y-104000000D02*
X208200000Y-104000000D01*
%TO.N,Net-(U2-O3)*%
X198000000Y-111920000D02*
X198000000Y-127500000D01*
X198000000Y-127500000D02*
X204550000Y-134050000D01*
X204550000Y-134050000D02*
X208250000Y-134050000D01*
X192620000Y-106540000D02*
X198000000Y-111920000D01*
%TO.N,Net-(U1-D0)*%
X183500000Y-130490000D02*
X180000000Y-130490000D01*
X171424500Y-131424500D02*
X169740000Y-129740000D01*
X179065500Y-131424500D02*
X171424500Y-131424500D01*
X180000000Y-130490000D02*
X179065500Y-131424500D01*
%TO.N,Net-(U3-PROG)*%
X143222500Y-65937500D02*
X143135000Y-66025000D01*
%TO.N,Net-(U1-D10)*%
X154497500Y-109090000D02*
X153470000Y-110117500D01*
X153470000Y-121090000D02*
X154500000Y-122120000D01*
X155500000Y-109090000D02*
X154497500Y-109090000D01*
X153470000Y-110117500D02*
X153470000Y-121090000D01*
%TO.N,Net-(U1-D5)*%
X168500000Y-115800000D02*
X168500000Y-108990000D01*
X169740000Y-117040000D02*
X168500000Y-115800000D01*
%TO.N,Net-(U4-FB)*%
X153990000Y-88500000D02*
X152490000Y-87000000D01*
X152490000Y-87000000D02*
X148000000Y-87000000D01*
X145431250Y-81931250D02*
X147000000Y-83500000D01*
X148500000Y-85000000D02*
X149010000Y-85000000D01*
X148000000Y-87000000D02*
X147000000Y-86000000D01*
X147000000Y-83500000D02*
X148500000Y-85000000D01*
X147000000Y-86000000D02*
X147000000Y-83500000D01*
%TO.N,Net-(U1-VUSB)*%
X139500000Y-118500000D02*
X139500000Y-119800000D01*
X139500000Y-119800000D02*
X149440000Y-129740000D01*
X149440000Y-129740000D02*
X154500000Y-129740000D01*
%TO.N,Net-(U1-D3)*%
X171271000Y-117729000D02*
X185000000Y-104000000D01*
X171271000Y-120589000D02*
X171271000Y-117729000D01*
X169740000Y-122120000D02*
X171271000Y-120589000D01*
%TO.N,Net-(U1-D2)*%
X171772000Y-119768000D02*
X185000000Y-106540000D01*
X171772000Y-122628000D02*
X171772000Y-119768000D01*
X169740000Y-124660000D02*
X171772000Y-122628000D01*
%TO.N,Net-(U1-D4)*%
X170770000Y-118550000D02*
X170770000Y-115690000D01*
X169740000Y-119580000D02*
X170770000Y-118550000D01*
X170770000Y-115690000D02*
X185000000Y-101460000D01*
%TO.N,Net-(U1-D1)*%
X174120000Y-127683500D02*
X173303500Y-128500000D01*
X152410000Y-128500000D02*
X151000000Y-127090000D01*
X173636500Y-127200000D02*
X174120000Y-127683500D01*
X173303500Y-128500000D02*
X152410000Y-128500000D01*
X169740000Y-127200000D02*
X173636500Y-127200000D01*
%TO.N,Net-(U1-VCC_3V3)*%
X151000000Y-122010000D02*
X153650000Y-124660000D01*
X153650000Y-124660000D02*
X154500000Y-124660000D01*
%TO.N,Net-(D5-K)*%
X144405000Y-70975000D02*
X145430000Y-72000000D01*
X145430000Y-72000000D02*
X148000000Y-72000000D01*
%TO.N,GND*%
X144405000Y-66025000D02*
X144500000Y-66025000D01*
X144500000Y-66025000D02*
X145475000Y-67000000D01*
X145475000Y-67000000D02*
X148000000Y-67000000D01*
%TO.N,+5V_DC*%
X101000000Y-126000000D02*
X101000000Y-42500000D01*
X187500000Y-129540000D02*
X184540000Y-132500000D01*
X101000000Y-42500000D02*
X105500000Y-38000000D01*
X184540000Y-132500000D02*
X107500000Y-132500000D01*
X107500000Y-132500000D02*
X101000000Y-126000000D01*
X139000000Y-53000000D02*
X142000000Y-53000000D01*
X124000000Y-38000000D02*
X139000000Y-53000000D01*
X105500000Y-38000000D02*
X124000000Y-38000000D01*
%TO.N,+5V_Sys*%
X132500000Y-94500000D02*
X138500000Y-100500000D01*
X138500000Y-100500000D02*
X145235000Y-100500000D01*
%TD*%
%TA.AperFunction,Conductor*%
%TO.N,GND*%
G36*
X198943039Y-33519685D02*
G01*
X198988794Y-33572489D01*
X199000000Y-33624000D01*
X199000000Y-74303691D01*
X198980315Y-74370730D01*
X198963681Y-74391372D01*
X187562181Y-85792872D01*
X187500858Y-85826357D01*
X187431166Y-85821373D01*
X187375233Y-85779501D01*
X187350816Y-85714037D01*
X187350500Y-85705191D01*
X187350500Y-85628713D01*
X187348288Y-85614746D01*
X187317246Y-85418757D01*
X187251557Y-85216588D01*
X187155051Y-85027184D01*
X187155049Y-85027181D01*
X187155048Y-85027179D01*
X187030109Y-84855213D01*
X186879786Y-84704890D01*
X186707820Y-84579951D01*
X186518414Y-84483444D01*
X186518413Y-84483443D01*
X186518412Y-84483443D01*
X186316243Y-84417754D01*
X186316241Y-84417753D01*
X186316240Y-84417753D01*
X186154957Y-84392208D01*
X186106287Y-84384500D01*
X185893713Y-84384500D01*
X185783888Y-84401894D01*
X185678945Y-84418516D01*
X185678686Y-84416882D01*
X185616094Y-84413730D01*
X185569288Y-84384342D01*
X182679674Y-81494727D01*
X182679673Y-81494726D01*
X182675544Y-81491967D01*
X182573127Y-81423535D01*
X182454744Y-81374499D01*
X182454738Y-81374497D01*
X182329071Y-81349500D01*
X182329069Y-81349500D01*
X158524499Y-81349500D01*
X158457460Y-81329815D01*
X158411705Y-81277011D01*
X158400499Y-81225500D01*
X158400499Y-80949998D01*
X158400498Y-80949981D01*
X158389999Y-80847203D01*
X158389998Y-80847200D01*
X158353843Y-80738093D01*
X158334814Y-80680666D01*
X158242712Y-80531344D01*
X158118656Y-80407288D01*
X157969334Y-80315186D01*
X157802797Y-80260001D01*
X157802795Y-80260000D01*
X157700010Y-80249500D01*
X156299998Y-80249500D01*
X156299981Y-80249501D01*
X156197203Y-80260000D01*
X156197200Y-80260001D01*
X156030668Y-80315185D01*
X156030663Y-80315187D01*
X155881342Y-80407289D01*
X155757289Y-80531342D01*
X155665187Y-80680663D01*
X155665185Y-80680668D01*
X155643667Y-80745606D01*
X155610001Y-80847203D01*
X155610001Y-80847204D01*
X155610000Y-80847204D01*
X155599500Y-80949983D01*
X155599500Y-83050001D01*
X155599501Y-83050018D01*
X155610000Y-83152796D01*
X155610001Y-83152799D01*
X155649517Y-83272048D01*
X155665186Y-83319334D01*
X155757288Y-83468656D01*
X155881344Y-83592712D01*
X156030666Y-83684814D01*
X156197203Y-83739999D01*
X156238103Y-83744177D01*
X156302793Y-83770573D01*
X156342945Y-83827753D01*
X156349500Y-83867535D01*
X156349500Y-88414192D01*
X156329815Y-88481231D01*
X156313181Y-88501873D01*
X150134373Y-94680681D01*
X150073050Y-94714166D01*
X150046692Y-94717000D01*
X139349241Y-94717000D01*
X139282202Y-94697315D01*
X139236447Y-94644511D01*
X139225623Y-94583271D01*
X139225921Y-94579473D01*
X138546447Y-93900000D01*
X138552661Y-93900000D01*
X138654394Y-93872741D01*
X138745606Y-93820080D01*
X138820080Y-93745606D01*
X138872741Y-93654394D01*
X138900000Y-93552661D01*
X138900000Y-93546447D01*
X139579474Y-94225921D01*
X139611859Y-94181349D01*
X139704755Y-93999031D01*
X139767990Y-93804417D01*
X139800000Y-93602317D01*
X139800000Y-93397682D01*
X139767990Y-93195582D01*
X139704755Y-93000968D01*
X139611859Y-92818650D01*
X139579474Y-92774077D01*
X139579474Y-92774076D01*
X138900000Y-93453551D01*
X138900000Y-93447339D01*
X138872741Y-93345606D01*
X138820080Y-93254394D01*
X138745606Y-93179920D01*
X138654394Y-93127259D01*
X138552661Y-93100000D01*
X138546446Y-93100000D01*
X139225922Y-92420524D01*
X139225921Y-92420523D01*
X139181359Y-92388147D01*
X139181350Y-92388141D01*
X138999031Y-92295244D01*
X138804417Y-92232009D01*
X138602317Y-92200000D01*
X138397683Y-92200000D01*
X138195582Y-92232009D01*
X138000968Y-92295244D01*
X137818644Y-92388143D01*
X137774077Y-92420523D01*
X137774077Y-92420524D01*
X138453554Y-93100000D01*
X138447339Y-93100000D01*
X138345606Y-93127259D01*
X138254394Y-93179920D01*
X138179920Y-93254394D01*
X138127259Y-93345606D01*
X138100000Y-93447339D01*
X138100000Y-93453553D01*
X137420524Y-92774077D01*
X137420523Y-92774077D01*
X137388143Y-92818644D01*
X137295244Y-93000968D01*
X137232009Y-93195582D01*
X137200000Y-93397682D01*
X137200000Y-93602317D01*
X137232009Y-93804417D01*
X137295244Y-93999031D01*
X137388141Y-94181350D01*
X137388147Y-94181359D01*
X137420523Y-94225921D01*
X137420524Y-94225922D01*
X138100000Y-93546446D01*
X138100000Y-93552661D01*
X138127259Y-93654394D01*
X138179920Y-93745606D01*
X138254394Y-93820080D01*
X138345606Y-93872741D01*
X138447339Y-93900000D01*
X138453553Y-93900000D01*
X137774077Y-94579473D01*
X137774376Y-94583271D01*
X137760012Y-94651648D01*
X137710961Y-94701405D01*
X137650758Y-94717000D01*
X134024500Y-94717000D01*
X133957461Y-94697315D01*
X133911706Y-94644511D01*
X133900500Y-94593000D01*
X133900499Y-93449998D01*
X133900498Y-93449980D01*
X133895946Y-93405417D01*
X133894173Y-93388067D01*
X133889999Y-93347203D01*
X133834814Y-93180666D01*
X133742712Y-93031344D01*
X133618656Y-92907288D01*
X133525888Y-92850069D01*
X133469336Y-92815187D01*
X133469331Y-92815185D01*
X133467862Y-92814698D01*
X133302797Y-92760001D01*
X133302795Y-92760000D01*
X133200010Y-92749500D01*
X131799998Y-92749500D01*
X131799981Y-92749501D01*
X131697203Y-92760000D01*
X131697200Y-92760001D01*
X131530668Y-92815185D01*
X131530663Y-92815187D01*
X131381342Y-92907289D01*
X131257289Y-93031342D01*
X131165187Y-93180663D01*
X131165186Y-93180666D01*
X131110001Y-93347203D01*
X131110001Y-93347204D01*
X131110000Y-93347204D01*
X131099500Y-93449983D01*
X131099500Y-95550001D01*
X131099501Y-95550018D01*
X131110000Y-95652796D01*
X131110001Y-95652799D01*
X131137721Y-95736451D01*
X131165186Y-95819334D01*
X131257288Y-95968656D01*
X131381344Y-96092712D01*
X131530666Y-96184814D01*
X131697203Y-96239999D01*
X131799991Y-96250500D01*
X133200008Y-96250499D01*
X133259836Y-96244387D01*
X133328527Y-96257156D01*
X133360118Y-96280064D01*
X138085324Y-101005271D01*
X138085331Y-101005277D01*
X138191871Y-101076464D01*
X138191870Y-101076464D01*
X138226544Y-101090826D01*
X138310256Y-101125501D01*
X138310260Y-101125501D01*
X138310261Y-101125502D01*
X138435928Y-101150500D01*
X138435931Y-101150500D01*
X143975382Y-101150500D01*
X144042421Y-101170185D01*
X144076099Y-101204591D01*
X144077085Y-101203875D01*
X144204890Y-101379786D01*
X144355213Y-101530109D01*
X144527179Y-101655048D01*
X144527181Y-101655049D01*
X144527184Y-101655051D01*
X144716588Y-101751557D01*
X144918757Y-101817246D01*
X145128713Y-101850500D01*
X145128714Y-101850500D01*
X145341286Y-101850500D01*
X145341287Y-101850500D01*
X145551243Y-101817246D01*
X145753412Y-101751557D01*
X145942816Y-101655051D01*
X146114792Y-101530104D01*
X146228329Y-101416566D01*
X146289648Y-101383084D01*
X146359340Y-101388068D01*
X146415274Y-101429939D01*
X146432189Y-101460917D01*
X146481202Y-101592328D01*
X146481206Y-101592335D01*
X146567452Y-101707544D01*
X146567455Y-101707547D01*
X146682664Y-101793793D01*
X146682671Y-101793797D01*
X146727618Y-101810561D01*
X146817517Y-101844091D01*
X146877127Y-101850500D01*
X147000500Y-101850499D01*
X147067539Y-101870183D01*
X147113294Y-101922987D01*
X147124500Y-101974499D01*
X147124500Y-103814794D01*
X147104815Y-103881833D01*
X147088181Y-103902475D01*
X141070685Y-109919970D01*
X141009362Y-109953455D01*
X140939670Y-109948471D01*
X140883737Y-109906599D01*
X140872519Y-109888584D01*
X140813153Y-109772073D01*
X140783343Y-109713567D01*
X140644517Y-109522490D01*
X140477510Y-109355483D01*
X140286433Y-109216657D01*
X140223294Y-109184486D01*
X140075996Y-109109433D01*
X139851368Y-109036446D01*
X139618097Y-108999500D01*
X139618092Y-108999500D01*
X139381908Y-108999500D01*
X139381903Y-108999500D01*
X139148631Y-109036446D01*
X138924003Y-109109433D01*
X138713566Y-109216657D01*
X138638608Y-109271118D01*
X138522490Y-109355483D01*
X138522488Y-109355485D01*
X138522487Y-109355485D01*
X138355485Y-109522487D01*
X138355485Y-109522488D01*
X138355483Y-109522490D01*
X138314267Y-109579219D01*
X138216657Y-109713566D01*
X138109433Y-109924003D01*
X138036446Y-110148631D01*
X137999500Y-110381902D01*
X137999500Y-110618097D01*
X138036446Y-110851368D01*
X138109433Y-111075996D01*
X138216657Y-111286433D01*
X138355483Y-111477510D01*
X138522490Y-111644517D01*
X138713567Y-111783343D01*
X138904953Y-111880859D01*
X138955748Y-111928832D01*
X138972543Y-111996653D01*
X138951760Y-112060232D01*
X138923535Y-112102474D01*
X138874499Y-112220858D01*
X138874497Y-112220864D01*
X138849500Y-112346531D01*
X138849500Y-113071407D01*
X138829815Y-113138446D01*
X138781796Y-113181891D01*
X138713569Y-113216655D01*
X138705541Y-113222488D01*
X138522490Y-113355483D01*
X138522488Y-113355485D01*
X138522487Y-113355485D01*
X138355485Y-113522487D01*
X138355485Y-113522488D01*
X138355483Y-113522490D01*
X138321340Y-113569484D01*
X138216657Y-113713566D01*
X138109433Y-113924003D01*
X138036446Y-114148631D01*
X137999500Y-114381902D01*
X137999500Y-114618097D01*
X138036446Y-114851368D01*
X138109433Y-115075996D01*
X138148145Y-115151971D01*
X138216657Y-115286433D01*
X138355483Y-115477510D01*
X138522490Y-115644517D01*
X138713567Y-115783343D01*
X138812991Y-115834002D01*
X138924003Y-115890566D01*
X138924005Y-115890566D01*
X138924008Y-115890568D01*
X139024211Y-115923126D01*
X139148631Y-115963553D01*
X139381903Y-116000500D01*
X139381908Y-116000500D01*
X139618097Y-116000500D01*
X139851368Y-115963553D01*
X139902574Y-115946915D01*
X140075992Y-115890568D01*
X140286433Y-115783343D01*
X140477510Y-115644517D01*
X140644517Y-115477510D01*
X140783343Y-115286433D01*
X140890568Y-115075992D01*
X140963553Y-114851368D01*
X140965099Y-114841610D01*
X141000500Y-114618097D01*
X141000500Y-114381902D01*
X142999500Y-114381902D01*
X142999500Y-114618097D01*
X143036446Y-114851368D01*
X143109433Y-115075996D01*
X143148145Y-115151971D01*
X143216657Y-115286433D01*
X143355483Y-115477510D01*
X143522490Y-115644517D01*
X143713567Y-115783343D01*
X143812991Y-115834002D01*
X143924003Y-115890566D01*
X143924005Y-115890566D01*
X143924008Y-115890568D01*
X144024211Y-115923126D01*
X144148631Y-115963553D01*
X144381903Y-116000500D01*
X144381908Y-116000500D01*
X144618097Y-116000500D01*
X144851368Y-115963553D01*
X144902574Y-115946915D01*
X145075992Y-115890568D01*
X145286433Y-115783343D01*
X145477510Y-115644517D01*
X145644517Y-115477510D01*
X145783343Y-115286433D01*
X145890568Y-115075992D01*
X145963553Y-114851368D01*
X145965099Y-114841610D01*
X146000500Y-114618097D01*
X146000500Y-114381902D01*
X145963553Y-114148631D01*
X145890566Y-113924003D01*
X145834002Y-113812991D01*
X145783343Y-113713567D01*
X145644517Y-113522490D01*
X145477510Y-113355483D01*
X145286433Y-113216657D01*
X145234110Y-113189997D01*
X145075996Y-113109433D01*
X144851368Y-113036446D01*
X144618097Y-112999500D01*
X144618092Y-112999500D01*
X144381908Y-112999500D01*
X144381903Y-112999500D01*
X144148631Y-113036446D01*
X143924003Y-113109433D01*
X143713566Y-113216657D01*
X143625462Y-113280669D01*
X143522490Y-113355483D01*
X143522488Y-113355485D01*
X143522487Y-113355485D01*
X143355485Y-113522487D01*
X143355485Y-113522488D01*
X143355483Y-113522490D01*
X143321340Y-113569484D01*
X143216657Y-113713566D01*
X143109433Y-113924003D01*
X143036446Y-114148631D01*
X142999500Y-114381902D01*
X141000500Y-114381902D01*
X140963553Y-114148631D01*
X140890566Y-113924003D01*
X140834002Y-113812991D01*
X140783343Y-113713567D01*
X140644517Y-113522490D01*
X140477510Y-113355483D01*
X140286433Y-113216657D01*
X140286432Y-113216656D01*
X140286430Y-113216655D01*
X140218204Y-113181891D01*
X140167408Y-113133916D01*
X140150500Y-113071407D01*
X140150500Y-112731410D01*
X140170185Y-112664371D01*
X140186819Y-112643729D01*
X141353038Y-111477510D01*
X142841867Y-109988680D01*
X142903188Y-109955197D01*
X142972880Y-109960181D01*
X143028813Y-110002053D01*
X143053230Y-110067517D01*
X143047478Y-110114679D01*
X143036447Y-110148630D01*
X142999500Y-110381902D01*
X142999500Y-110618097D01*
X143036446Y-110851368D01*
X143109433Y-111075996D01*
X143216657Y-111286433D01*
X143355483Y-111477510D01*
X143522490Y-111644517D01*
X143713567Y-111783343D01*
X143812991Y-111834002D01*
X143924003Y-111890566D01*
X143924005Y-111890566D01*
X143924008Y-111890568D01*
X144028544Y-111924534D01*
X144148631Y-111963553D01*
X144381903Y-112000500D01*
X144381908Y-112000500D01*
X144618097Y-112000500D01*
X144851368Y-111963553D01*
X145075992Y-111890568D01*
X145286433Y-111783343D01*
X145477510Y-111644517D01*
X145644517Y-111477510D01*
X145783343Y-111286433D01*
X145890568Y-111075992D01*
X145963553Y-110851368D01*
X145976000Y-110772781D01*
X146000500Y-110618097D01*
X146000500Y-110381902D01*
X145963553Y-110148631D01*
X145902321Y-109960181D01*
X145890568Y-109924008D01*
X145890566Y-109924005D01*
X145890566Y-109924003D01*
X145813153Y-109772073D01*
X145783343Y-109713567D01*
X145644517Y-109522490D01*
X145477510Y-109355483D01*
X145286433Y-109216657D01*
X145223294Y-109184486D01*
X145075996Y-109109433D01*
X144851368Y-109036446D01*
X144618097Y-108999500D01*
X144618092Y-108999500D01*
X144381908Y-108999500D01*
X144381903Y-108999500D01*
X144148630Y-109036447D01*
X144114679Y-109047478D01*
X144044838Y-109049472D01*
X143985006Y-109013390D01*
X143954179Y-108950689D01*
X143962144Y-108881275D01*
X143988679Y-108841868D01*
X148280276Y-104550272D01*
X148351465Y-104443730D01*
X148400501Y-104325347D01*
X148404641Y-104304534D01*
X148412483Y-104265112D01*
X148425500Y-104199674D01*
X148425500Y-103915513D01*
X154299500Y-103915513D01*
X154299500Y-104104486D01*
X154329059Y-104291118D01*
X154387454Y-104470836D01*
X154473240Y-104639199D01*
X154584310Y-104792073D01*
X154717927Y-104925690D01*
X154870801Y-105036760D01*
X154950347Y-105077290D01*
X155039163Y-105122545D01*
X155039165Y-105122545D01*
X155039168Y-105122547D01*
X155135497Y-105153846D01*
X155218881Y-105180940D01*
X155405514Y-105210500D01*
X155405519Y-105210500D01*
X155594479Y-105210500D01*
X155594481Y-105210500D01*
X155692711Y-105194941D01*
X155762000Y-105203895D01*
X155799787Y-105229733D01*
X157575333Y-107005279D01*
X157607587Y-107026829D01*
X157623716Y-107037606D01*
X157681873Y-107076465D01*
X157800256Y-107125501D01*
X157800260Y-107125501D01*
X157800261Y-107125502D01*
X157925928Y-107150500D01*
X157925931Y-107150500D01*
X158054069Y-107150500D01*
X158183641Y-107150500D01*
X158250680Y-107170185D01*
X158294126Y-107218205D01*
X158302187Y-107234026D01*
X158431752Y-107412358D01*
X158431756Y-107412363D01*
X158587636Y-107568243D01*
X158587641Y-107568247D01*
X158743192Y-107681260D01*
X158765978Y-107697815D01*
X158894375Y-107763237D01*
X158962393Y-107797895D01*
X158962396Y-107797896D01*
X159004337Y-107811523D01*
X159172049Y-107866015D01*
X159389778Y-107900500D01*
X159389779Y-107900500D01*
X159610221Y-107900500D01*
X159610222Y-107900500D01*
X159827951Y-107866015D01*
X160037606Y-107797895D01*
X160234022Y-107697815D01*
X160412365Y-107568242D01*
X160568242Y-107412365D01*
X160649991Y-107299845D01*
X160705320Y-107257180D01*
X160774933Y-107251201D01*
X160836728Y-107283806D01*
X160848582Y-107297485D01*
X160848932Y-107297513D01*
X161557861Y-106588584D01*
X161580667Y-106673694D01*
X161639910Y-106776306D01*
X161723694Y-106860090D01*
X161826306Y-106919333D01*
X161911414Y-106942137D01*
X161202485Y-107651065D01*
X161202485Y-107651066D01*
X161266243Y-107697388D01*
X161462589Y-107797432D01*
X161672164Y-107865526D01*
X161889819Y-107900000D01*
X162110181Y-107900000D01*
X162327835Y-107865526D01*
X162537410Y-107797432D01*
X162733760Y-107697386D01*
X162797513Y-107651066D01*
X162797514Y-107651066D01*
X162088585Y-106942138D01*
X162173694Y-106919333D01*
X162276306Y-106860090D01*
X162360090Y-106776306D01*
X162419333Y-106673694D01*
X162442138Y-106588585D01*
X163063181Y-107209628D01*
X163096666Y-107270951D01*
X163099500Y-107297308D01*
X163099500Y-107447869D01*
X163099501Y-107447876D01*
X163105908Y-107507483D01*
X163156202Y-107642328D01*
X163156206Y-107642335D01*
X163242452Y-107757544D01*
X163242455Y-107757547D01*
X163357664Y-107843793D01*
X163357671Y-107843797D01*
X163492517Y-107894091D01*
X163492516Y-107894091D01*
X163499444Y-107894835D01*
X163552127Y-107900500D01*
X165447872Y-107900499D01*
X165507483Y-107894091D01*
X165642331Y-107843796D01*
X165757546Y-107757546D01*
X165843796Y-107642331D01*
X165894091Y-107507483D01*
X165900500Y-107447873D01*
X165900500Y-107266898D01*
X165920185Y-107199859D01*
X165972989Y-107154104D01*
X166000308Y-107145281D01*
X166067606Y-107131893D01*
X166099744Y-107125501D01*
X166218127Y-107076465D01*
X166276284Y-107037606D01*
X166324669Y-107005277D01*
X168200212Y-105129731D01*
X168261533Y-105096248D01*
X168307285Y-105094941D01*
X168405519Y-105110500D01*
X168405521Y-105110500D01*
X168594486Y-105110500D01*
X168781118Y-105080940D01*
X168960832Y-105022547D01*
X169129199Y-104936760D01*
X169282073Y-104825690D01*
X169415690Y-104692073D01*
X169526760Y-104539199D01*
X169612547Y-104370832D01*
X169670940Y-104191118D01*
X169684662Y-104104481D01*
X169700500Y-104004486D01*
X169700500Y-103815513D01*
X169670940Y-103628881D01*
X169629317Y-103500781D01*
X169612547Y-103449168D01*
X169612545Y-103449165D01*
X169612545Y-103449163D01*
X169535719Y-103298385D01*
X169526760Y-103280801D01*
X169415690Y-103127927D01*
X169282073Y-102994310D01*
X169129199Y-102883240D01*
X168960836Y-102797454D01*
X168781118Y-102739059D01*
X168594486Y-102709500D01*
X168594481Y-102709500D01*
X168405519Y-102709500D01*
X168405514Y-102709500D01*
X168218881Y-102739059D01*
X168039163Y-102797454D01*
X167870800Y-102883240D01*
X167794515Y-102938665D01*
X167717927Y-102994310D01*
X167717925Y-102994312D01*
X167717924Y-102994312D01*
X167584312Y-103127924D01*
X167584312Y-103127925D01*
X167584310Y-103127927D01*
X167566249Y-103152786D01*
X167473240Y-103280800D01*
X167387454Y-103449163D01*
X167329059Y-103628881D01*
X167299500Y-103815513D01*
X167299500Y-104004486D01*
X167315057Y-104102709D01*
X167306102Y-104172002D01*
X167280265Y-104209788D01*
X166058628Y-105431425D01*
X165997305Y-105464910D01*
X165927613Y-105459926D01*
X165871680Y-105418054D01*
X165854765Y-105387077D01*
X165843797Y-105357671D01*
X165843793Y-105357664D01*
X165757547Y-105242455D01*
X165757544Y-105242452D01*
X165642335Y-105156206D01*
X165642328Y-105156202D01*
X165507482Y-105105908D01*
X165507483Y-105105908D01*
X165447883Y-105099501D01*
X165447881Y-105099500D01*
X165447873Y-105099500D01*
X165447864Y-105099500D01*
X163552129Y-105099500D01*
X163552123Y-105099501D01*
X163492516Y-105105908D01*
X163357671Y-105156202D01*
X163357664Y-105156206D01*
X163242455Y-105242452D01*
X163242452Y-105242455D01*
X163156206Y-105357664D01*
X163156202Y-105357671D01*
X163105908Y-105492517D01*
X163099501Y-105552116D01*
X163099500Y-105552135D01*
X163099500Y-105702691D01*
X163079815Y-105769730D01*
X163063181Y-105790372D01*
X162442138Y-106411414D01*
X162419333Y-106326306D01*
X162360090Y-106223694D01*
X162276306Y-106139910D01*
X162173694Y-106080667D01*
X162088583Y-106057861D01*
X162797513Y-105348932D01*
X162733756Y-105302611D01*
X162537410Y-105202567D01*
X162327835Y-105134473D01*
X162110181Y-105100000D01*
X161889819Y-105100000D01*
X161672164Y-105134473D01*
X161462589Y-105202567D01*
X161266233Y-105302616D01*
X161202485Y-105348931D01*
X161202485Y-105348932D01*
X161911414Y-106057861D01*
X161826306Y-106080667D01*
X161723694Y-106139910D01*
X161639910Y-106223694D01*
X161580667Y-106326306D01*
X161557861Y-106411414D01*
X160848932Y-105702485D01*
X160847448Y-105702602D01*
X160795296Y-105742817D01*
X160725682Y-105748796D01*
X160663887Y-105716190D01*
X160649990Y-105700151D01*
X160568247Y-105587641D01*
X160568243Y-105587636D01*
X160412363Y-105431756D01*
X160412358Y-105431752D01*
X160234025Y-105302187D01*
X160234024Y-105302186D01*
X160234022Y-105302185D01*
X160116791Y-105242452D01*
X160037606Y-105202104D01*
X160037603Y-105202103D01*
X159827952Y-105133985D01*
X159719086Y-105116742D01*
X159610222Y-105099500D01*
X159389778Y-105099500D01*
X159320327Y-105110500D01*
X159172047Y-105133985D01*
X158962396Y-105202103D01*
X158962393Y-105202104D01*
X158765974Y-105302187D01*
X158587641Y-105431752D01*
X158587636Y-105431756D01*
X158431756Y-105587636D01*
X158431752Y-105587641D01*
X158334390Y-105721649D01*
X158279060Y-105764315D01*
X158209447Y-105770294D01*
X158147652Y-105737688D01*
X158146391Y-105736445D01*
X156719733Y-104309787D01*
X156686248Y-104248464D01*
X156684941Y-104202713D01*
X156700500Y-104104481D01*
X156700500Y-103915519D01*
X156700500Y-103915513D01*
X156670940Y-103728881D01*
X156612545Y-103549163D01*
X156526759Y-103380800D01*
X156504018Y-103349500D01*
X156415690Y-103227927D01*
X156282073Y-103094310D01*
X156129199Y-102983240D01*
X155960836Y-102897454D01*
X155781118Y-102839059D01*
X155594486Y-102809500D01*
X155594481Y-102809500D01*
X155405519Y-102809500D01*
X155405514Y-102809500D01*
X155218881Y-102839059D01*
X155039163Y-102897454D01*
X154870800Y-102983240D01*
X154783579Y-103046610D01*
X154717927Y-103094310D01*
X154717925Y-103094312D01*
X154717924Y-103094312D01*
X154584312Y-103227924D01*
X154584312Y-103227925D01*
X154584310Y-103227927D01*
X154545895Y-103280800D01*
X154473240Y-103380800D01*
X154387454Y-103549163D01*
X154329059Y-103728881D01*
X154299500Y-103915513D01*
X148425500Y-103915513D01*
X148425500Y-101974499D01*
X148445185Y-101907460D01*
X148497989Y-101861705D01*
X148549500Y-101850499D01*
X148672871Y-101850499D01*
X148672872Y-101850499D01*
X148732483Y-101844091D01*
X148867331Y-101793796D01*
X148982546Y-101707546D01*
X149068796Y-101592331D01*
X149119091Y-101457483D01*
X149125500Y-101397873D01*
X149125499Y-99602128D01*
X149119091Y-99542517D01*
X149068796Y-99407669D01*
X149068793Y-99407664D01*
X148982547Y-99292455D01*
X148982544Y-99292452D01*
X148867335Y-99206206D01*
X148867328Y-99206202D01*
X148732482Y-99155908D01*
X148732483Y-99155908D01*
X148672883Y-99149501D01*
X148672881Y-99149500D01*
X148672873Y-99149500D01*
X148672865Y-99149500D01*
X147804807Y-99149500D01*
X147737768Y-99129815D01*
X147692013Y-99077011D01*
X147682069Y-99007853D01*
X147711094Y-98944297D01*
X147717126Y-98937819D01*
X150600627Y-96054319D01*
X150661950Y-96020834D01*
X150688308Y-96018000D01*
X176431571Y-96018000D01*
X176516115Y-96001182D01*
X176557244Y-95993001D01*
X176675627Y-95943965D01*
X176782169Y-95872777D01*
X184437821Y-88217122D01*
X184499142Y-88183639D01*
X184568834Y-88188623D01*
X184624767Y-88230495D01*
X184649184Y-88295959D01*
X184649500Y-88304805D01*
X184649500Y-89172870D01*
X184649501Y-89172876D01*
X184655908Y-89232483D01*
X184706202Y-89367328D01*
X184706206Y-89367335D01*
X184792452Y-89482544D01*
X184792455Y-89482547D01*
X184907664Y-89568793D01*
X184907671Y-89568797D01*
X184952618Y-89585561D01*
X185042517Y-89619091D01*
X185102127Y-89625500D01*
X185225500Y-89625499D01*
X185292539Y-89645183D01*
X185338294Y-89697987D01*
X185349500Y-89749499D01*
X185349500Y-99309829D01*
X185368962Y-99407669D01*
X185374499Y-99435503D01*
X185423534Y-99553885D01*
X185494726Y-99660433D01*
X185494727Y-99660434D01*
X185792137Y-99957843D01*
X185825622Y-100019166D01*
X185820638Y-100088857D01*
X185778767Y-100144791D01*
X185713302Y-100169208D01*
X185691855Y-100168882D01*
X185600012Y-100159500D01*
X184399998Y-100159500D01*
X184399981Y-100159501D01*
X184297203Y-100170000D01*
X184297200Y-100170001D01*
X184130668Y-100225185D01*
X184130663Y-100225187D01*
X183981342Y-100317289D01*
X183857289Y-100441342D01*
X183765187Y-100590663D01*
X183765186Y-100590666D01*
X183710001Y-100757203D01*
X183710001Y-100757204D01*
X183710000Y-100757204D01*
X183699500Y-100859983D01*
X183699500Y-101789191D01*
X183679815Y-101856230D01*
X183663181Y-101876872D01*
X171120759Y-114419293D01*
X171059436Y-114452778D01*
X170989744Y-114447794D01*
X170933811Y-114405922D01*
X170910605Y-114351010D01*
X170890457Y-114223803D01*
X170890457Y-114223800D01*
X170833085Y-114047229D01*
X170748799Y-113881807D01*
X170639672Y-113731607D01*
X170508393Y-113600328D01*
X170358193Y-113491201D01*
X170192771Y-113406915D01*
X170016200Y-113349543D01*
X170016198Y-113349542D01*
X170016196Y-113349542D01*
X169832834Y-113320500D01*
X169832829Y-113320500D01*
X169647171Y-113320500D01*
X169647166Y-113320500D01*
X169463803Y-113349542D01*
X169463802Y-113349542D01*
X169312818Y-113398600D01*
X169242977Y-113400595D01*
X169183144Y-113364514D01*
X169152316Y-113301813D01*
X169150500Y-113280669D01*
X169150500Y-110064464D01*
X169170185Y-109997425D01*
X169201616Y-109964145D01*
X169282069Y-109905693D01*
X169282069Y-109905692D01*
X169282073Y-109905690D01*
X169415690Y-109772073D01*
X169526760Y-109619199D01*
X169612547Y-109450832D01*
X169670940Y-109271118D01*
X169684999Y-109182351D01*
X169700500Y-109084486D01*
X169700500Y-108895513D01*
X169670940Y-108708881D01*
X169643846Y-108625497D01*
X169612547Y-108529168D01*
X169612545Y-108529165D01*
X169612545Y-108529163D01*
X169526759Y-108360800D01*
X169415690Y-108207927D01*
X169282073Y-108074310D01*
X169129199Y-107963240D01*
X168960836Y-107877454D01*
X168781118Y-107819059D01*
X168594486Y-107789500D01*
X168594481Y-107789500D01*
X168405519Y-107789500D01*
X168405514Y-107789500D01*
X168218881Y-107819059D01*
X168039163Y-107877454D01*
X167870800Y-107963240D01*
X167783579Y-108026610D01*
X167717927Y-108074310D01*
X167717925Y-108074312D01*
X167717924Y-108074312D01*
X167584312Y-108207924D01*
X167584312Y-108207925D01*
X167584310Y-108207927D01*
X167566249Y-108232786D01*
X167473240Y-108360800D01*
X167387454Y-108529163D01*
X167329059Y-108708881D01*
X167299500Y-108895513D01*
X167299500Y-109084486D01*
X167329059Y-109271118D01*
X167387454Y-109450836D01*
X167423963Y-109522488D01*
X167473240Y-109619199D01*
X167584310Y-109772073D01*
X167584312Y-109772075D01*
X167717930Y-109905693D01*
X167798384Y-109964145D01*
X167841051Y-110019475D01*
X167849500Y-110064464D01*
X167849500Y-115864069D01*
X167854771Y-115890568D01*
X167857043Y-115901986D01*
X167857043Y-115901989D01*
X167865979Y-115946915D01*
X167874499Y-115989744D01*
X167923535Y-116108127D01*
X167994723Y-116214669D01*
X167994726Y-116214673D01*
X167994727Y-116214674D01*
X168538620Y-116758566D01*
X168572105Y-116819889D01*
X168573412Y-116865645D01*
X168560500Y-116947165D01*
X168560500Y-117132834D01*
X168589542Y-117316196D01*
X168589543Y-117316200D01*
X168646915Y-117492771D01*
X168731201Y-117658193D01*
X168840328Y-117808393D01*
X168971607Y-117939672D01*
X169121807Y-118048799D01*
X169287229Y-118133085D01*
X169463800Y-118190457D01*
X169463802Y-118190457D01*
X169468433Y-118191962D01*
X169467726Y-118194135D01*
X169520129Y-118224248D01*
X169552271Y-118286286D01*
X169545771Y-118355852D01*
X169502692Y-118410861D01*
X169467999Y-118426704D01*
X169468433Y-118428038D01*
X169463802Y-118429542D01*
X169463800Y-118429543D01*
X169360502Y-118463107D01*
X169287226Y-118486916D01*
X169121806Y-118571201D01*
X169057267Y-118618092D01*
X168971607Y-118680328D01*
X168971605Y-118680330D01*
X168971604Y-118680330D01*
X168840330Y-118811604D01*
X168840330Y-118811605D01*
X168840328Y-118811607D01*
X168811440Y-118851368D01*
X168731201Y-118961806D01*
X168646916Y-119127226D01*
X168589542Y-119303803D01*
X168560500Y-119487165D01*
X168560500Y-119672834D01*
X168589542Y-119856196D01*
X168589543Y-119856200D01*
X168646915Y-120032771D01*
X168731201Y-120198193D01*
X168840328Y-120348393D01*
X168971607Y-120479672D01*
X169121807Y-120588799D01*
X169287229Y-120673085D01*
X169463800Y-120730457D01*
X169463802Y-120730457D01*
X169468433Y-120731962D01*
X169467726Y-120734135D01*
X169520129Y-120764248D01*
X169552271Y-120826286D01*
X169545771Y-120895852D01*
X169502692Y-120950861D01*
X169467999Y-120966704D01*
X169468433Y-120968038D01*
X169463802Y-120969542D01*
X169463800Y-120969543D01*
X169287229Y-121026915D01*
X169287226Y-121026916D01*
X169121806Y-121111201D01*
X169062804Y-121154069D01*
X168971607Y-121220328D01*
X168971605Y-121220330D01*
X168971604Y-121220330D01*
X168840330Y-121351604D01*
X168840330Y-121351605D01*
X168840328Y-121351607D01*
X168806531Y-121398125D01*
X168731201Y-121501806D01*
X168646916Y-121667226D01*
X168589542Y-121843803D01*
X168560500Y-122027165D01*
X168560500Y-122212834D01*
X168583580Y-122358554D01*
X168589543Y-122396200D01*
X168646915Y-122572771D01*
X168731201Y-122738193D01*
X168840328Y-122888393D01*
X168971607Y-123019672D01*
X169121807Y-123128799D01*
X169287229Y-123213085D01*
X169463800Y-123270457D01*
X169463802Y-123270457D01*
X169468433Y-123271962D01*
X169467726Y-123274135D01*
X169520129Y-123304248D01*
X169552271Y-123366286D01*
X169545771Y-123435852D01*
X169502692Y-123490861D01*
X169467999Y-123506704D01*
X169468433Y-123508038D01*
X169463802Y-123509542D01*
X169463800Y-123509543D01*
X169287229Y-123566915D01*
X169287226Y-123566916D01*
X169121806Y-123651201D01*
X169039157Y-123711250D01*
X168971607Y-123760328D01*
X168971605Y-123760330D01*
X168971604Y-123760330D01*
X168840330Y-123891604D01*
X168840330Y-123891605D01*
X168840328Y-123891607D01*
X168793462Y-123956111D01*
X168731201Y-124041806D01*
X168646916Y-124207226D01*
X168589542Y-124383803D01*
X168560500Y-124567165D01*
X168560500Y-124752834D01*
X168564971Y-124781060D01*
X168589543Y-124936200D01*
X168646915Y-125112771D01*
X168731201Y-125278193D01*
X168840328Y-125428393D01*
X168971607Y-125559672D01*
X169121807Y-125668799D01*
X169287229Y-125753085D01*
X169463800Y-125810457D01*
X169463802Y-125810457D01*
X169468433Y-125811962D01*
X169467726Y-125814135D01*
X169520129Y-125844248D01*
X169552271Y-125906286D01*
X169545771Y-125975852D01*
X169502692Y-126030861D01*
X169467999Y-126046704D01*
X169468433Y-126048038D01*
X169463802Y-126049542D01*
X169463800Y-126049543D01*
X169301999Y-126102116D01*
X169287226Y-126106916D01*
X169121806Y-126191201D01*
X169036111Y-126253462D01*
X168971607Y-126300328D01*
X168971605Y-126300330D01*
X168971604Y-126300330D01*
X168840330Y-126431604D01*
X168840330Y-126431605D01*
X168840328Y-126431607D01*
X168804363Y-126481108D01*
X168731201Y-126581806D01*
X168646916Y-126747226D01*
X168589542Y-126923803D01*
X168560500Y-127107165D01*
X168560500Y-127292834D01*
X168589524Y-127476083D01*
X168589543Y-127476200D01*
X168628481Y-127596037D01*
X168646916Y-127652774D01*
X168655289Y-127669207D01*
X168668184Y-127737876D01*
X168641906Y-127802616D01*
X168584799Y-127842872D01*
X168544803Y-127849500D01*
X155694636Y-127849500D01*
X155627597Y-127829815D01*
X155581842Y-127777011D01*
X155571898Y-127707853D01*
X155584151Y-127669206D01*
X155592619Y-127652586D01*
X155649968Y-127476083D01*
X155679000Y-127292788D01*
X155679000Y-127107211D01*
X155649968Y-126923916D01*
X155592620Y-126747416D01*
X155508370Y-126582068D01*
X155492847Y-126560704D01*
X154921725Y-127131826D01*
X154896037Y-127035956D01*
X154840084Y-126939044D01*
X154760956Y-126859916D01*
X154664044Y-126803963D01*
X154568172Y-126778274D01*
X155139295Y-126207151D01*
X155117931Y-126191629D01*
X154952583Y-126107379D01*
X154771449Y-126048525D01*
X154772068Y-126046619D01*
X154718803Y-126016015D01*
X154686656Y-125953980D01*
X154693152Y-125884413D01*
X154736227Y-125829401D01*
X154771939Y-125813107D01*
X154771567Y-125811962D01*
X154776197Y-125810457D01*
X154776200Y-125810457D01*
X154952771Y-125753085D01*
X155118193Y-125668799D01*
X155268393Y-125559672D01*
X155399672Y-125428393D01*
X155508799Y-125278193D01*
X155593085Y-125112771D01*
X155650457Y-124936200D01*
X155675070Y-124780800D01*
X155679500Y-124752834D01*
X155679500Y-124567165D01*
X155656704Y-124423242D01*
X155650457Y-124383800D01*
X155593085Y-124207229D01*
X155508799Y-124041807D01*
X155399672Y-123891607D01*
X155268393Y-123760328D01*
X155118193Y-123651201D01*
X154952771Y-123566915D01*
X154776200Y-123509543D01*
X154776197Y-123509542D01*
X154771567Y-123508038D01*
X154772277Y-123505852D01*
X154719914Y-123475797D01*
X154687740Y-123413776D01*
X154694205Y-123344206D01*
X154737256Y-123289176D01*
X154772004Y-123273307D01*
X154771567Y-123271962D01*
X154776197Y-123270457D01*
X154776200Y-123270457D01*
X154952771Y-123213085D01*
X155118193Y-123128799D01*
X155268393Y-123019672D01*
X155399672Y-122888393D01*
X155508799Y-122738193D01*
X155593085Y-122572771D01*
X155650457Y-122396200D01*
X155667100Y-122291118D01*
X155679500Y-122212834D01*
X155679500Y-122027165D01*
X155650457Y-121843803D01*
X155650457Y-121843800D01*
X155593085Y-121667229D01*
X155508799Y-121501807D01*
X155399672Y-121351607D01*
X155268393Y-121220328D01*
X155118193Y-121111201D01*
X154952771Y-121026915D01*
X154776200Y-120969543D01*
X154776197Y-120969542D01*
X154771567Y-120968038D01*
X154772277Y-120965852D01*
X154719914Y-120935797D01*
X154687740Y-120873776D01*
X154694205Y-120804206D01*
X154737256Y-120749176D01*
X154772004Y-120733307D01*
X154771567Y-120731962D01*
X154776197Y-120730457D01*
X154776200Y-120730457D01*
X154952771Y-120673085D01*
X155118193Y-120588799D01*
X155268393Y-120479672D01*
X155399672Y-120348393D01*
X155508799Y-120198193D01*
X155593085Y-120032771D01*
X155650457Y-119856200D01*
X155663365Y-119774701D01*
X155679500Y-119672834D01*
X155679500Y-119487165D01*
X155650457Y-119303803D01*
X155650457Y-119303800D01*
X155593085Y-119127229D01*
X155508799Y-118961807D01*
X155399672Y-118811607D01*
X155268393Y-118680328D01*
X155118193Y-118571201D01*
X154952771Y-118486915D01*
X154776200Y-118429543D01*
X154776197Y-118429542D01*
X154771567Y-118428038D01*
X154772277Y-118425852D01*
X154719914Y-118395797D01*
X154687740Y-118333776D01*
X154694205Y-118264206D01*
X154737256Y-118209176D01*
X154772004Y-118193307D01*
X154771567Y-118191962D01*
X154776197Y-118190457D01*
X154776200Y-118190457D01*
X154952771Y-118133085D01*
X155118193Y-118048799D01*
X155268393Y-117939672D01*
X155399672Y-117808393D01*
X155508799Y-117658193D01*
X155593085Y-117492771D01*
X155650457Y-117316200D01*
X155666223Y-117216657D01*
X155679500Y-117132834D01*
X155679500Y-116947165D01*
X155650457Y-116763803D01*
X155650457Y-116763800D01*
X155593085Y-116587229D01*
X155508799Y-116421807D01*
X155399672Y-116271607D01*
X155268393Y-116140328D01*
X155118193Y-116031201D01*
X154952771Y-115946915D01*
X154776200Y-115889543D01*
X154776197Y-115889542D01*
X154771567Y-115888038D01*
X154772277Y-115885852D01*
X154719914Y-115855797D01*
X154687740Y-115793776D01*
X154694205Y-115724206D01*
X154737256Y-115669176D01*
X154772004Y-115653307D01*
X154771567Y-115651962D01*
X154776197Y-115650457D01*
X154776200Y-115650457D01*
X154952771Y-115593085D01*
X155118193Y-115508799D01*
X155268393Y-115399672D01*
X155399672Y-115268393D01*
X155508799Y-115118193D01*
X155593085Y-114952771D01*
X155650457Y-114776200D01*
X155663365Y-114694701D01*
X155679500Y-114592834D01*
X155679500Y-114407165D01*
X155650457Y-114223803D01*
X155650457Y-114223800D01*
X155593085Y-114047229D01*
X155508799Y-113881807D01*
X155399672Y-113731607D01*
X155268393Y-113600328D01*
X155118193Y-113491201D01*
X154952771Y-113406915D01*
X154776200Y-113349543D01*
X154776198Y-113349542D01*
X154776196Y-113349542D01*
X154592834Y-113320500D01*
X154592829Y-113320500D01*
X154407171Y-113320500D01*
X154407166Y-113320500D01*
X154263898Y-113343191D01*
X154194604Y-113334236D01*
X154141152Y-113289240D01*
X154120513Y-113222488D01*
X154120500Y-113220718D01*
X154120500Y-110438307D01*
X154140185Y-110371268D01*
X154156815Y-110350630D01*
X154522160Y-109985284D01*
X154583483Y-109951800D01*
X154653175Y-109956784D01*
X154697522Y-109985285D01*
X154717927Y-110005690D01*
X154870801Y-110116760D01*
X154933350Y-110148630D01*
X155039163Y-110202545D01*
X155039165Y-110202545D01*
X155039168Y-110202547D01*
X155135497Y-110233846D01*
X155218881Y-110260940D01*
X155405514Y-110290500D01*
X155405519Y-110290500D01*
X155594486Y-110290500D01*
X155781118Y-110260940D01*
X155960832Y-110202547D01*
X156129199Y-110116760D01*
X156282073Y-110005690D01*
X156415690Y-109872073D01*
X156526760Y-109719199D01*
X156612547Y-109550832D01*
X156670940Y-109371118D01*
X156673416Y-109355483D01*
X156700500Y-109184486D01*
X156700500Y-108995513D01*
X156670940Y-108808881D01*
X156612545Y-108629163D01*
X156526759Y-108460800D01*
X156415690Y-108307927D01*
X156282073Y-108174310D01*
X156129199Y-108063240D01*
X155960836Y-107977454D01*
X155781118Y-107919059D01*
X155594486Y-107889500D01*
X155594481Y-107889500D01*
X155405519Y-107889500D01*
X155405514Y-107889500D01*
X155218881Y-107919059D01*
X155039163Y-107977454D01*
X154870800Y-108063240D01*
X154836683Y-108088028D01*
X154717927Y-108174310D01*
X154717925Y-108174312D01*
X154717924Y-108174312D01*
X154584309Y-108307927D01*
X154525712Y-108388578D01*
X154502889Y-108406175D01*
X154481991Y-108426022D01*
X154474167Y-108428323D01*
X154470381Y-108431243D01*
X154448615Y-108437498D01*
X154438113Y-108439500D01*
X154433431Y-108439500D01*
X154326347Y-108460801D01*
X154318374Y-108462386D01*
X154307755Y-108464499D01*
X154189370Y-108513535D01*
X154082831Y-108584722D01*
X154082824Y-108584728D01*
X152964727Y-109702825D01*
X152964721Y-109702832D01*
X152894578Y-109807809D01*
X152894579Y-109807810D01*
X152893536Y-109809370D01*
X152893533Y-109809376D01*
X152844499Y-109927755D01*
X152844497Y-109927761D01*
X152819500Y-110053428D01*
X152819500Y-110053431D01*
X152819500Y-121154069D01*
X152836494Y-121239500D01*
X152844499Y-121279744D01*
X152893534Y-121398125D01*
X152964726Y-121504673D01*
X152964727Y-121504674D01*
X153298620Y-121838566D01*
X153332105Y-121899889D01*
X153333412Y-121945645D01*
X153320500Y-122027165D01*
X153320500Y-122212834D01*
X153343580Y-122358554D01*
X153349543Y-122396200D01*
X153406915Y-122572771D01*
X153491201Y-122738193D01*
X153600328Y-122888393D01*
X153731607Y-123019672D01*
X153881807Y-123128799D01*
X154047229Y-123213085D01*
X154223800Y-123270457D01*
X154223802Y-123270457D01*
X154228433Y-123271962D01*
X154227726Y-123274135D01*
X154280129Y-123304248D01*
X154312271Y-123366286D01*
X154305771Y-123435852D01*
X154262692Y-123490861D01*
X154227999Y-123506704D01*
X154228433Y-123508038D01*
X154223802Y-123509542D01*
X154223800Y-123509543D01*
X154047229Y-123566915D01*
X154047226Y-123566916D01*
X153881803Y-123651203D01*
X153781762Y-123723887D01*
X153715956Y-123747367D01*
X153647902Y-123731541D01*
X153621196Y-123711250D01*
X152219733Y-122309787D01*
X152186248Y-122248464D01*
X152184941Y-122202713D01*
X152200500Y-122104481D01*
X152200500Y-121915519D01*
X152200500Y-121915513D01*
X152170940Y-121728881D01*
X152112545Y-121549163D01*
X152026759Y-121380800D01*
X152005549Y-121351607D01*
X151915690Y-121227927D01*
X151782073Y-121094310D01*
X151629199Y-120983240D01*
X151602317Y-120969543D01*
X151460836Y-120897454D01*
X151281118Y-120839059D01*
X151094486Y-120809500D01*
X151094481Y-120809500D01*
X150905519Y-120809500D01*
X150905514Y-120809500D01*
X150718881Y-120839059D01*
X150539163Y-120897454D01*
X150370800Y-120983240D01*
X150310686Y-121026916D01*
X150217927Y-121094310D01*
X150217925Y-121094312D01*
X150217924Y-121094312D01*
X150084312Y-121227924D01*
X150084312Y-121227925D01*
X150084310Y-121227927D01*
X150046663Y-121279744D01*
X149973240Y-121380800D01*
X149887454Y-121549163D01*
X149829059Y-121728881D01*
X149799500Y-121915513D01*
X149799500Y-122104486D01*
X149829059Y-122291118D01*
X149887454Y-122470836D01*
X149939393Y-122572771D01*
X149973240Y-122639199D01*
X150084310Y-122792073D01*
X150217927Y-122925690D01*
X150370801Y-123036760D01*
X150450347Y-123077290D01*
X150539163Y-123122545D01*
X150539165Y-123122545D01*
X150539168Y-123122547D01*
X150635497Y-123153846D01*
X150718881Y-123180940D01*
X150905514Y-123210500D01*
X150905519Y-123210500D01*
X151094479Y-123210500D01*
X151094481Y-123210500D01*
X151192711Y-123194941D01*
X151262000Y-123203895D01*
X151299787Y-123229733D01*
X153235325Y-125165272D01*
X153235328Y-125165275D01*
X153235331Y-125165277D01*
X153317614Y-125220256D01*
X153317615Y-125220257D01*
X153317614Y-125220257D01*
X153341871Y-125236464D01*
X153341872Y-125236464D01*
X153341873Y-125236465D01*
X153460256Y-125285501D01*
X153460258Y-125285501D01*
X153466090Y-125287271D01*
X153465311Y-125289837D01*
X153516948Y-125316850D01*
X153531160Y-125333194D01*
X153596395Y-125422980D01*
X153600328Y-125428393D01*
X153731607Y-125559672D01*
X153881807Y-125668799D01*
X154047229Y-125753085D01*
X154223800Y-125810457D01*
X154223802Y-125810457D01*
X154228433Y-125811962D01*
X154227820Y-125813848D01*
X154281149Y-125844449D01*
X154313329Y-125906467D01*
X154306873Y-125976037D01*
X154263828Y-126031073D01*
X154228175Y-126047370D01*
X154228551Y-126048525D01*
X154047416Y-126107379D01*
X153882065Y-126191631D01*
X153860704Y-126207150D01*
X153860704Y-126207151D01*
X154431828Y-126778274D01*
X154335956Y-126803963D01*
X154239044Y-126859916D01*
X154159916Y-126939044D01*
X154103963Y-127035956D01*
X154078274Y-127131827D01*
X153507151Y-126560704D01*
X153507150Y-126560704D01*
X153491631Y-126582065D01*
X153407379Y-126747416D01*
X153350031Y-126923916D01*
X153321000Y-127107211D01*
X153321000Y-127292788D01*
X153350031Y-127476083D01*
X153407380Y-127652586D01*
X153415849Y-127669206D01*
X153428745Y-127737875D01*
X153402468Y-127802616D01*
X153345361Y-127842872D01*
X153305364Y-127849500D01*
X152730807Y-127849500D01*
X152663768Y-127829815D01*
X152643126Y-127813181D01*
X152219733Y-127389788D01*
X152186248Y-127328465D01*
X152184941Y-127282714D01*
X152200500Y-127184481D01*
X152200500Y-126995519D01*
X152200500Y-126995513D01*
X152170940Y-126808881D01*
X152120417Y-126653390D01*
X152112547Y-126629168D01*
X152112545Y-126629165D01*
X152112545Y-126629163D01*
X152067290Y-126540347D01*
X152026760Y-126460801D01*
X151915690Y-126307927D01*
X151782073Y-126174310D01*
X151629199Y-126063240D01*
X151600319Y-126048525D01*
X151460836Y-125977454D01*
X151281118Y-125919059D01*
X151094486Y-125889500D01*
X151094481Y-125889500D01*
X150905519Y-125889500D01*
X150905514Y-125889500D01*
X150718881Y-125919059D01*
X150539163Y-125977454D01*
X150370800Y-126063240D01*
X150310686Y-126106916D01*
X150217927Y-126174310D01*
X150217925Y-126174312D01*
X150217924Y-126174312D01*
X150084312Y-126307924D01*
X150084312Y-126307925D01*
X150084310Y-126307927D01*
X150041933Y-126366254D01*
X149973240Y-126460800D01*
X149887454Y-126629163D01*
X149829059Y-126808881D01*
X149799500Y-126995513D01*
X149799500Y-127184486D01*
X149829059Y-127371118D01*
X149887454Y-127550836D01*
X149947767Y-127669206D01*
X149973240Y-127719199D01*
X150084310Y-127872073D01*
X150217927Y-128005690D01*
X150370801Y-128116760D01*
X150450347Y-128157290D01*
X150539163Y-128202545D01*
X150539165Y-128202545D01*
X150539168Y-128202547D01*
X150635497Y-128233846D01*
X150718881Y-128260940D01*
X150905514Y-128290500D01*
X150905519Y-128290500D01*
X151094479Y-128290500D01*
X151094481Y-128290500D01*
X151192711Y-128274941D01*
X151262001Y-128283895D01*
X151299788Y-128309733D01*
X151867874Y-128877819D01*
X151901359Y-128939142D01*
X151896375Y-129008834D01*
X151854503Y-129064767D01*
X151789039Y-129089184D01*
X151780193Y-129089500D01*
X149760808Y-129089500D01*
X149693769Y-129069815D01*
X149673127Y-129053181D01*
X140741387Y-120121441D01*
X140707902Y-120060118D01*
X140712886Y-119990426D01*
X140754755Y-119934495D01*
X140857546Y-119857546D01*
X140943796Y-119742331D01*
X140994091Y-119607483D01*
X141000500Y-119547873D01*
X141000499Y-118381902D01*
X142999500Y-118381902D01*
X142999500Y-118618097D01*
X143036446Y-118851368D01*
X143109433Y-119075996D01*
X143216657Y-119286433D01*
X143355483Y-119477510D01*
X143522490Y-119644517D01*
X143713567Y-119783343D01*
X143812991Y-119834002D01*
X143924003Y-119890566D01*
X143924005Y-119890566D01*
X143924008Y-119890568D01*
X144044412Y-119929689D01*
X144148631Y-119963553D01*
X144381903Y-120000500D01*
X144381908Y-120000500D01*
X144618097Y-120000500D01*
X144851368Y-119963553D01*
X145075992Y-119890568D01*
X145286433Y-119783343D01*
X145477510Y-119644517D01*
X145644517Y-119477510D01*
X145783343Y-119286433D01*
X145890568Y-119075992D01*
X145963553Y-118851368D01*
X145965354Y-118840000D01*
X146000500Y-118618097D01*
X146000500Y-118381902D01*
X145963553Y-118148631D01*
X145926560Y-118034780D01*
X145890568Y-117924008D01*
X145890566Y-117924005D01*
X145890566Y-117924003D01*
X145783342Y-117713566D01*
X145644517Y-117522490D01*
X145477510Y-117355483D01*
X145286433Y-117216657D01*
X145252209Y-117199219D01*
X145075996Y-117109433D01*
X144851368Y-117036446D01*
X144618097Y-116999500D01*
X144618092Y-116999500D01*
X144381908Y-116999500D01*
X144381903Y-116999500D01*
X144148631Y-117036446D01*
X143924003Y-117109433D01*
X143713566Y-117216657D01*
X143657119Y-117257669D01*
X143522490Y-117355483D01*
X143522488Y-117355485D01*
X143522487Y-117355485D01*
X143355485Y-117522487D01*
X143355485Y-117522488D01*
X143355483Y-117522490D01*
X143295862Y-117604550D01*
X143216657Y-117713566D01*
X143109433Y-117924003D01*
X143036446Y-118148631D01*
X142999500Y-118381902D01*
X141000499Y-118381902D01*
X141000499Y-117452128D01*
X140994091Y-117392517D01*
X140980278Y-117355483D01*
X140943797Y-117257671D01*
X140943793Y-117257664D01*
X140857547Y-117142455D01*
X140857544Y-117142452D01*
X140742335Y-117056206D01*
X140742328Y-117056202D01*
X140607482Y-117005908D01*
X140607483Y-117005908D01*
X140547883Y-116999501D01*
X140547881Y-116999500D01*
X140547873Y-116999500D01*
X140547864Y-116999500D01*
X138452129Y-116999500D01*
X138452123Y-116999501D01*
X138392516Y-117005908D01*
X138257671Y-117056202D01*
X138257664Y-117056206D01*
X138142455Y-117142452D01*
X138142452Y-117142455D01*
X138056206Y-117257664D01*
X138056202Y-117257671D01*
X138005908Y-117392517D01*
X137999501Y-117452116D01*
X137999501Y-117452123D01*
X137999500Y-117452135D01*
X137999500Y-119547870D01*
X137999501Y-119547876D01*
X138005908Y-119607483D01*
X138056202Y-119742328D01*
X138056206Y-119742335D01*
X138142452Y-119857544D01*
X138142455Y-119857547D01*
X138257664Y-119943793D01*
X138257671Y-119943797D01*
X138302618Y-119960561D01*
X138392517Y-119994091D01*
X138452127Y-120000500D01*
X138796099Y-120000499D01*
X138863138Y-120020183D01*
X138908893Y-120072987D01*
X138910659Y-120077045D01*
X138923532Y-120108122D01*
X138923534Y-120108125D01*
X138923535Y-120108127D01*
X138994723Y-120214669D01*
X138994726Y-120214673D01*
X149025328Y-130245275D01*
X149091255Y-130289326D01*
X149107614Y-130300256D01*
X149107615Y-130300257D01*
X149107614Y-130300257D01*
X149131871Y-130316464D01*
X149131872Y-130316464D01*
X149131873Y-130316465D01*
X149250256Y-130365501D01*
X149250260Y-130365501D01*
X149250261Y-130365502D01*
X149375928Y-130390500D01*
X149375931Y-130390500D01*
X153451492Y-130390500D01*
X153518531Y-130410185D01*
X153551809Y-130441614D01*
X153590127Y-130494353D01*
X153600328Y-130508393D01*
X153731607Y-130639672D01*
X153881807Y-130748799D01*
X154047229Y-130833085D01*
X154223800Y-130890457D01*
X154292564Y-130901348D01*
X154407166Y-130919500D01*
X154407171Y-130919500D01*
X154592834Y-130919500D01*
X154694701Y-130903365D01*
X154776200Y-130890457D01*
X154952771Y-130833085D01*
X155118193Y-130748799D01*
X155268393Y-130639672D01*
X155399672Y-130508393D01*
X155508799Y-130358193D01*
X155593085Y-130192771D01*
X155650457Y-130016200D01*
X155666249Y-129916493D01*
X155679500Y-129832834D01*
X155679500Y-129647165D01*
X155663658Y-129547150D01*
X155650457Y-129463800D01*
X155601398Y-129312816D01*
X155599404Y-129242977D01*
X155635484Y-129183144D01*
X155698185Y-129152316D01*
X155719330Y-129150500D01*
X168436500Y-129150500D01*
X168503539Y-129170185D01*
X168549294Y-129222989D01*
X168560500Y-129274500D01*
X168560500Y-130466870D01*
X168560501Y-130466876D01*
X168566908Y-130526483D01*
X168617202Y-130661328D01*
X168617206Y-130661335D01*
X168703452Y-130776544D01*
X168703455Y-130776547D01*
X168818664Y-130862793D01*
X168818671Y-130862797D01*
X168953517Y-130913091D01*
X168953516Y-130913091D01*
X168960444Y-130913835D01*
X169013127Y-130919500D01*
X169948191Y-130919499D01*
X170015230Y-130939183D01*
X170035872Y-130955818D01*
X170717873Y-131637819D01*
X170751358Y-131699142D01*
X170746374Y-131768834D01*
X170704502Y-131824767D01*
X170639038Y-131849184D01*
X170630192Y-131849500D01*
X107820807Y-131849500D01*
X107753768Y-131829815D01*
X107733126Y-131813181D01*
X105779928Y-129859983D01*
X111250000Y-129859983D01*
X111260494Y-129962693D01*
X111315641Y-130129117D01*
X111315646Y-130129128D01*
X111407681Y-130278338D01*
X111407684Y-130278342D01*
X111531657Y-130402315D01*
X111531661Y-130402318D01*
X111680871Y-130494353D01*
X111680882Y-130494358D01*
X111847306Y-130549505D01*
X111950016Y-130559999D01*
X111950029Y-130560000D01*
X114750000Y-130560000D01*
X115250000Y-130560000D01*
X118049971Y-130560000D01*
X118049983Y-130559999D01*
X118152693Y-130549505D01*
X118319117Y-130494358D01*
X118319128Y-130494353D01*
X118468338Y-130402318D01*
X118468342Y-130402315D01*
X118592315Y-130278342D01*
X118592318Y-130278338D01*
X118684353Y-130129128D01*
X118684358Y-130129117D01*
X118739505Y-129962693D01*
X118749999Y-129859983D01*
X118750000Y-129859970D01*
X118750000Y-126560000D01*
X115250000Y-126560000D01*
X115250000Y-130560000D01*
X114750000Y-130560000D01*
X114750000Y-126560000D01*
X111250000Y-126560000D01*
X111250000Y-129859983D01*
X105779928Y-129859983D01*
X102516265Y-126596319D01*
X101686819Y-125766873D01*
X101653334Y-125705550D01*
X101650500Y-125679192D01*
X101650500Y-122760016D01*
X111250000Y-122760016D01*
X111250000Y-126060000D01*
X114750000Y-126060000D01*
X115250000Y-126060000D01*
X118750000Y-126060000D01*
X118750000Y-122760029D01*
X118749999Y-122760016D01*
X118739505Y-122657306D01*
X118684358Y-122490882D01*
X118684353Y-122490871D01*
X118592318Y-122341661D01*
X118592315Y-122341657D01*
X118468342Y-122217684D01*
X118468338Y-122217681D01*
X118319128Y-122125646D01*
X118319117Y-122125641D01*
X118152693Y-122070494D01*
X118049983Y-122060000D01*
X115250000Y-122060000D01*
X115250000Y-126060000D01*
X114750000Y-126060000D01*
X114750000Y-122060000D01*
X111950016Y-122060000D01*
X111847306Y-122070494D01*
X111680882Y-122125641D01*
X111680871Y-122125646D01*
X111531661Y-122217681D01*
X111531657Y-122217684D01*
X111407684Y-122341657D01*
X111407681Y-122341661D01*
X111315646Y-122490871D01*
X111315641Y-122490882D01*
X111260494Y-122657306D01*
X111250000Y-122760016D01*
X101650500Y-122760016D01*
X101650500Y-114110525D01*
X121024500Y-114110525D01*
X121024500Y-114369474D01*
X121024501Y-114369491D01*
X121058299Y-114626217D01*
X121058300Y-114626222D01*
X121058301Y-114626228D01*
X121058302Y-114626230D01*
X121125324Y-114876364D01*
X121224423Y-115115609D01*
X121224427Y-115115619D01*
X121353906Y-115339883D01*
X121511551Y-115545331D01*
X121511557Y-115545338D01*
X121694661Y-115728442D01*
X121694668Y-115728448D01*
X121900116Y-115886093D01*
X122124380Y-116015572D01*
X122124381Y-116015572D01*
X122124384Y-116015574D01*
X122363634Y-116114675D01*
X122613772Y-116181699D01*
X122870519Y-116215500D01*
X122870526Y-116215500D01*
X123129474Y-116215500D01*
X123129481Y-116215500D01*
X123386228Y-116181699D01*
X123636366Y-116114675D01*
X123875616Y-116015574D01*
X124099884Y-115886093D01*
X124305333Y-115728447D01*
X124488447Y-115545333D01*
X124646093Y-115339884D01*
X124775574Y-115115616D01*
X124874675Y-114876366D01*
X124941699Y-114626228D01*
X124975500Y-114369481D01*
X124975500Y-114110519D01*
X124941699Y-113853772D01*
X124874675Y-113603634D01*
X124775574Y-113364384D01*
X124763338Y-113343191D01*
X124646093Y-113140116D01*
X124488448Y-112934668D01*
X124488442Y-112934661D01*
X124305338Y-112751557D01*
X124305331Y-112751551D01*
X124099883Y-112593906D01*
X123875619Y-112464427D01*
X123875609Y-112464423D01*
X123636364Y-112365324D01*
X123511297Y-112331813D01*
X123386228Y-112298301D01*
X123386222Y-112298300D01*
X123386217Y-112298299D01*
X123129491Y-112264501D01*
X123129486Y-112264500D01*
X123129481Y-112264500D01*
X122870519Y-112264500D01*
X122870513Y-112264500D01*
X122870508Y-112264501D01*
X122613782Y-112298299D01*
X122613775Y-112298300D01*
X122613772Y-112298301D01*
X122560908Y-112312465D01*
X122363635Y-112365324D01*
X122124390Y-112464423D01*
X122124380Y-112464427D01*
X121900116Y-112593906D01*
X121694668Y-112751551D01*
X121694661Y-112751557D01*
X121511557Y-112934661D01*
X121511551Y-112934668D01*
X121353906Y-113140116D01*
X121224427Y-113364380D01*
X121224423Y-113364390D01*
X121125324Y-113603635D01*
X121058302Y-113853769D01*
X121058299Y-113853782D01*
X121024501Y-114110508D01*
X121024500Y-114110525D01*
X101650500Y-114110525D01*
X101650500Y-58870525D01*
X105024500Y-58870525D01*
X105024500Y-59129474D01*
X105024501Y-59129491D01*
X105058299Y-59386217D01*
X105058300Y-59386222D01*
X105058301Y-59386228D01*
X105087372Y-59494722D01*
X105125324Y-59636364D01*
X105224423Y-59875609D01*
X105224427Y-59875619D01*
X105353906Y-60099883D01*
X105511551Y-60305331D01*
X105511557Y-60305338D01*
X105694661Y-60488442D01*
X105694668Y-60488448D01*
X105900116Y-60646093D01*
X106124380Y-60775572D01*
X106124381Y-60775572D01*
X106124384Y-60775574D01*
X106363634Y-60874675D01*
X106613772Y-60941699D01*
X106870519Y-60975500D01*
X106870526Y-60975500D01*
X107129474Y-60975500D01*
X107129481Y-60975500D01*
X107386228Y-60941699D01*
X107636366Y-60874675D01*
X107875616Y-60775574D01*
X108099884Y-60646093D01*
X108305333Y-60488447D01*
X108488447Y-60305333D01*
X108646093Y-60099884D01*
X108775574Y-59875616D01*
X108874675Y-59636366D01*
X108941699Y-59386228D01*
X108975500Y-59129481D01*
X108975500Y-58870519D01*
X108941699Y-58613772D01*
X108874675Y-58363634D01*
X108775574Y-58124384D01*
X108646093Y-57900116D01*
X108488447Y-57694667D01*
X108488442Y-57694661D01*
X108305338Y-57511557D01*
X108305331Y-57511551D01*
X108099883Y-57353906D01*
X107875619Y-57224427D01*
X107875609Y-57224423D01*
X107636364Y-57125324D01*
X107511297Y-57091813D01*
X107386228Y-57058301D01*
X107386222Y-57058300D01*
X107386217Y-57058299D01*
X107129491Y-57024501D01*
X107129486Y-57024500D01*
X107129481Y-57024500D01*
X106870519Y-57024500D01*
X106870513Y-57024500D01*
X106870508Y-57024501D01*
X106613782Y-57058299D01*
X106613775Y-57058300D01*
X106613772Y-57058301D01*
X106560908Y-57072465D01*
X106363635Y-57125324D01*
X106124390Y-57224423D01*
X106124380Y-57224427D01*
X105900116Y-57353906D01*
X105694668Y-57511551D01*
X105694661Y-57511557D01*
X105511557Y-57694661D01*
X105511551Y-57694668D01*
X105353906Y-57900116D01*
X105224427Y-58124380D01*
X105224423Y-58124390D01*
X105125324Y-58363635D01*
X105081548Y-58527011D01*
X105059312Y-58610001D01*
X105058302Y-58613769D01*
X105058299Y-58613782D01*
X105024501Y-58870508D01*
X105024500Y-58870525D01*
X101650500Y-58870525D01*
X101650500Y-43379986D01*
X111249500Y-43379986D01*
X111249500Y-50480013D01*
X111260000Y-50582793D01*
X111295438Y-50689738D01*
X111315186Y-50749332D01*
X111407289Y-50898654D01*
X111531346Y-51022711D01*
X111680668Y-51114814D01*
X111847205Y-51169999D01*
X111949994Y-51180500D01*
X114287816Y-51180500D01*
X114354855Y-51200185D01*
X114400610Y-51252989D01*
X114402377Y-51257048D01*
X114423532Y-51308123D01*
X114494726Y-51414673D01*
X138085328Y-75005275D01*
X138163465Y-75057484D01*
X138163464Y-75057484D01*
X138184794Y-75071735D01*
X138191873Y-75076465D01*
X138310256Y-75125501D01*
X138310260Y-75125501D01*
X138310261Y-75125502D01*
X138435928Y-75150500D01*
X138435931Y-75150500D01*
X138564069Y-75150500D01*
X140662820Y-75150500D01*
X140729859Y-75170185D01*
X140762085Y-75200187D01*
X140842454Y-75307546D01*
X140888643Y-75342123D01*
X140957664Y-75393793D01*
X140957671Y-75393797D01*
X141092517Y-75444091D01*
X141092516Y-75444091D01*
X141099444Y-75444835D01*
X141152127Y-75450500D01*
X141905953Y-75450499D01*
X141972992Y-75470183D01*
X142018747Y-75522987D01*
X142028691Y-75592146D01*
X141999666Y-75655702D01*
X141949287Y-75690681D01*
X141907670Y-75706203D01*
X141907664Y-75706206D01*
X141792456Y-75792452D01*
X141792455Y-75792453D01*
X141792454Y-75792454D01*
X141712087Y-75899811D01*
X141656153Y-75941682D01*
X141612820Y-75949500D01*
X138310929Y-75949500D01*
X138185261Y-75974497D01*
X138185255Y-75974499D01*
X138066870Y-76023535D01*
X137960331Y-76094722D01*
X137960324Y-76094728D01*
X137291871Y-76763181D01*
X137230548Y-76796666D01*
X137204190Y-76799500D01*
X134985996Y-76799500D01*
X134985979Y-76799501D01*
X134885256Y-76809790D01*
X134885253Y-76809791D01*
X134722047Y-76863873D01*
X134722044Y-76863874D01*
X134575714Y-76954132D01*
X134575710Y-76954135D01*
X134454135Y-77075710D01*
X134454132Y-77075714D01*
X134363874Y-77222044D01*
X134363873Y-77222046D01*
X134309791Y-77385256D01*
X134309790Y-77385257D01*
X134299500Y-77485981D01*
X134299500Y-79464003D01*
X134299501Y-79464020D01*
X134309790Y-79564743D01*
X134309791Y-79564746D01*
X134363873Y-79727952D01*
X134363874Y-79727955D01*
X134454132Y-79874285D01*
X134454135Y-79874289D01*
X134575710Y-79995864D01*
X134575714Y-79995867D01*
X134722044Y-80086125D01*
X134722046Y-80086126D01*
X134722048Y-80086127D01*
X134885256Y-80140209D01*
X134985989Y-80150500D01*
X138014010Y-80150499D01*
X138114744Y-80140209D01*
X138277952Y-80086127D01*
X138424289Y-79995865D01*
X138545865Y-79874289D01*
X138636127Y-79727952D01*
X138690209Y-79564744D01*
X138700500Y-79464011D01*
X138700499Y-77485990D01*
X138690397Y-77387100D01*
X138703167Y-77318409D01*
X138751047Y-77267525D01*
X138813755Y-77250500D01*
X141612820Y-77250500D01*
X141679859Y-77270185D01*
X141712085Y-77300187D01*
X141792454Y-77407546D01*
X141838643Y-77442123D01*
X141907664Y-77493793D01*
X141907671Y-77493797D01*
X142042516Y-77544091D01*
X142068419Y-77546875D01*
X142102127Y-77550500D01*
X142165397Y-77550499D01*
X142232436Y-77570183D01*
X142234283Y-77571393D01*
X142241873Y-77576465D01*
X142360256Y-77625501D01*
X142360260Y-77625501D01*
X142360261Y-77625502D01*
X142485928Y-77650500D01*
X142485931Y-77650500D01*
X142614071Y-77650500D01*
X142616223Y-77650288D01*
X142617341Y-77650500D01*
X142620161Y-77650500D01*
X142620161Y-77651034D01*
X142684870Y-77663304D01*
X142716063Y-77686009D01*
X143322221Y-78292167D01*
X143355706Y-78353490D01*
X143350722Y-78423182D01*
X143308850Y-78479115D01*
X143269136Y-78498924D01*
X143120854Y-78542004D01*
X143120853Y-78542005D01*
X142979387Y-78625667D01*
X142979379Y-78625673D01*
X142863173Y-78741879D01*
X142863167Y-78741887D01*
X142779505Y-78883353D01*
X142779504Y-78883356D01*
X142733652Y-79041176D01*
X142733651Y-79041182D01*
X142730750Y-79078048D01*
X142730750Y-80234451D01*
X142733651Y-80271317D01*
X142733652Y-80271323D01*
X142779504Y-80429143D01*
X142779505Y-80429146D01*
X142863167Y-80570612D01*
X142863173Y-80570620D01*
X142979379Y-80686826D01*
X142979390Y-80686835D01*
X142979705Y-80687021D01*
X142979900Y-80687230D01*
X142985548Y-80691611D01*
X142984841Y-80692522D01*
X143027386Y-80738093D01*
X143039887Y-80806835D01*
X143013238Y-80871423D01*
X142985328Y-80895606D01*
X142985548Y-80895889D01*
X142980342Y-80899926D01*
X142979705Y-80900479D01*
X142979390Y-80900664D01*
X142979379Y-80900673D01*
X142863173Y-81016879D01*
X142863167Y-81016887D01*
X142779505Y-81158353D01*
X142779504Y-81158356D01*
X142733652Y-81316176D01*
X142733651Y-81316182D01*
X142730750Y-81353048D01*
X142730750Y-81760442D01*
X142711065Y-81827481D01*
X142694431Y-81848123D01*
X140704373Y-83838181D01*
X140643050Y-83871666D01*
X140616692Y-83874500D01*
X138824499Y-83874500D01*
X138757460Y-83854815D01*
X138711705Y-83802011D01*
X138700499Y-83750500D01*
X138700499Y-83535996D01*
X138700498Y-83535979D01*
X138690209Y-83435256D01*
X138690208Y-83435253D01*
X138636127Y-83272048D01*
X138548861Y-83130569D01*
X138545867Y-83125714D01*
X138545864Y-83125710D01*
X138424289Y-83004135D01*
X138424285Y-83004132D01*
X138277955Y-82913874D01*
X138277953Y-82913873D01*
X138196348Y-82886832D01*
X138114744Y-82859791D01*
X138114742Y-82859790D01*
X138014012Y-82849500D01*
X134985996Y-82849500D01*
X134985979Y-82849501D01*
X134885256Y-82859790D01*
X134885253Y-82859791D01*
X134722047Y-82913873D01*
X134722044Y-82913874D01*
X134575714Y-83004132D01*
X134575710Y-83004135D01*
X134454135Y-83125710D01*
X134454132Y-83125714D01*
X134363874Y-83272044D01*
X134363873Y-83272046D01*
X134309791Y-83435256D01*
X134309790Y-83435257D01*
X134299500Y-83535981D01*
X134299500Y-85514003D01*
X134299501Y-85514020D01*
X134309790Y-85614743D01*
X134309791Y-85614746D01*
X134363873Y-85777952D01*
X134363874Y-85777955D01*
X134454132Y-85924285D01*
X134454135Y-85924289D01*
X134575710Y-86045864D01*
X134575714Y-86045867D01*
X134722044Y-86136125D01*
X134722046Y-86136126D01*
X134722048Y-86136127D01*
X134885256Y-86190209D01*
X134985989Y-86200500D01*
X138014010Y-86200499D01*
X138114744Y-86190209D01*
X138277952Y-86136127D01*
X138424289Y-86045865D01*
X138545865Y-85924289D01*
X138636127Y-85777952D01*
X138690209Y-85614744D01*
X138700500Y-85514011D01*
X138700500Y-85299500D01*
X138720185Y-85232461D01*
X138772989Y-85186706D01*
X138824500Y-85175500D01*
X140249228Y-85175500D01*
X140316267Y-85195185D01*
X140358584Y-85241042D01*
X140361033Y-85245624D01*
X140361034Y-85245626D01*
X140361035Y-85245627D01*
X140400230Y-85304288D01*
X140432226Y-85352173D01*
X140432227Y-85352174D01*
X142063181Y-86983127D01*
X142096666Y-87044450D01*
X142099500Y-87070808D01*
X142099500Y-88550001D01*
X142099501Y-88550018D01*
X142110000Y-88652796D01*
X142110001Y-88652799D01*
X142146948Y-88764296D01*
X142165186Y-88819334D01*
X142257288Y-88968656D01*
X142381344Y-89092712D01*
X142530666Y-89184814D01*
X142697203Y-89239999D01*
X142799991Y-89250500D01*
X144200008Y-89250499D01*
X144302797Y-89239999D01*
X144469334Y-89184814D01*
X144618656Y-89092712D01*
X144742712Y-88968656D01*
X144834814Y-88819334D01*
X144889999Y-88652797D01*
X144900500Y-88550009D01*
X144900499Y-86449992D01*
X144889999Y-86347203D01*
X144834814Y-86180666D01*
X144742712Y-86031344D01*
X144618656Y-85907288D01*
X144469334Y-85815186D01*
X144302797Y-85760001D01*
X144302795Y-85760000D01*
X144200010Y-85749500D01*
X142799998Y-85749500D01*
X142799978Y-85749502D01*
X142740162Y-85755612D01*
X142671470Y-85742842D01*
X142639881Y-85719935D01*
X141738876Y-84818930D01*
X141705391Y-84757607D01*
X141710375Y-84687915D01*
X141738872Y-84643573D01*
X143251876Y-83130568D01*
X143313199Y-83097084D01*
X143339557Y-83094250D01*
X143746936Y-83094250D01*
X143746944Y-83094250D01*
X143783819Y-83091348D01*
X143783821Y-83091347D01*
X143783823Y-83091347D01*
X143825441Y-83079255D01*
X143941648Y-83045494D01*
X143942431Y-83045031D01*
X143943619Y-83044329D01*
X143945362Y-83043886D01*
X143948807Y-83042396D01*
X143949047Y-83042951D01*
X144011343Y-83027145D01*
X144063647Y-83042503D01*
X144063894Y-83041934D01*
X144068505Y-83043929D01*
X144069862Y-83044328D01*
X144071051Y-83045031D01*
X144071056Y-83045033D01*
X144228755Y-83090849D01*
X144228761Y-83090850D01*
X144231248Y-83091045D01*
X144231250Y-83091045D01*
X144231250Y-82825564D01*
X144248517Y-82762444D01*
X144282994Y-82704148D01*
X144328848Y-82546319D01*
X144331750Y-82509444D01*
X144331750Y-82055250D01*
X144334300Y-82046564D01*
X144333012Y-82037603D01*
X144343990Y-82013562D01*
X144351435Y-81988211D01*
X144358275Y-81982283D01*
X144362037Y-81974047D01*
X144384271Y-81959757D01*
X144404239Y-81942456D01*
X144414753Y-81940168D01*
X144420815Y-81936273D01*
X144455750Y-81931250D01*
X144506750Y-81931250D01*
X144573789Y-81950935D01*
X144619544Y-82003739D01*
X144630750Y-82055250D01*
X144630750Y-82509451D01*
X144633651Y-82546317D01*
X144633652Y-82546323D01*
X144679504Y-82704143D01*
X144679505Y-82704146D01*
X144679506Y-82704148D01*
X144713982Y-82762444D01*
X144731250Y-82825564D01*
X144731250Y-83091045D01*
X144731251Y-83091045D01*
X144733736Y-83090850D01*
X144891447Y-83045031D01*
X144892632Y-83044331D01*
X144893686Y-83044063D01*
X144898607Y-83041934D01*
X144898950Y-83042727D01*
X144960355Y-83027145D01*
X145013539Y-83042758D01*
X145013696Y-83042397D01*
X145016621Y-83043663D01*
X145018874Y-83044324D01*
X145020852Y-83045494D01*
X145020854Y-83045494D01*
X145020855Y-83045495D01*
X145178676Y-83091347D01*
X145178679Y-83091347D01*
X145178681Y-83091348D01*
X145215556Y-83094250D01*
X145215564Y-83094250D01*
X145622942Y-83094250D01*
X145689981Y-83113935D01*
X145710623Y-83130569D01*
X146313181Y-83733127D01*
X146346666Y-83794450D01*
X146349500Y-83820808D01*
X146349500Y-86064069D01*
X146366528Y-86149670D01*
X146374499Y-86189744D01*
X146378954Y-86200499D01*
X146415519Y-86288776D01*
X146423535Y-86308127D01*
X146466736Y-86372783D01*
X146494726Y-86414673D01*
X147585325Y-87505272D01*
X147585332Y-87505278D01*
X147691863Y-87576459D01*
X147691867Y-87576461D01*
X147691874Y-87576466D01*
X147747484Y-87599500D01*
X147810256Y-87625501D01*
X147847587Y-87632926D01*
X147855156Y-87635477D01*
X147877496Y-87651110D01*
X147901666Y-87663753D01*
X147905709Y-87670853D01*
X147912401Y-87675536D01*
X147922743Y-87700767D01*
X147936240Y-87724469D01*
X147935802Y-87732626D01*
X147938901Y-87740185D01*
X147933960Y-87767004D01*
X147932501Y-87794238D01*
X147927022Y-87804666D01*
X147926243Y-87808898D01*
X147922960Y-87812397D01*
X147915883Y-87825870D01*
X147883241Y-87870798D01*
X147797454Y-88039163D01*
X147739059Y-88218881D01*
X147709500Y-88405513D01*
X147709500Y-88594486D01*
X147725057Y-88692708D01*
X147716103Y-88762001D01*
X147690265Y-88799787D01*
X145676873Y-90813181D01*
X145615550Y-90846666D01*
X145589192Y-90849500D01*
X145024499Y-90849500D01*
X144957460Y-90829815D01*
X144911705Y-90777011D01*
X144900499Y-90725500D01*
X144900499Y-90449998D01*
X144900498Y-90449981D01*
X144889999Y-90347203D01*
X144889998Y-90347200D01*
X144834814Y-90180666D01*
X144742712Y-90031344D01*
X144618656Y-89907288D01*
X144518394Y-89845446D01*
X144469336Y-89815187D01*
X144469331Y-89815185D01*
X144467862Y-89814698D01*
X144302797Y-89760001D01*
X144302795Y-89760000D01*
X144200010Y-89749500D01*
X142799998Y-89749500D01*
X142799981Y-89749501D01*
X142697203Y-89760000D01*
X142697200Y-89760001D01*
X142530668Y-89815185D01*
X142530659Y-89815190D01*
X142431324Y-89876459D01*
X142363931Y-89894899D01*
X142297268Y-89873976D01*
X142278547Y-89858601D01*
X140414674Y-87994727D01*
X140414673Y-87994726D01*
X140308131Y-87923538D01*
X140308127Y-87923535D01*
X140308122Y-87923533D01*
X140189744Y-87874499D01*
X140171153Y-87870801D01*
X140171133Y-87870797D01*
X140064071Y-87849500D01*
X140064069Y-87849500D01*
X139698071Y-87849500D01*
X139631032Y-87829815D01*
X139597754Y-87798386D01*
X139491966Y-87652781D01*
X139347219Y-87508034D01*
X139347213Y-87508028D01*
X139181613Y-87387715D01*
X139181612Y-87387714D01*
X139181610Y-87387713D01*
X139124653Y-87358691D01*
X138999223Y-87294781D01*
X138804534Y-87231522D01*
X138629995Y-87203878D01*
X138602352Y-87199500D01*
X138397648Y-87199500D01*
X138373329Y-87203351D01*
X138195465Y-87231522D01*
X138000776Y-87294781D01*
X137818386Y-87387715D01*
X137652786Y-87508028D01*
X137508034Y-87652780D01*
X137483304Y-87686819D01*
X137402246Y-87798386D01*
X137346918Y-87841051D01*
X137301929Y-87849500D01*
X134435929Y-87849500D01*
X134328867Y-87870797D01*
X134328847Y-87870801D01*
X134314870Y-87873581D01*
X134310255Y-87874499D01*
X134191875Y-87923533D01*
X134191866Y-87923538D01*
X134085331Y-87994723D01*
X134085327Y-87994726D01*
X133360119Y-88719934D01*
X133298796Y-88753419D01*
X133259837Y-88755611D01*
X133200012Y-88749500D01*
X131799998Y-88749500D01*
X131799981Y-88749501D01*
X131697203Y-88760000D01*
X131697200Y-88760001D01*
X131530668Y-88815185D01*
X131530663Y-88815187D01*
X131381342Y-88907289D01*
X131257289Y-89031342D01*
X131165187Y-89180663D01*
X131165185Y-89180668D01*
X131145525Y-89239998D01*
X131110001Y-89347203D01*
X131110001Y-89347204D01*
X131110000Y-89347204D01*
X131099500Y-89449983D01*
X131099500Y-91550001D01*
X131099501Y-91550018D01*
X131110000Y-91652796D01*
X131110001Y-91652799D01*
X131165185Y-91819331D01*
X131165186Y-91819334D01*
X131257288Y-91968656D01*
X131381344Y-92092712D01*
X131530666Y-92184814D01*
X131697203Y-92239999D01*
X131799991Y-92250500D01*
X133200008Y-92250499D01*
X133302797Y-92239999D01*
X133469334Y-92184814D01*
X133618656Y-92092712D01*
X133742712Y-91968656D01*
X133834814Y-91819334D01*
X133889999Y-91652797D01*
X133900500Y-91550009D01*
X133900499Y-90070806D01*
X133920184Y-90003768D01*
X133936813Y-89983131D01*
X134733126Y-89186819D01*
X134794449Y-89153334D01*
X134820807Y-89150500D01*
X137301929Y-89150500D01*
X137368968Y-89170185D01*
X137402245Y-89201613D01*
X137508022Y-89347203D01*
X137508034Y-89347219D01*
X137652786Y-89491971D01*
X137807749Y-89604556D01*
X137818390Y-89612287D01*
X137933503Y-89670940D01*
X138000776Y-89705218D01*
X138000778Y-89705218D01*
X138000781Y-89705220D01*
X138105137Y-89739127D01*
X138195465Y-89768477D01*
X138296557Y-89784488D01*
X138397648Y-89800500D01*
X138397649Y-89800500D01*
X138602351Y-89800500D01*
X138602352Y-89800500D01*
X138804534Y-89768477D01*
X138999219Y-89705220D01*
X139181610Y-89612287D01*
X139299330Y-89526759D01*
X139347213Y-89491971D01*
X139347215Y-89491968D01*
X139347219Y-89491966D01*
X139491966Y-89347219D01*
X139589809Y-89212548D01*
X139645136Y-89169883D01*
X139714750Y-89163903D01*
X139776545Y-89196509D01*
X139777807Y-89197753D01*
X142063181Y-91483127D01*
X142096666Y-91544450D01*
X142099500Y-91570808D01*
X142099500Y-92550001D01*
X142099501Y-92550019D01*
X142110000Y-92652796D01*
X142110001Y-92652799D01*
X142145525Y-92760001D01*
X142165186Y-92819334D01*
X142257288Y-92968656D01*
X142381344Y-93092712D01*
X142530666Y-93184814D01*
X142697203Y-93239999D01*
X142799991Y-93250500D01*
X144200008Y-93250499D01*
X144302797Y-93239999D01*
X144469334Y-93184814D01*
X144618656Y-93092712D01*
X144742712Y-92968656D01*
X144834814Y-92819334D01*
X144889999Y-92652797D01*
X144900500Y-92550009D01*
X144900500Y-92274500D01*
X144920185Y-92207461D01*
X144972989Y-92161706D01*
X145024500Y-92150500D01*
X145974071Y-92150500D01*
X146058615Y-92133682D01*
X146099744Y-92125501D01*
X146218127Y-92076465D01*
X146324669Y-92005277D01*
X148610213Y-89719731D01*
X148671534Y-89686248D01*
X148717285Y-89684941D01*
X148815519Y-89700500D01*
X148815521Y-89700500D01*
X149004486Y-89700500D01*
X149191118Y-89670940D01*
X149370832Y-89612547D01*
X149539199Y-89526760D01*
X149692073Y-89415690D01*
X149825690Y-89282073D01*
X149936760Y-89129199D01*
X150022547Y-88960832D01*
X150080940Y-88781118D01*
X150087156Y-88741872D01*
X150110500Y-88594486D01*
X150110500Y-88405513D01*
X150080940Y-88218881D01*
X150022545Y-88039163D01*
X149991423Y-87978083D01*
X149936760Y-87870801D01*
X149934976Y-87868345D01*
X149919748Y-87847385D01*
X149896268Y-87781579D01*
X149912094Y-87713525D01*
X149962199Y-87664830D01*
X150020066Y-87650500D01*
X152169192Y-87650500D01*
X152236231Y-87670185D01*
X152256873Y-87686819D01*
X152770265Y-88200211D01*
X152803750Y-88261534D01*
X152805057Y-88307290D01*
X152789500Y-88405513D01*
X152789500Y-88594486D01*
X152819059Y-88781118D01*
X152877454Y-88960836D01*
X152944648Y-89092710D01*
X152963240Y-89129199D01*
X153074310Y-89282073D01*
X153207927Y-89415690D01*
X153360801Y-89526760D01*
X153440347Y-89567290D01*
X153529163Y-89612545D01*
X153529165Y-89612545D01*
X153529168Y-89612547D01*
X153625497Y-89643846D01*
X153708881Y-89670940D01*
X153895514Y-89700500D01*
X153895519Y-89700500D01*
X154084486Y-89700500D01*
X154271118Y-89670940D01*
X154450832Y-89612547D01*
X154619199Y-89526760D01*
X154772073Y-89415690D01*
X154905690Y-89282073D01*
X155016760Y-89129199D01*
X155102547Y-88960832D01*
X155160940Y-88781118D01*
X155167156Y-88741872D01*
X155190500Y-88594486D01*
X155190500Y-88405513D01*
X155160940Y-88218881D01*
X155102545Y-88039163D01*
X155043628Y-87923533D01*
X155016760Y-87870801D01*
X154905690Y-87717927D01*
X154772073Y-87584310D01*
X154619199Y-87473240D01*
X154450836Y-87387454D01*
X154271118Y-87329059D01*
X154084486Y-87299500D01*
X154084481Y-87299500D01*
X153895519Y-87299500D01*
X153895514Y-87299500D01*
X153797290Y-87315057D01*
X153727996Y-87306102D01*
X153690211Y-87280265D01*
X152904674Y-86494727D01*
X152904673Y-86494726D01*
X152837723Y-86449992D01*
X152798127Y-86423535D01*
X152776732Y-86414673D01*
X152679744Y-86374499D01*
X152679740Y-86374498D01*
X152675428Y-86373640D01*
X152671115Y-86372782D01*
X152671112Y-86372781D01*
X152671112Y-86372782D01*
X152554071Y-86349500D01*
X152554069Y-86349500D01*
X149522168Y-86349500D01*
X149455129Y-86329815D01*
X149409374Y-86277011D01*
X149399430Y-86207853D01*
X149428455Y-86144297D01*
X149467277Y-86116302D01*
X149466491Y-86114759D01*
X149489929Y-86102816D01*
X149639199Y-86026760D01*
X149665182Y-86007882D01*
X153435669Y-86007882D01*
X153435670Y-86007883D01*
X153461059Y-86026329D01*
X153629362Y-86112085D01*
X153808997Y-86170451D01*
X153995553Y-86200000D01*
X154184447Y-86200000D01*
X154371002Y-86170451D01*
X154550637Y-86112085D01*
X154718937Y-86026331D01*
X154744328Y-86007883D01*
X154744328Y-86007882D01*
X154090001Y-85353554D01*
X154090000Y-85353554D01*
X153435669Y-86007882D01*
X149665182Y-86007882D01*
X149792073Y-85915690D01*
X149925690Y-85782073D01*
X150036760Y-85629199D01*
X150122547Y-85460832D01*
X150180940Y-85281118D01*
X150187287Y-85241042D01*
X150210500Y-85094486D01*
X150210500Y-84905552D01*
X152890000Y-84905552D01*
X152890000Y-85094447D01*
X152919548Y-85281002D01*
X152977914Y-85460637D01*
X153063666Y-85628933D01*
X153082116Y-85654328D01*
X153736446Y-85000000D01*
X153736446Y-84999999D01*
X153690369Y-84953922D01*
X153740000Y-84953922D01*
X153740000Y-85046078D01*
X153763852Y-85135095D01*
X153809930Y-85214905D01*
X153875095Y-85280070D01*
X153954905Y-85326148D01*
X154043922Y-85350000D01*
X154136078Y-85350000D01*
X154225095Y-85326148D01*
X154304905Y-85280070D01*
X154370070Y-85214905D01*
X154416148Y-85135095D01*
X154440000Y-85046078D01*
X154440000Y-84999999D01*
X154443554Y-84999999D01*
X154443554Y-85000000D01*
X155097882Y-85654328D01*
X155097883Y-85654328D01*
X155116331Y-85628937D01*
X155202085Y-85460637D01*
X155260451Y-85281002D01*
X155290000Y-85094447D01*
X155290000Y-84905552D01*
X155260451Y-84718997D01*
X155202085Y-84539362D01*
X155116329Y-84371059D01*
X155097883Y-84345670D01*
X155097882Y-84345669D01*
X154443554Y-84999999D01*
X154440000Y-84999999D01*
X154440000Y-84953922D01*
X154416148Y-84864905D01*
X154370070Y-84785095D01*
X154304905Y-84719930D01*
X154225095Y-84673852D01*
X154136078Y-84650000D01*
X154043922Y-84650000D01*
X153954905Y-84673852D01*
X153875095Y-84719930D01*
X153809930Y-84785095D01*
X153763852Y-84864905D01*
X153740000Y-84953922D01*
X153690369Y-84953922D01*
X153082116Y-84345669D01*
X153082116Y-84345670D01*
X153063669Y-84371060D01*
X152977914Y-84539362D01*
X152919548Y-84718997D01*
X152890000Y-84905552D01*
X150210500Y-84905552D01*
X150210500Y-84905513D01*
X150180940Y-84718881D01*
X150135798Y-84579951D01*
X150122547Y-84539168D01*
X150122545Y-84539165D01*
X150122545Y-84539163D01*
X150061072Y-84418516D01*
X150036760Y-84370801D01*
X149925690Y-84217927D01*
X149792073Y-84084310D01*
X149665179Y-83992116D01*
X153435669Y-83992116D01*
X154090000Y-84646446D01*
X154090001Y-84646446D01*
X154744328Y-83992116D01*
X154718933Y-83973666D01*
X154550637Y-83887914D01*
X154371002Y-83829548D01*
X154184447Y-83800000D01*
X153995553Y-83800000D01*
X153808997Y-83829548D01*
X153629362Y-83887914D01*
X153461060Y-83973669D01*
X153435670Y-83992116D01*
X153435669Y-83992116D01*
X149665179Y-83992116D01*
X149639199Y-83973240D01*
X149630993Y-83969059D01*
X149470836Y-83887454D01*
X149291118Y-83829059D01*
X149104486Y-83799500D01*
X149104481Y-83799500D01*
X148915519Y-83799500D01*
X148915514Y-83799500D01*
X148728881Y-83829059D01*
X148549167Y-83887453D01*
X148549160Y-83887456D01*
X148469276Y-83928159D01*
X148400607Y-83941055D01*
X148335866Y-83914778D01*
X148325301Y-83905355D01*
X146268069Y-81848123D01*
X146234584Y-81786800D01*
X146231750Y-81760442D01*
X146231750Y-81353063D01*
X146231749Y-81353048D01*
X146231290Y-81347219D01*
X146228848Y-81316181D01*
X146222014Y-81292658D01*
X146222212Y-81222792D01*
X146260153Y-81164121D01*
X146323791Y-81135277D01*
X146365282Y-81136447D01*
X146435928Y-81150500D01*
X146435931Y-81150500D01*
X146564069Y-81150500D01*
X147301929Y-81150500D01*
X147368968Y-81170185D01*
X147402245Y-81201613D01*
X147495389Y-81329815D01*
X147508034Y-81347219D01*
X147652786Y-81491971D01*
X147773226Y-81579474D01*
X147818390Y-81612287D01*
X147934607Y-81671503D01*
X148000776Y-81705218D01*
X148000778Y-81705218D01*
X148000781Y-81705220D01*
X148105137Y-81739127D01*
X148195465Y-81768477D01*
X148296557Y-81784488D01*
X148397648Y-81800500D01*
X148397649Y-81800500D01*
X148602351Y-81800500D01*
X148602352Y-81800500D01*
X148804534Y-81768477D01*
X148999219Y-81705220D01*
X149181610Y-81612287D01*
X149274590Y-81544732D01*
X149347213Y-81491971D01*
X149347215Y-81491968D01*
X149347219Y-81491966D01*
X149491966Y-81347219D01*
X149491968Y-81347215D01*
X149491971Y-81347213D01*
X149544732Y-81274590D01*
X149612287Y-81181610D01*
X149705220Y-80999219D01*
X149768477Y-80804534D01*
X149800500Y-80602352D01*
X149800500Y-80397682D01*
X152200000Y-80397682D01*
X152200000Y-80602317D01*
X152232009Y-80804417D01*
X152295244Y-80999031D01*
X152388141Y-81181350D01*
X152388147Y-81181359D01*
X152420523Y-81225921D01*
X152420524Y-81225922D01*
X153100000Y-80546446D01*
X153100000Y-80552661D01*
X153127259Y-80654394D01*
X153179920Y-80745606D01*
X153254394Y-80820080D01*
X153345606Y-80872741D01*
X153447339Y-80900000D01*
X153453553Y-80900000D01*
X152774076Y-81579474D01*
X152818650Y-81611859D01*
X153000968Y-81704755D01*
X153195582Y-81767990D01*
X153397683Y-81800000D01*
X153602317Y-81800000D01*
X153804417Y-81767990D01*
X153999031Y-81704755D01*
X154181349Y-81611859D01*
X154225921Y-81579474D01*
X153546447Y-80900000D01*
X153552661Y-80900000D01*
X153654394Y-80872741D01*
X153745606Y-80820080D01*
X153820080Y-80745606D01*
X153872741Y-80654394D01*
X153900000Y-80552661D01*
X153900000Y-80546447D01*
X154579474Y-81225921D01*
X154611859Y-81181349D01*
X154704755Y-80999031D01*
X154767990Y-80804417D01*
X154800000Y-80602317D01*
X154800000Y-80397682D01*
X154767990Y-80195582D01*
X154704755Y-80000968D01*
X154611859Y-79818650D01*
X154579474Y-79774077D01*
X154579474Y-79774076D01*
X153900000Y-80453551D01*
X153900000Y-80447339D01*
X153872741Y-80345606D01*
X153820080Y-80254394D01*
X153745606Y-80179920D01*
X153654394Y-80127259D01*
X153552661Y-80100000D01*
X153546446Y-80100000D01*
X154225922Y-79420524D01*
X154225921Y-79420523D01*
X154181359Y-79388147D01*
X154181350Y-79388141D01*
X153999031Y-79295244D01*
X153804417Y-79232009D01*
X153602317Y-79200000D01*
X153397683Y-79200000D01*
X153195582Y-79232009D01*
X153000968Y-79295244D01*
X152818644Y-79388143D01*
X152774077Y-79420523D01*
X152774077Y-79420524D01*
X153453554Y-80100000D01*
X153447339Y-80100000D01*
X153345606Y-80127259D01*
X153254394Y-80179920D01*
X153179920Y-80254394D01*
X153127259Y-80345606D01*
X153100000Y-80447339D01*
X153100000Y-80453553D01*
X152420524Y-79774077D01*
X152420523Y-79774077D01*
X152388143Y-79818644D01*
X152295244Y-80000968D01*
X152232009Y-80195582D01*
X152200000Y-80397682D01*
X149800500Y-80397682D01*
X149800500Y-80397648D01*
X149778698Y-80260000D01*
X149768477Y-80195465D01*
X149732950Y-80086125D01*
X149705220Y-80000781D01*
X149705218Y-80000778D01*
X149705218Y-80000776D01*
X149640769Y-79874289D01*
X149612287Y-79818390D01*
X149580092Y-79774077D01*
X149491971Y-79652786D01*
X149347213Y-79508028D01*
X149181613Y-79387715D01*
X149181612Y-79387714D01*
X149181610Y-79387713D01*
X149124653Y-79358691D01*
X148999223Y-79294781D01*
X148804534Y-79231522D01*
X148629995Y-79203878D01*
X148602352Y-79199500D01*
X148397648Y-79199500D01*
X148219886Y-79227654D01*
X148150593Y-79218699D01*
X148112808Y-79192862D01*
X145653231Y-76733285D01*
X145619746Y-76671962D01*
X145624730Y-76602270D01*
X145666602Y-76546337D01*
X145732066Y-76521920D01*
X145797207Y-76535119D01*
X145949163Y-76612545D01*
X145949165Y-76612545D01*
X145949168Y-76612547D01*
X146045497Y-76643846D01*
X146128881Y-76670940D01*
X146315514Y-76700500D01*
X146315519Y-76700500D01*
X146504486Y-76700500D01*
X146691118Y-76670940D01*
X146692623Y-76670451D01*
X146870832Y-76612547D01*
X147039199Y-76526760D01*
X147065182Y-76507882D01*
X150835669Y-76507882D01*
X150835670Y-76507883D01*
X150861059Y-76526329D01*
X151029362Y-76612085D01*
X151208997Y-76670451D01*
X151395553Y-76700000D01*
X151584447Y-76700000D01*
X151771002Y-76670451D01*
X151950637Y-76612085D01*
X152118937Y-76526331D01*
X152144328Y-76507883D01*
X152144328Y-76507882D01*
X151490001Y-75853554D01*
X151490000Y-75853554D01*
X150835669Y-76507882D01*
X147065182Y-76507882D01*
X147192073Y-76415690D01*
X147325690Y-76282073D01*
X147436760Y-76129199D01*
X147522547Y-75960832D01*
X147580940Y-75781118D01*
X147582069Y-75773989D01*
X147610500Y-75594486D01*
X147610500Y-75405552D01*
X150290000Y-75405552D01*
X150290000Y-75594447D01*
X150319548Y-75781002D01*
X150377914Y-75960637D01*
X150463666Y-76128933D01*
X150482116Y-76154328D01*
X151136446Y-75500000D01*
X151136446Y-75499999D01*
X151090369Y-75453922D01*
X151140000Y-75453922D01*
X151140000Y-75546078D01*
X151163852Y-75635095D01*
X151209930Y-75714905D01*
X151275095Y-75780070D01*
X151354905Y-75826148D01*
X151443922Y-75850000D01*
X151536078Y-75850000D01*
X151625095Y-75826148D01*
X151704905Y-75780070D01*
X151770070Y-75714905D01*
X151816148Y-75635095D01*
X151840000Y-75546078D01*
X151840000Y-75499999D01*
X151843554Y-75499999D01*
X151843554Y-75500000D01*
X152497882Y-76154328D01*
X152497883Y-76154328D01*
X152516331Y-76128937D01*
X152602085Y-75960637D01*
X152660451Y-75781002D01*
X152690000Y-75594447D01*
X152690000Y-75405552D01*
X152660451Y-75218997D01*
X152602085Y-75039362D01*
X152516329Y-74871059D01*
X152497883Y-74845670D01*
X152497882Y-74845669D01*
X151843554Y-75499999D01*
X151840000Y-75499999D01*
X151840000Y-75453922D01*
X151816148Y-75364905D01*
X151770070Y-75285095D01*
X151704905Y-75219930D01*
X151625095Y-75173852D01*
X151536078Y-75150000D01*
X151443922Y-75150000D01*
X151354905Y-75173852D01*
X151275095Y-75219930D01*
X151209930Y-75285095D01*
X151163852Y-75364905D01*
X151140000Y-75453922D01*
X151090369Y-75453922D01*
X150482116Y-74845669D01*
X150482116Y-74845670D01*
X150463669Y-74871060D01*
X150377914Y-75039362D01*
X150319548Y-75218997D01*
X150290000Y-75405552D01*
X147610500Y-75405552D01*
X147610500Y-75405513D01*
X147580940Y-75218881D01*
X147550598Y-75125500D01*
X147522547Y-75039168D01*
X147522545Y-75039165D01*
X147522545Y-75039163D01*
X147491423Y-74978083D01*
X147436760Y-74870801D01*
X147434976Y-74868345D01*
X147419748Y-74847385D01*
X147396268Y-74781579D01*
X147412094Y-74713525D01*
X147462199Y-74664830D01*
X147520066Y-74650500D01*
X149564071Y-74650500D01*
X149648615Y-74633682D01*
X149689744Y-74625501D01*
X149808127Y-74576465D01*
X149826679Y-74564069D01*
X149914669Y-74505277D01*
X149927830Y-74492116D01*
X150835669Y-74492116D01*
X151490000Y-75146446D01*
X151490001Y-75146446D01*
X152144328Y-74492116D01*
X152118933Y-74473666D01*
X151950637Y-74387914D01*
X151771002Y-74329548D01*
X151584447Y-74300000D01*
X151395553Y-74300000D01*
X151208997Y-74329548D01*
X151029362Y-74387914D01*
X150861060Y-74473669D01*
X150835670Y-74492116D01*
X150835669Y-74492116D01*
X149927830Y-74492116D01*
X149968253Y-74451694D01*
X153005272Y-71414674D01*
X153005273Y-71414673D01*
X153005277Y-71414669D01*
X153076465Y-71308127D01*
X153114933Y-71215257D01*
X153125501Y-71189744D01*
X153139484Y-71119450D01*
X153150500Y-71064071D01*
X153150500Y-62435928D01*
X153125502Y-62310261D01*
X153125501Y-62310260D01*
X153125501Y-62310256D01*
X153076465Y-62191873D01*
X153005277Y-62085331D01*
X153005275Y-62085329D01*
X153005273Y-62085326D01*
X150414673Y-59494726D01*
X150414669Y-59494723D01*
X150308127Y-59423535D01*
X150189744Y-59374499D01*
X150189738Y-59374497D01*
X150064071Y-59349500D01*
X150064069Y-59349500D01*
X140935931Y-59349500D01*
X140935929Y-59349500D01*
X140810261Y-59374497D01*
X140810255Y-59374499D01*
X140691870Y-59423535D01*
X140585331Y-59494722D01*
X140585324Y-59494728D01*
X140462180Y-59617873D01*
X140400857Y-59651358D01*
X140331165Y-59646374D01*
X140275232Y-59604502D01*
X140250815Y-59539038D01*
X140250499Y-59530192D01*
X140250499Y-59299998D01*
X140250498Y-59299981D01*
X140239999Y-59197203D01*
X140239998Y-59197200D01*
X140217556Y-59129474D01*
X140184814Y-59030666D01*
X140092712Y-58881344D01*
X139968656Y-58757288D01*
X139819334Y-58665186D01*
X139652797Y-58610001D01*
X139652795Y-58610000D01*
X139550010Y-58599500D01*
X137449998Y-58599500D01*
X137449981Y-58599501D01*
X137347203Y-58610000D01*
X137347200Y-58610001D01*
X137180668Y-58665185D01*
X137180663Y-58665187D01*
X137031342Y-58757289D01*
X136907289Y-58881342D01*
X136815187Y-59030663D01*
X136815186Y-59030666D01*
X136760001Y-59197203D01*
X136760001Y-59197204D01*
X136760000Y-59197204D01*
X136749500Y-59299983D01*
X136749500Y-60700001D01*
X136749501Y-60700018D01*
X136760000Y-60802796D01*
X136760001Y-60802799D01*
X136783819Y-60874675D01*
X136815186Y-60969334D01*
X136907288Y-61118656D01*
X137031344Y-61242712D01*
X137180666Y-61334814D01*
X137347203Y-61389999D01*
X137449991Y-61400500D01*
X137725501Y-61400499D01*
X137792539Y-61420183D01*
X137838294Y-61472987D01*
X137849500Y-61524499D01*
X137849500Y-63994070D01*
X137863559Y-64064744D01*
X137863559Y-64064746D01*
X137874497Y-64119736D01*
X137874499Y-64119744D01*
X137921463Y-64233126D01*
X137923535Y-64238127D01*
X137952899Y-64282074D01*
X137994726Y-64344673D01*
X137994727Y-64344674D01*
X139758181Y-66108127D01*
X139791666Y-66169450D01*
X139794500Y-66195808D01*
X139794500Y-66915701D01*
X139797401Y-66952567D01*
X139797402Y-66952573D01*
X139843254Y-67110393D01*
X139843255Y-67110396D01*
X139926917Y-67251862D01*
X139926923Y-67251870D01*
X140043129Y-67368076D01*
X140043133Y-67368079D01*
X140043135Y-67368081D01*
X140184602Y-67451744D01*
X140214169Y-67460334D01*
X140342426Y-67497597D01*
X140342429Y-67497597D01*
X140342431Y-67497598D01*
X140379306Y-67500500D01*
X140379314Y-67500500D01*
X140443786Y-67500500D01*
X140510825Y-67520185D01*
X140556580Y-67572989D01*
X140566524Y-67642147D01*
X140565403Y-67648691D01*
X140550000Y-67726126D01*
X140550000Y-67873873D01*
X140578820Y-68018759D01*
X140578822Y-68018767D01*
X140622421Y-68124024D01*
X140966337Y-67780109D01*
X141200000Y-67780109D01*
X141200000Y-67819891D01*
X141215224Y-67856645D01*
X141243355Y-67884776D01*
X141280109Y-67900000D01*
X141319891Y-67900000D01*
X141356645Y-67884776D01*
X141384776Y-67856645D01*
X141400000Y-67819891D01*
X141400000Y-67800000D01*
X141653554Y-67800000D01*
X141900000Y-68046446D01*
X142146446Y-67800000D01*
X142126555Y-67780109D01*
X142400000Y-67780109D01*
X142400000Y-67819891D01*
X142415224Y-67856645D01*
X142443355Y-67884776D01*
X142480109Y-67900000D01*
X142519891Y-67900000D01*
X142556645Y-67884776D01*
X142584776Y-67856645D01*
X142600000Y-67819891D01*
X142600000Y-67780109D01*
X142584776Y-67743355D01*
X142556645Y-67715224D01*
X142519891Y-67700000D01*
X142480109Y-67700000D01*
X142443355Y-67715224D01*
X142415224Y-67743355D01*
X142400000Y-67780109D01*
X142126555Y-67780109D01*
X141900000Y-67553554D01*
X141653554Y-67800000D01*
X141400000Y-67800000D01*
X141400000Y-67780109D01*
X141384776Y-67743355D01*
X141356645Y-67715224D01*
X141319891Y-67700000D01*
X141280109Y-67700000D01*
X141243355Y-67715224D01*
X141215224Y-67743355D01*
X141200000Y-67780109D01*
X140966337Y-67780109D01*
X141085489Y-67660957D01*
X141657796Y-67088650D01*
X141719119Y-67055165D01*
X141788811Y-67060149D01*
X141833158Y-67088650D01*
X141900000Y-67155492D01*
X141966842Y-67088650D01*
X142028165Y-67055165D01*
X142097857Y-67060149D01*
X142142204Y-67088650D01*
X142499999Y-67446445D01*
X142512124Y-67434321D01*
X142573447Y-67400835D01*
X142643138Y-67405819D01*
X142662921Y-67415266D01*
X142724602Y-67451744D01*
X142754169Y-67460334D01*
X142888515Y-67499366D01*
X142888080Y-67500860D01*
X142943536Y-67528765D01*
X142979061Y-67588929D01*
X142976421Y-67658749D01*
X142946531Y-67707023D01*
X142853554Y-67800000D01*
X143100000Y-68046446D01*
X143346446Y-67800000D01*
X143326555Y-67780109D01*
X143600000Y-67780109D01*
X143600000Y-67819891D01*
X143615224Y-67856645D01*
X143643355Y-67884776D01*
X143680109Y-67900000D01*
X143719891Y-67900000D01*
X143756645Y-67884776D01*
X143784776Y-67856645D01*
X143800000Y-67819891D01*
X143800000Y-67780109D01*
X143784776Y-67743355D01*
X143756645Y-67715224D01*
X143719891Y-67700000D01*
X143680109Y-67700000D01*
X143643355Y-67715224D01*
X143615224Y-67743355D01*
X143600000Y-67780109D01*
X143326555Y-67780109D01*
X143258627Y-67712181D01*
X143225142Y-67650858D01*
X143230126Y-67581166D01*
X143271998Y-67525233D01*
X143337462Y-67500816D01*
X143346308Y-67500500D01*
X143350686Y-67500500D01*
X143350694Y-67500500D01*
X143387569Y-67497598D01*
X143387571Y-67497597D01*
X143387573Y-67497597D01*
X143429191Y-67485505D01*
X143545398Y-67451744D01*
X143563085Y-67441283D01*
X143590686Y-67434280D01*
X143617361Y-67424331D01*
X143624110Y-67425799D01*
X143630807Y-67424100D01*
X143657814Y-67433131D01*
X143685634Y-67439183D01*
X143693482Y-67445058D01*
X143697070Y-67446258D01*
X143713888Y-67460334D01*
X143876777Y-67623223D01*
X144377577Y-68124024D01*
X144377578Y-68124024D01*
X144421175Y-68018775D01*
X144421178Y-68018765D01*
X144423314Y-68008027D01*
X144423314Y-68008026D01*
X144423315Y-68008023D01*
X144450000Y-67873871D01*
X144450000Y-67726128D01*
X144434497Y-67648192D01*
X144440724Y-67578600D01*
X144483587Y-67523423D01*
X144549476Y-67500178D01*
X144556114Y-67500000D01*
X144620634Y-67500000D01*
X144620649Y-67499999D01*
X144657489Y-67497100D01*
X144657495Y-67497099D01*
X144815193Y-67451283D01*
X144815196Y-67451282D01*
X144956552Y-67367685D01*
X144956561Y-67367678D01*
X145072678Y-67251561D01*
X145072685Y-67251552D01*
X145156282Y-67110196D01*
X145156283Y-67110193D01*
X145202099Y-66952495D01*
X145202100Y-66952489D01*
X145204999Y-66915649D01*
X145205000Y-66915634D01*
X145205000Y-66897682D01*
X146700000Y-66897682D01*
X146700000Y-67102317D01*
X146732009Y-67304417D01*
X146795244Y-67499031D01*
X146888141Y-67681350D01*
X146888147Y-67681359D01*
X146920523Y-67725921D01*
X146920524Y-67725922D01*
X147600000Y-67046446D01*
X147600000Y-67052661D01*
X147627259Y-67154394D01*
X147679920Y-67245606D01*
X147754394Y-67320080D01*
X147845606Y-67372741D01*
X147947339Y-67400000D01*
X147953553Y-67400000D01*
X147274076Y-68079474D01*
X147318650Y-68111859D01*
X147500968Y-68204755D01*
X147695582Y-68267990D01*
X147897683Y-68300000D01*
X148102317Y-68300000D01*
X148304417Y-68267990D01*
X148499031Y-68204755D01*
X148681349Y-68111859D01*
X148725921Y-68079474D01*
X148046447Y-67400000D01*
X148052661Y-67400000D01*
X148154394Y-67372741D01*
X148245606Y-67320080D01*
X148320080Y-67245606D01*
X148372741Y-67154394D01*
X148400000Y-67052661D01*
X148400000Y-67046448D01*
X149079474Y-67725922D01*
X149079474Y-67725921D01*
X149111859Y-67681349D01*
X149204755Y-67499031D01*
X149267990Y-67304417D01*
X149300000Y-67102317D01*
X149300000Y-66897682D01*
X149267990Y-66695582D01*
X149204755Y-66500968D01*
X149111859Y-66318650D01*
X149079474Y-66274077D01*
X149079474Y-66274076D01*
X148400000Y-66953551D01*
X148400000Y-66947339D01*
X148372741Y-66845606D01*
X148320080Y-66754394D01*
X148245606Y-66679920D01*
X148154394Y-66627259D01*
X148052661Y-66600000D01*
X148046446Y-66600000D01*
X148725922Y-65920524D01*
X148725921Y-65920523D01*
X148681359Y-65888147D01*
X148681350Y-65888141D01*
X148499031Y-65795244D01*
X148304417Y-65732009D01*
X148102317Y-65700000D01*
X147897683Y-65700000D01*
X147695582Y-65732009D01*
X147500968Y-65795244D01*
X147318644Y-65888143D01*
X147274077Y-65920523D01*
X147274077Y-65920524D01*
X147953554Y-66600000D01*
X147947339Y-66600000D01*
X147845606Y-66627259D01*
X147754394Y-66679920D01*
X147679920Y-66754394D01*
X147627259Y-66845606D01*
X147600000Y-66947339D01*
X147600000Y-66953553D01*
X146920524Y-66274077D01*
X146920523Y-66274077D01*
X146888143Y-66318644D01*
X146795244Y-66500968D01*
X146732009Y-66695582D01*
X146700000Y-66897682D01*
X145205000Y-66897682D01*
X145205000Y-66275000D01*
X144529000Y-66275000D01*
X144520314Y-66272449D01*
X144511353Y-66273738D01*
X144487312Y-66262759D01*
X144461961Y-66255315D01*
X144456033Y-66248474D01*
X144447797Y-66244713D01*
X144433507Y-66222478D01*
X144416206Y-66202511D01*
X144413918Y-66191996D01*
X144410023Y-66185935D01*
X144405000Y-66151000D01*
X144405000Y-65899000D01*
X144424685Y-65831961D01*
X144477489Y-65786206D01*
X144529000Y-65775000D01*
X145205000Y-65775000D01*
X145205000Y-65134365D01*
X145204999Y-65134350D01*
X145202100Y-65097510D01*
X145202099Y-65097504D01*
X145156283Y-64939806D01*
X145156282Y-64939803D01*
X145115323Y-64870545D01*
X145098140Y-64802822D01*
X145120300Y-64736559D01*
X145174766Y-64692795D01*
X145202657Y-64684951D01*
X145291118Y-64670940D01*
X145292623Y-64670451D01*
X145470832Y-64612547D01*
X145472226Y-64611837D01*
X145497977Y-64598716D01*
X145639199Y-64526760D01*
X145665182Y-64507882D01*
X149435669Y-64507882D01*
X149435670Y-64507883D01*
X149461059Y-64526329D01*
X149629362Y-64612085D01*
X149808997Y-64670451D01*
X149995553Y-64700000D01*
X150184447Y-64700000D01*
X150371002Y-64670451D01*
X150550637Y-64612085D01*
X150718937Y-64526331D01*
X150744328Y-64507883D01*
X150744328Y-64507882D01*
X150090001Y-63853554D01*
X150090000Y-63853554D01*
X149435669Y-64507882D01*
X145665182Y-64507882D01*
X145792073Y-64415690D01*
X145925690Y-64282073D01*
X146036760Y-64129199D01*
X146122547Y-63960832D01*
X146180940Y-63781118D01*
X146196123Y-63685255D01*
X146210500Y-63594486D01*
X146210500Y-63405552D01*
X148890000Y-63405552D01*
X148890000Y-63594447D01*
X148919548Y-63781002D01*
X148977914Y-63960637D01*
X149063666Y-64128933D01*
X149082116Y-64154328D01*
X149736446Y-63500000D01*
X149736446Y-63499999D01*
X149690369Y-63453922D01*
X149740000Y-63453922D01*
X149740000Y-63546078D01*
X149763852Y-63635095D01*
X149809930Y-63714905D01*
X149875095Y-63780070D01*
X149954905Y-63826148D01*
X150043922Y-63850000D01*
X150136078Y-63850000D01*
X150225095Y-63826148D01*
X150304905Y-63780070D01*
X150370070Y-63714905D01*
X150416148Y-63635095D01*
X150440000Y-63546078D01*
X150440000Y-63499999D01*
X150443554Y-63499999D01*
X150443554Y-63500000D01*
X151097882Y-64154328D01*
X151097883Y-64154328D01*
X151116331Y-64128937D01*
X151202085Y-63960637D01*
X151260451Y-63781002D01*
X151290000Y-63594447D01*
X151290000Y-63405552D01*
X151260451Y-63218997D01*
X151202085Y-63039362D01*
X151116329Y-62871059D01*
X151097883Y-62845670D01*
X151097882Y-62845669D01*
X150443554Y-63499999D01*
X150440000Y-63499999D01*
X150440000Y-63453922D01*
X150416148Y-63364905D01*
X150370070Y-63285095D01*
X150304905Y-63219930D01*
X150225095Y-63173852D01*
X150136078Y-63150000D01*
X150043922Y-63150000D01*
X149954905Y-63173852D01*
X149875095Y-63219930D01*
X149809930Y-63285095D01*
X149763852Y-63364905D01*
X149740000Y-63453922D01*
X149690369Y-63453922D01*
X149082116Y-62845669D01*
X149082116Y-62845670D01*
X149063669Y-62871060D01*
X148977914Y-63039362D01*
X148919548Y-63218997D01*
X148890000Y-63405552D01*
X146210500Y-63405552D01*
X146210500Y-63405513D01*
X146180940Y-63218881D01*
X146122545Y-63039163D01*
X146038644Y-62874499D01*
X146036760Y-62870801D01*
X145925690Y-62717927D01*
X145792073Y-62584310D01*
X145665179Y-62492116D01*
X149435669Y-62492116D01*
X150090000Y-63146446D01*
X150090001Y-63146446D01*
X150744328Y-62492116D01*
X150718933Y-62473666D01*
X150550637Y-62387914D01*
X150371002Y-62329548D01*
X150184447Y-62300000D01*
X149995553Y-62300000D01*
X149808997Y-62329548D01*
X149629362Y-62387914D01*
X149461060Y-62473669D01*
X149435670Y-62492116D01*
X149435669Y-62492116D01*
X145665179Y-62492116D01*
X145639199Y-62473240D01*
X145470836Y-62387454D01*
X145291118Y-62329059D01*
X145104486Y-62299500D01*
X145104481Y-62299500D01*
X144915519Y-62299500D01*
X144915514Y-62299500D01*
X144728881Y-62329059D01*
X144549163Y-62387454D01*
X144380800Y-62473240D01*
X144293579Y-62536610D01*
X144227927Y-62584310D01*
X144227925Y-62584312D01*
X144227924Y-62584312D01*
X144094311Y-62717925D01*
X144094310Y-62717927D01*
X144038713Y-62794450D01*
X144035853Y-62798386D01*
X143980522Y-62841051D01*
X143935535Y-62849500D01*
X143445929Y-62849500D01*
X143338852Y-62870800D01*
X143338847Y-62870801D01*
X143324870Y-62873581D01*
X143320255Y-62874499D01*
X143201874Y-62923534D01*
X143095326Y-62994726D01*
X143095325Y-62994727D01*
X142629722Y-63460331D01*
X142629718Y-63460336D01*
X142606743Y-63494723D01*
X142606743Y-63494724D01*
X142558534Y-63566874D01*
X142509499Y-63685255D01*
X142509497Y-63685261D01*
X142484500Y-63810928D01*
X142484500Y-64505103D01*
X142464815Y-64572142D01*
X142412011Y-64617897D01*
X142342853Y-64627841D01*
X142297382Y-64611837D01*
X142275196Y-64598717D01*
X142275193Y-64598716D01*
X142117494Y-64552900D01*
X142117497Y-64552900D01*
X142115000Y-64552703D01*
X142115000Y-65901000D01*
X142095315Y-65968039D01*
X142042511Y-66013794D01*
X141991000Y-66025000D01*
X141739000Y-66025000D01*
X141671961Y-66005315D01*
X141626206Y-65952511D01*
X141615000Y-65901000D01*
X141615000Y-64552703D01*
X141612503Y-64552900D01*
X141454806Y-64598716D01*
X141454803Y-64598717D01*
X141432618Y-64611837D01*
X141364894Y-64629017D01*
X141298632Y-64606856D01*
X141254870Y-64552389D01*
X141245500Y-64505103D01*
X141245500Y-60774500D01*
X141265185Y-60707461D01*
X141317989Y-60661706D01*
X141369500Y-60650500D01*
X149679192Y-60650500D01*
X149746231Y-60670185D01*
X149766873Y-60686819D01*
X151813181Y-62733127D01*
X151846666Y-62794450D01*
X151849500Y-62820808D01*
X151849500Y-70679192D01*
X151829815Y-70746231D01*
X151813181Y-70766873D01*
X149266873Y-73313181D01*
X149205550Y-73346666D01*
X149179192Y-73349500D01*
X148732551Y-73349500D01*
X148665512Y-73329815D01*
X148619757Y-73277011D01*
X148609813Y-73207853D01*
X148638838Y-73144297D01*
X148676255Y-73115016D01*
X148678923Y-73113655D01*
X148681610Y-73112287D01*
X148731144Y-73076298D01*
X148847213Y-72991971D01*
X148847215Y-72991968D01*
X148847219Y-72991966D01*
X148991966Y-72847219D01*
X148991968Y-72847215D01*
X148991971Y-72847213D01*
X149046012Y-72772831D01*
X149112287Y-72681610D01*
X149205220Y-72499219D01*
X149268477Y-72304534D01*
X149300500Y-72102352D01*
X149300500Y-71897648D01*
X149268477Y-71695466D01*
X149205220Y-71500781D01*
X149205218Y-71500778D01*
X149205218Y-71500776D01*
X149123833Y-71341051D01*
X149112287Y-71318390D01*
X149097753Y-71298385D01*
X148991971Y-71152786D01*
X148847213Y-71008028D01*
X148681613Y-70887715D01*
X148681612Y-70887714D01*
X148681610Y-70887713D01*
X148618495Y-70855554D01*
X148499223Y-70794781D01*
X148304534Y-70731522D01*
X148129995Y-70703878D01*
X148102352Y-70699500D01*
X147897648Y-70699500D01*
X147873329Y-70703351D01*
X147695465Y-70731522D01*
X147500776Y-70794781D01*
X147318386Y-70887715D01*
X147152786Y-71008028D01*
X147008034Y-71152780D01*
X147008030Y-71152786D01*
X146902246Y-71298386D01*
X146846918Y-71341051D01*
X146801929Y-71349500D01*
X145750808Y-71349500D01*
X145683769Y-71329815D01*
X145663127Y-71313181D01*
X145241819Y-70891873D01*
X145208334Y-70830550D01*
X145205500Y-70804192D01*
X145205500Y-70084313D01*
X145205499Y-70084298D01*
X145202598Y-70047432D01*
X145202597Y-70047426D01*
X145156745Y-69889606D01*
X145156744Y-69889603D01*
X145156744Y-69889602D01*
X145073081Y-69748135D01*
X145073079Y-69748133D01*
X145073076Y-69748129D01*
X144956870Y-69631923D01*
X144956862Y-69631917D01*
X144849062Y-69568165D01*
X144815398Y-69548256D01*
X144815397Y-69548255D01*
X144815396Y-69548255D01*
X144815393Y-69548254D01*
X144657573Y-69502402D01*
X144657567Y-69502401D01*
X144620701Y-69499500D01*
X144620694Y-69499500D01*
X144556214Y-69499500D01*
X144489175Y-69479815D01*
X144443420Y-69427011D01*
X144433476Y-69357853D01*
X144434597Y-69351309D01*
X144449999Y-69273873D01*
X144450000Y-69273871D01*
X144450000Y-69126128D01*
X144449999Y-69126126D01*
X144421179Y-68981240D01*
X144421178Y-68981236D01*
X144377577Y-68875975D01*
X143876779Y-69376774D01*
X143876777Y-69376778D01*
X143713887Y-69539666D01*
X143652563Y-69573150D01*
X143582872Y-69568165D01*
X143563089Y-69558718D01*
X143545398Y-69548256D01*
X143545396Y-69548255D01*
X143545394Y-69548254D01*
X143387573Y-69502402D01*
X143387567Y-69502401D01*
X143350701Y-69499500D01*
X143350694Y-69499500D01*
X143346308Y-69499500D01*
X143279269Y-69479815D01*
X143233514Y-69427011D01*
X143223570Y-69357853D01*
X143252595Y-69294297D01*
X143258627Y-69287819D01*
X143346446Y-69200000D01*
X143326555Y-69180109D01*
X143600000Y-69180109D01*
X143600000Y-69219891D01*
X143615224Y-69256645D01*
X143643355Y-69284776D01*
X143680109Y-69300000D01*
X143719891Y-69300000D01*
X143756645Y-69284776D01*
X143784776Y-69256645D01*
X143800000Y-69219891D01*
X143800000Y-69180109D01*
X143784776Y-69143355D01*
X143756645Y-69115224D01*
X143719891Y-69100000D01*
X143680109Y-69100000D01*
X143643355Y-69115224D01*
X143615224Y-69143355D01*
X143600000Y-69180109D01*
X143326555Y-69180109D01*
X143100000Y-68953554D01*
X142853554Y-69200000D01*
X142946530Y-69292976D01*
X142980015Y-69354299D01*
X142975031Y-69423991D01*
X142933159Y-69479924D01*
X142888201Y-69499555D01*
X142888515Y-69500634D01*
X142724606Y-69548254D01*
X142724605Y-69548254D01*
X142662926Y-69584731D01*
X142599806Y-69601998D01*
X142400193Y-69601998D01*
X142378945Y-69595758D01*
X142356858Y-69594179D01*
X142337072Y-69584730D01*
X142319263Y-69574198D01*
X142275398Y-69548256D01*
X142275397Y-69548255D01*
X142275396Y-69548255D01*
X142275393Y-69548254D01*
X142111485Y-69500634D01*
X142111917Y-69499143D01*
X142056449Y-69471220D01*
X142020933Y-69411051D01*
X142023585Y-69341232D01*
X142053469Y-69292975D01*
X142146445Y-69199999D01*
X142126555Y-69180109D01*
X142400000Y-69180109D01*
X142400000Y-69219891D01*
X142415224Y-69256645D01*
X142443355Y-69284776D01*
X142480109Y-69300000D01*
X142519891Y-69300000D01*
X142556645Y-69284776D01*
X142584776Y-69256645D01*
X142600000Y-69219891D01*
X142600000Y-69180109D01*
X142584776Y-69143355D01*
X142556645Y-69115224D01*
X142519891Y-69100000D01*
X142480109Y-69100000D01*
X142443355Y-69115224D01*
X142415224Y-69143355D01*
X142400000Y-69180109D01*
X142126555Y-69180109D01*
X141900000Y-68953554D01*
X141653554Y-69200000D01*
X141741373Y-69287819D01*
X141774858Y-69349142D01*
X141769874Y-69418834D01*
X141728002Y-69474767D01*
X141662538Y-69499184D01*
X141653692Y-69499500D01*
X141649298Y-69499500D01*
X141612432Y-69502401D01*
X141612426Y-69502402D01*
X141454606Y-69548254D01*
X141454601Y-69548256D01*
X141436908Y-69558719D01*
X141409311Y-69565719D01*
X141382638Y-69575668D01*
X141375883Y-69574198D01*
X141369184Y-69575898D01*
X141342185Y-69566867D01*
X141314365Y-69560816D01*
X141306510Y-69554936D01*
X141302922Y-69553736D01*
X141286111Y-69539665D01*
X141123223Y-69376777D01*
X140926555Y-69180109D01*
X141200000Y-69180109D01*
X141200000Y-69219891D01*
X141215224Y-69256645D01*
X141243355Y-69284776D01*
X141280109Y-69300000D01*
X141319891Y-69300000D01*
X141356645Y-69284776D01*
X141384776Y-69256645D01*
X141400000Y-69219891D01*
X141400000Y-69180109D01*
X141384776Y-69143355D01*
X141356645Y-69115224D01*
X141319891Y-69100000D01*
X141280109Y-69100000D01*
X141243355Y-69115224D01*
X141215224Y-69143355D01*
X141200000Y-69180109D01*
X140926555Y-69180109D01*
X140622421Y-68875974D01*
X140622420Y-68875974D01*
X140578823Y-68981228D01*
X140578820Y-68981240D01*
X140550000Y-69126126D01*
X140550000Y-69273873D01*
X140565403Y-69351309D01*
X140559176Y-69420900D01*
X140516313Y-69476078D01*
X140450423Y-69499322D01*
X140443786Y-69499500D01*
X140379298Y-69499500D01*
X140342432Y-69502401D01*
X140180323Y-69549498D01*
X140110454Y-69549298D01*
X140058048Y-69518102D01*
X139017876Y-68477930D01*
X140975622Y-68477930D01*
X140975622Y-68522068D01*
X141300000Y-68846446D01*
X141300001Y-68846446D01*
X141624376Y-68522069D01*
X141624376Y-68515852D01*
X141622486Y-68511049D01*
X141624261Y-68477930D01*
X142175622Y-68477930D01*
X142175622Y-68522068D01*
X142500000Y-68846446D01*
X142500001Y-68846446D01*
X142824376Y-68522069D01*
X142824376Y-68515852D01*
X142822486Y-68511049D01*
X142824261Y-68477930D01*
X143375622Y-68477930D01*
X143375622Y-68522068D01*
X143700000Y-68846446D01*
X143700001Y-68846446D01*
X144024376Y-68522069D01*
X144024376Y-68477929D01*
X143700001Y-68153554D01*
X143700000Y-68153554D01*
X143375622Y-68477930D01*
X142824261Y-68477930D01*
X142824267Y-68477820D01*
X142500001Y-68153554D01*
X142500000Y-68153554D01*
X142175622Y-68477930D01*
X141624261Y-68477930D01*
X141624267Y-68477820D01*
X141300001Y-68153554D01*
X141300000Y-68153554D01*
X140975622Y-68477930D01*
X139017876Y-68477930D01*
X122667993Y-52128047D01*
X122634508Y-52066724D01*
X122639492Y-51997032D01*
X122681364Y-51941099D01*
X122746828Y-51916682D01*
X122775069Y-51917892D01*
X122818252Y-51924732D01*
X122886233Y-51935500D01*
X122886237Y-51935500D01*
X123113768Y-51935500D01*
X123222710Y-51918244D01*
X123338489Y-51899907D01*
X123554879Y-51829598D01*
X123757607Y-51726303D01*
X123941680Y-51592566D01*
X124102566Y-51431680D01*
X124236303Y-51247607D01*
X124339598Y-51044879D01*
X124409907Y-50828489D01*
X124431883Y-50689738D01*
X124445500Y-50603768D01*
X124445500Y-50376231D01*
X124423449Y-50237014D01*
X124409907Y-50151511D01*
X124339598Y-49935121D01*
X124339598Y-49935120D01*
X124236302Y-49732392D01*
X124102566Y-49548320D01*
X123941680Y-49387434D01*
X123757607Y-49253697D01*
X123720543Y-49234812D01*
X123554879Y-49150401D01*
X123554876Y-49150400D01*
X123338490Y-49080093D01*
X123113768Y-49044500D01*
X123113763Y-49044500D01*
X122886237Y-49044500D01*
X122886232Y-49044500D01*
X122661509Y-49080093D01*
X122445123Y-49150400D01*
X122445120Y-49150401D01*
X122242392Y-49253697D01*
X122177974Y-49300500D01*
X122058320Y-49387434D01*
X122058318Y-49387436D01*
X122058317Y-49387436D01*
X121897436Y-49548317D01*
X121897436Y-49548318D01*
X121897434Y-49548320D01*
X121839998Y-49627372D01*
X121763697Y-49732392D01*
X121660401Y-49935120D01*
X121660400Y-49935123D01*
X121590093Y-50151509D01*
X121554500Y-50376231D01*
X121554500Y-50603768D01*
X121572106Y-50714927D01*
X121563152Y-50784220D01*
X121518155Y-50837672D01*
X121451404Y-50858312D01*
X121384090Y-50839587D01*
X121361952Y-50822006D01*
X118786819Y-48246873D01*
X118753334Y-48185550D01*
X118750500Y-48159192D01*
X118750500Y-43379999D01*
X118750499Y-43379986D01*
X118739999Y-43277206D01*
X118739999Y-43277205D01*
X118684814Y-43110668D01*
X118592711Y-42961346D01*
X118468654Y-42837289D01*
X118319332Y-42745186D01*
X118152795Y-42690001D01*
X118152793Y-42690000D01*
X118050013Y-42679500D01*
X118050006Y-42679500D01*
X111949994Y-42679500D01*
X111949986Y-42679500D01*
X111847206Y-42690000D01*
X111847205Y-42690001D01*
X111764672Y-42717349D01*
X111680670Y-42745185D01*
X111680665Y-42745187D01*
X111531344Y-42837290D01*
X111407290Y-42961344D01*
X111315187Y-43110665D01*
X111315186Y-43110668D01*
X111260001Y-43277205D01*
X111260001Y-43277206D01*
X111260000Y-43277206D01*
X111249500Y-43379986D01*
X101650500Y-43379986D01*
X101650500Y-42820808D01*
X101670185Y-42753769D01*
X101686819Y-42733127D01*
X105733127Y-38686819D01*
X105794450Y-38653334D01*
X105820808Y-38650500D01*
X123679192Y-38650500D01*
X123746231Y-38670185D01*
X123766873Y-38686819D01*
X137874872Y-52794818D01*
X137908357Y-52856141D01*
X137903373Y-52925833D01*
X137874872Y-52970180D01*
X136695710Y-54149342D01*
X136634387Y-54182827D01*
X136586245Y-54182315D01*
X136586055Y-54183516D01*
X136481111Y-54166894D01*
X136371287Y-54149500D01*
X136158713Y-54149500D01*
X136110042Y-54157208D01*
X135948760Y-54182753D01*
X135746585Y-54248444D01*
X135557179Y-54344951D01*
X135385215Y-54469889D01*
X135271673Y-54583431D01*
X135210350Y-54616915D01*
X135140658Y-54611931D01*
X135084725Y-54570059D01*
X135067810Y-54539082D01*
X135018797Y-54407671D01*
X135018793Y-54407664D01*
X134932547Y-54292455D01*
X134932544Y-54292452D01*
X134817335Y-54206206D01*
X134817328Y-54206202D01*
X134682482Y-54155908D01*
X134682483Y-54155908D01*
X134622883Y-54149501D01*
X134622881Y-54149500D01*
X134622873Y-54149500D01*
X134622864Y-54149500D01*
X132827129Y-54149500D01*
X132827123Y-54149501D01*
X132767516Y-54155908D01*
X132632671Y-54206202D01*
X132632664Y-54206206D01*
X132517455Y-54292452D01*
X132517452Y-54292455D01*
X132431206Y-54407664D01*
X132431202Y-54407671D01*
X132380908Y-54542517D01*
X132374501Y-54602116D01*
X132374500Y-54602135D01*
X132374500Y-56397870D01*
X132374501Y-56397876D01*
X132380908Y-56457483D01*
X132431202Y-56592328D01*
X132431206Y-56592335D01*
X132517452Y-56707544D01*
X132517455Y-56707547D01*
X132632664Y-56793793D01*
X132632671Y-56793797D01*
X132677618Y-56810561D01*
X132767517Y-56844091D01*
X132827127Y-56850500D01*
X132950500Y-56850499D01*
X133017539Y-56870183D01*
X133063294Y-56922987D01*
X133074500Y-56974499D01*
X133074500Y-58663132D01*
X133054815Y-58730171D01*
X133035616Y-58751346D01*
X133036451Y-58752181D01*
X132907289Y-58881342D01*
X132815187Y-59030663D01*
X132815186Y-59030666D01*
X132760001Y-59197203D01*
X132760001Y-59197204D01*
X132760000Y-59197204D01*
X132749500Y-59299983D01*
X132749500Y-60700001D01*
X132749501Y-60700018D01*
X132760000Y-60802796D01*
X132760001Y-60802799D01*
X132783819Y-60874675D01*
X132815186Y-60969334D01*
X132907288Y-61118656D01*
X133031344Y-61242712D01*
X133180666Y-61334814D01*
X133347203Y-61389999D01*
X133449991Y-61400500D01*
X135550008Y-61400499D01*
X135652797Y-61389999D01*
X135819334Y-61334814D01*
X135968656Y-61242712D01*
X136092712Y-61118656D01*
X136184814Y-60969334D01*
X136239999Y-60802797D01*
X136250500Y-60700009D01*
X136250499Y-59299992D01*
X136239999Y-59197203D01*
X136184814Y-59030666D01*
X136092712Y-58881344D01*
X135968656Y-58757288D01*
X135819334Y-58665186D01*
X135652797Y-58610001D01*
X135652795Y-58610000D01*
X135550016Y-58599500D01*
X135550009Y-58599500D01*
X134499500Y-58599500D01*
X134432461Y-58579815D01*
X134386706Y-58527011D01*
X134375500Y-58475500D01*
X134375500Y-56974499D01*
X134395185Y-56907460D01*
X134447989Y-56861705D01*
X134499500Y-56850499D01*
X134622871Y-56850499D01*
X134622872Y-56850499D01*
X134682483Y-56844091D01*
X134817331Y-56793796D01*
X134932546Y-56707546D01*
X135018796Y-56592331D01*
X135067810Y-56460916D01*
X135109681Y-56404984D01*
X135175145Y-56380566D01*
X135243418Y-56395417D01*
X135271673Y-56416569D01*
X135385213Y-56530109D01*
X135557179Y-56655048D01*
X135557181Y-56655049D01*
X135557184Y-56655051D01*
X135746588Y-56751557D01*
X135948757Y-56817246D01*
X136158713Y-56850500D01*
X136158714Y-56850500D01*
X136371286Y-56850500D01*
X136371287Y-56850500D01*
X136581243Y-56817246D01*
X136783412Y-56751557D01*
X136972816Y-56655051D01*
X137059138Y-56592335D01*
X137144786Y-56530109D01*
X137144788Y-56530106D01*
X137144792Y-56530104D01*
X137295104Y-56379792D01*
X137295106Y-56379788D01*
X137295109Y-56379786D01*
X137420048Y-56207820D01*
X137420047Y-56207820D01*
X137420051Y-56207816D01*
X137516557Y-56018412D01*
X137582246Y-55816243D01*
X137615500Y-55606287D01*
X137615500Y-55393713D01*
X137582246Y-55183757D01*
X137581484Y-55178945D01*
X137583123Y-55178685D01*
X137586257Y-55116126D01*
X137615655Y-55069289D01*
X138998127Y-53686819D01*
X139059450Y-53653334D01*
X139085808Y-53650500D01*
X140801929Y-53650500D01*
X140868968Y-53670185D01*
X140902245Y-53701613D01*
X141008034Y-53847219D01*
X141152786Y-53991971D01*
X141307749Y-54104556D01*
X141318390Y-54112287D01*
X141404001Y-54155908D01*
X141500776Y-54205218D01*
X141500778Y-54205218D01*
X141500781Y-54205220D01*
X141605137Y-54239127D01*
X141695465Y-54268477D01*
X141796557Y-54284488D01*
X141897648Y-54300500D01*
X141897649Y-54300500D01*
X142102351Y-54300500D01*
X142102352Y-54300500D01*
X142304534Y-54268477D01*
X142499219Y-54205220D01*
X142681610Y-54112287D01*
X142774590Y-54044732D01*
X142847213Y-53991971D01*
X142847215Y-53991968D01*
X142847219Y-53991966D01*
X142991966Y-53847219D01*
X143097753Y-53701613D01*
X143153082Y-53658949D01*
X143198071Y-53650500D01*
X145679192Y-53650500D01*
X145746231Y-53670185D01*
X145766873Y-53686819D01*
X156313181Y-64233126D01*
X156346666Y-64294449D01*
X156349500Y-64320807D01*
X156349500Y-76132465D01*
X156329815Y-76199504D01*
X156277011Y-76245259D01*
X156238102Y-76255823D01*
X156197202Y-76260001D01*
X156197200Y-76260001D01*
X156030668Y-76315185D01*
X156030663Y-76315187D01*
X155881342Y-76407289D01*
X155757289Y-76531342D01*
X155665187Y-76680663D01*
X155665185Y-76680668D01*
X155647750Y-76733285D01*
X155610001Y-76847203D01*
X155610001Y-76847204D01*
X155610000Y-76847204D01*
X155599500Y-76949983D01*
X155599500Y-79050001D01*
X155599501Y-79050018D01*
X155610000Y-79152796D01*
X155610001Y-79152799D01*
X155657050Y-79294781D01*
X155665186Y-79319334D01*
X155757288Y-79468656D01*
X155881344Y-79592712D01*
X156030666Y-79684814D01*
X156197203Y-79739999D01*
X156299991Y-79750500D01*
X157700008Y-79750499D01*
X157802797Y-79739999D01*
X157969334Y-79684814D01*
X158118656Y-79592712D01*
X158242712Y-79468656D01*
X158334814Y-79319334D01*
X158389999Y-79152797D01*
X158400500Y-79050009D01*
X158400499Y-76949992D01*
X158389999Y-76847203D01*
X158334814Y-76680666D01*
X158242712Y-76531344D01*
X158118656Y-76407288D01*
X157969334Y-76315186D01*
X157802797Y-76260001D01*
X157802795Y-76260000D01*
X157761896Y-76255822D01*
X157697205Y-76229425D01*
X157657054Y-76172244D01*
X157650500Y-76132464D01*
X157650500Y-63935928D01*
X157625502Y-63810261D01*
X157625501Y-63810260D01*
X157625501Y-63810256D01*
X157576465Y-63691873D01*
X157576464Y-63691872D01*
X157576461Y-63691866D01*
X157505277Y-63585332D01*
X157466023Y-63546078D01*
X157414669Y-63494724D01*
X154225276Y-60305331D01*
X150706265Y-56786319D01*
X150246508Y-56326562D01*
X150163699Y-56243753D01*
X159570000Y-56243753D01*
X159570000Y-56250000D01*
X160486988Y-56250000D01*
X160454075Y-56307007D01*
X160420000Y-56434174D01*
X160420000Y-56565826D01*
X160454075Y-56692993D01*
X160486988Y-56750000D01*
X159570000Y-56750000D01*
X159570000Y-56756246D01*
X159603242Y-56966127D01*
X159603242Y-56966130D01*
X159668904Y-57168217D01*
X159765379Y-57357557D01*
X159890272Y-57529459D01*
X159890276Y-57529464D01*
X160040535Y-57679723D01*
X160040540Y-57679727D01*
X160212442Y-57804620D01*
X160401782Y-57901095D01*
X160603871Y-57966757D01*
X160670000Y-57977231D01*
X160670000Y-56933012D01*
X160727007Y-56965925D01*
X160854174Y-57000000D01*
X160985826Y-57000000D01*
X161112993Y-56965925D01*
X161170000Y-56933012D01*
X161170000Y-57977230D01*
X161236126Y-57966757D01*
X161236129Y-57966757D01*
X161438217Y-57901095D01*
X161627557Y-57804620D01*
X161799459Y-57679727D01*
X161799464Y-57679723D01*
X161949723Y-57529464D01*
X161949727Y-57529459D01*
X162074620Y-57357557D01*
X162171095Y-57168217D01*
X162236757Y-56966130D01*
X162236757Y-56966127D01*
X162270000Y-56756246D01*
X162270000Y-56750000D01*
X161353012Y-56750000D01*
X161385925Y-56692993D01*
X161420000Y-56565826D01*
X161420000Y-56434174D01*
X161385925Y-56307007D01*
X161353012Y-56250000D01*
X162270000Y-56250000D01*
X162270000Y-56243753D01*
X162236757Y-56033872D01*
X162236757Y-56033869D01*
X162171095Y-55831782D01*
X162074620Y-55642442D01*
X161949727Y-55470540D01*
X161949723Y-55470535D01*
X161799464Y-55320276D01*
X161799459Y-55320272D01*
X161627557Y-55195379D01*
X161438215Y-55098903D01*
X161236124Y-55033241D01*
X161170000Y-55022768D01*
X161170000Y-56066988D01*
X161112993Y-56034075D01*
X160985826Y-56000000D01*
X160854174Y-56000000D01*
X160727007Y-56034075D01*
X160670000Y-56066988D01*
X160670000Y-55022768D01*
X160669999Y-55022768D01*
X160603875Y-55033241D01*
X160401784Y-55098903D01*
X160212442Y-55195379D01*
X160040540Y-55320272D01*
X160040535Y-55320276D01*
X159890276Y-55470535D01*
X159890272Y-55470540D01*
X159765379Y-55642442D01*
X159668904Y-55831782D01*
X159603242Y-56033869D01*
X159603242Y-56033872D01*
X159570000Y-56243753D01*
X150163699Y-56243753D01*
X146539843Y-52619896D01*
X146414673Y-52494726D01*
X146414669Y-52494723D01*
X146308127Y-52423535D01*
X146258056Y-52402795D01*
X146189744Y-52374499D01*
X146189738Y-52374497D01*
X146064071Y-52349500D01*
X146064069Y-52349500D01*
X143198071Y-52349500D01*
X143131032Y-52329815D01*
X143097754Y-52298386D01*
X142991966Y-52152781D01*
X142847219Y-52008034D01*
X142847213Y-52008028D01*
X142681613Y-51887715D01*
X142681612Y-51887714D01*
X142681610Y-51887713D01*
X142614567Y-51853553D01*
X142499223Y-51794781D01*
X142304534Y-51731522D01*
X142129995Y-51703878D01*
X142102352Y-51699500D01*
X141897648Y-51699500D01*
X141719886Y-51727654D01*
X141650593Y-51718699D01*
X141612808Y-51692862D01*
X141317628Y-51397682D01*
X148700000Y-51397682D01*
X148700000Y-51602317D01*
X148732009Y-51804417D01*
X148795244Y-51999031D01*
X148888141Y-52181350D01*
X148888147Y-52181359D01*
X148920523Y-52225921D01*
X148920524Y-52225922D01*
X149600000Y-51546446D01*
X149600000Y-51552661D01*
X149627259Y-51654394D01*
X149679920Y-51745606D01*
X149754394Y-51820080D01*
X149845606Y-51872741D01*
X149947339Y-51900000D01*
X149953553Y-51900000D01*
X149274076Y-52579474D01*
X149318650Y-52611859D01*
X149500968Y-52704755D01*
X149695582Y-52767990D01*
X149897683Y-52800000D01*
X150102317Y-52800000D01*
X150304417Y-52767990D01*
X150499031Y-52704755D01*
X150681349Y-52611859D01*
X150725921Y-52579474D01*
X150046447Y-51900000D01*
X150052661Y-51900000D01*
X150154394Y-51872741D01*
X150245606Y-51820080D01*
X150320080Y-51745606D01*
X150372741Y-51654394D01*
X150400000Y-51552661D01*
X150400000Y-51546448D01*
X151079474Y-52225922D01*
X151079474Y-52225921D01*
X151111859Y-52181349D01*
X151204755Y-51999031D01*
X151267990Y-51804417D01*
X151300000Y-51602317D01*
X151300000Y-51397682D01*
X151267990Y-51195582D01*
X151204755Y-51000968D01*
X151111859Y-50818650D01*
X151079474Y-50774077D01*
X151079474Y-50774076D01*
X150400000Y-51453551D01*
X150400000Y-51447339D01*
X150372741Y-51345606D01*
X150320080Y-51254394D01*
X150245606Y-51179920D01*
X150154394Y-51127259D01*
X150052661Y-51100000D01*
X150046446Y-51100000D01*
X150446463Y-50699983D01*
X188649500Y-50699983D01*
X188649500Y-52300001D01*
X188649501Y-52300018D01*
X188660000Y-52402796D01*
X188660001Y-52402799D01*
X188690462Y-52494723D01*
X188715186Y-52569334D01*
X188807288Y-52718656D01*
X188931344Y-52842712D01*
X189080666Y-52934814D01*
X189247203Y-52989999D01*
X189349991Y-53000500D01*
X190650008Y-53000499D01*
X190752797Y-52989999D01*
X190919334Y-52934814D01*
X191068656Y-52842712D01*
X191192712Y-52718656D01*
X191284814Y-52569334D01*
X191339999Y-52402797D01*
X191350500Y-52300009D01*
X191350499Y-50699992D01*
X191339999Y-50597203D01*
X191284814Y-50430666D01*
X191192712Y-50281344D01*
X191068656Y-50157288D01*
X190919334Y-50065186D01*
X190752797Y-50010001D01*
X190752795Y-50010000D01*
X190650010Y-49999500D01*
X189349998Y-49999500D01*
X189349981Y-49999501D01*
X189247203Y-50010000D01*
X189247200Y-50010001D01*
X189080668Y-50065185D01*
X189080663Y-50065187D01*
X188931342Y-50157289D01*
X188807289Y-50281342D01*
X188715187Y-50430663D01*
X188715186Y-50430666D01*
X188660001Y-50597203D01*
X188660001Y-50597204D01*
X188660000Y-50597204D01*
X188649500Y-50699983D01*
X150446463Y-50699983D01*
X150725922Y-50420524D01*
X150725921Y-50420523D01*
X150681359Y-50388147D01*
X150681350Y-50388141D01*
X150499031Y-50295244D01*
X150304417Y-50232009D01*
X150102317Y-50200000D01*
X149897683Y-50200000D01*
X149695582Y-50232009D01*
X149500968Y-50295244D01*
X149318644Y-50388143D01*
X149274077Y-50420523D01*
X149274077Y-50420524D01*
X149953554Y-51100000D01*
X149947339Y-51100000D01*
X149845606Y-51127259D01*
X149754394Y-51179920D01*
X149679920Y-51254394D01*
X149627259Y-51345606D01*
X149600000Y-51447339D01*
X149600000Y-51453553D01*
X148920524Y-50774077D01*
X148920523Y-50774077D01*
X148888143Y-50818644D01*
X148795244Y-51000968D01*
X148732009Y-51195582D01*
X148700000Y-51397682D01*
X141317628Y-51397682D01*
X140186819Y-50266873D01*
X140153334Y-50205550D01*
X140150500Y-50179192D01*
X140150500Y-47820808D01*
X140170185Y-47753769D01*
X140186819Y-47733127D01*
X140390160Y-47529786D01*
X140632531Y-47287414D01*
X140693852Y-47253931D01*
X140763543Y-47258915D01*
X140819477Y-47300786D01*
X140843894Y-47366251D01*
X140830695Y-47431390D01*
X140795246Y-47500962D01*
X140732009Y-47695582D01*
X140700000Y-47897682D01*
X140700000Y-48102317D01*
X140732009Y-48304417D01*
X140795244Y-48499031D01*
X140888141Y-48681350D01*
X140888147Y-48681359D01*
X140920523Y-48725921D01*
X140920524Y-48725922D01*
X141600000Y-48046446D01*
X141600000Y-48052661D01*
X141627259Y-48154394D01*
X141679920Y-48245606D01*
X141754394Y-48320080D01*
X141845606Y-48372741D01*
X141947339Y-48400000D01*
X141953553Y-48400000D01*
X141274076Y-49079474D01*
X141318650Y-49111859D01*
X141500968Y-49204755D01*
X141695582Y-49267990D01*
X141897683Y-49300000D01*
X142102317Y-49300000D01*
X142304417Y-49267990D01*
X142499031Y-49204755D01*
X142681349Y-49111859D01*
X142725921Y-49079474D01*
X142046447Y-48400000D01*
X142052661Y-48400000D01*
X142154394Y-48372741D01*
X142245606Y-48320080D01*
X142320080Y-48245606D01*
X142372741Y-48154394D01*
X142400000Y-48052661D01*
X142400000Y-48046448D01*
X143079474Y-48725922D01*
X143079474Y-48725921D01*
X143111859Y-48681349D01*
X143204755Y-48499031D01*
X143267990Y-48304417D01*
X143300000Y-48102317D01*
X143300000Y-47897682D01*
X143267990Y-47695582D01*
X143204755Y-47500968D01*
X143111859Y-47318650D01*
X143079474Y-47274077D01*
X143079474Y-47274076D01*
X142400000Y-47953551D01*
X142400000Y-47947339D01*
X142372741Y-47845606D01*
X142320080Y-47754394D01*
X142245606Y-47679920D01*
X142154394Y-47627259D01*
X142052661Y-47600000D01*
X142046446Y-47600000D01*
X142725922Y-46920524D01*
X142725921Y-46920523D01*
X142681359Y-46888147D01*
X142681344Y-46888138D01*
X142675155Y-46884984D01*
X142624359Y-46837009D01*
X142607565Y-46769188D01*
X142630103Y-46703053D01*
X142684819Y-46659602D01*
X142731451Y-46650500D01*
X147679192Y-46650500D01*
X147746231Y-46670185D01*
X147766873Y-46686819D01*
X148663181Y-47583126D01*
X148696666Y-47644449D01*
X148699500Y-47670807D01*
X148699500Y-48600001D01*
X148699501Y-48600019D01*
X148710000Y-48702796D01*
X148710001Y-48702799D01*
X148765185Y-48869331D01*
X148765186Y-48869334D01*
X148857288Y-49018656D01*
X148981344Y-49142712D01*
X149130666Y-49234814D01*
X149297203Y-49289999D01*
X149399991Y-49300500D01*
X150600008Y-49300499D01*
X150702797Y-49289999D01*
X150869334Y-49234814D01*
X151018656Y-49142712D01*
X151142712Y-49018656D01*
X151234814Y-48869334D01*
X151289999Y-48702797D01*
X151300500Y-48600009D01*
X151300499Y-47670806D01*
X151320183Y-47603768D01*
X151336813Y-47583131D01*
X152676231Y-46243713D01*
X188649500Y-46243713D01*
X188649500Y-46756286D01*
X188675512Y-46920523D01*
X188682754Y-46966243D01*
X188738490Y-47137781D01*
X188748444Y-47168414D01*
X188844951Y-47357820D01*
X188969890Y-47529786D01*
X189120213Y-47680109D01*
X189292179Y-47805048D01*
X189292181Y-47805049D01*
X189292184Y-47805051D01*
X189481588Y-47901557D01*
X189683757Y-47967246D01*
X189893713Y-48000500D01*
X189893714Y-48000500D01*
X190106286Y-48000500D01*
X190106287Y-48000500D01*
X190316243Y-47967246D01*
X190518412Y-47901557D01*
X190707816Y-47805051D01*
X190729789Y-47789086D01*
X190879786Y-47680109D01*
X190879788Y-47680106D01*
X190879792Y-47680104D01*
X191030104Y-47529792D01*
X191030106Y-47529788D01*
X191030109Y-47529786D01*
X191155048Y-47357820D01*
X191155047Y-47357820D01*
X191155051Y-47357816D01*
X191251557Y-47168412D01*
X191317246Y-46966243D01*
X191350500Y-46756287D01*
X191350500Y-46243713D01*
X191317246Y-46033757D01*
X191251557Y-45831588D01*
X191155051Y-45642184D01*
X191155049Y-45642181D01*
X191155048Y-45642179D01*
X191030109Y-45470213D01*
X190879786Y-45319890D01*
X190707820Y-45194951D01*
X190518414Y-45098444D01*
X190518413Y-45098443D01*
X190518412Y-45098443D01*
X190316243Y-45032754D01*
X190316241Y-45032753D01*
X190316240Y-45032753D01*
X190154957Y-45007208D01*
X190106287Y-44999500D01*
X189893713Y-44999500D01*
X189845042Y-45007208D01*
X189683760Y-45032753D01*
X189481585Y-45098444D01*
X189292179Y-45194951D01*
X189120213Y-45319890D01*
X188969890Y-45470213D01*
X188844951Y-45642179D01*
X188748444Y-45831585D01*
X188682753Y-46033760D01*
X188649500Y-46243713D01*
X152676231Y-46243713D01*
X156733126Y-42186819D01*
X156794449Y-42153334D01*
X156820807Y-42150500D01*
X159583329Y-42150500D01*
X159650368Y-42170185D01*
X159693813Y-42218204D01*
X159740716Y-42310256D01*
X159764951Y-42357820D01*
X159889890Y-42529786D01*
X160040213Y-42680109D01*
X160212179Y-42805048D01*
X160212181Y-42805049D01*
X160212184Y-42805051D01*
X160401588Y-42901557D01*
X160603757Y-42967246D01*
X160813713Y-43000500D01*
X160813714Y-43000500D01*
X161026286Y-43000500D01*
X161026287Y-43000500D01*
X161236243Y-42967246D01*
X161438412Y-42901557D01*
X161627816Y-42805051D01*
X161649789Y-42789086D01*
X161799786Y-42680109D01*
X161799788Y-42680106D01*
X161799792Y-42680104D01*
X161950104Y-42529792D01*
X161950106Y-42529788D01*
X161950109Y-42529786D01*
X162075048Y-42357820D01*
X162075047Y-42357820D01*
X162075051Y-42357816D01*
X162171557Y-42168412D01*
X162237246Y-41966243D01*
X162270500Y-41756287D01*
X162270500Y-41243713D01*
X162237246Y-41033757D01*
X162171557Y-40831588D01*
X162075051Y-40642184D01*
X162075049Y-40642181D01*
X162075048Y-40642179D01*
X161950109Y-40470213D01*
X161799786Y-40319890D01*
X161627820Y-40194951D01*
X161438414Y-40098444D01*
X161438413Y-40098443D01*
X161438412Y-40098443D01*
X161236243Y-40032754D01*
X161236241Y-40032753D01*
X161236240Y-40032753D01*
X161074957Y-40007208D01*
X161026287Y-39999500D01*
X160813713Y-39999500D01*
X160765042Y-40007208D01*
X160603760Y-40032753D01*
X160401585Y-40098444D01*
X160212179Y-40194951D01*
X160040213Y-40319890D01*
X159889890Y-40470213D01*
X159764951Y-40642179D01*
X159693814Y-40781795D01*
X159645840Y-40832591D01*
X159583329Y-40849500D01*
X156435929Y-40849500D01*
X156310261Y-40874497D01*
X156310255Y-40874499D01*
X156191875Y-40923533D01*
X156191866Y-40923538D01*
X156085331Y-40994723D01*
X156085327Y-40994726D01*
X150416872Y-46663181D01*
X150355549Y-46696666D01*
X150329191Y-46699500D01*
X149670808Y-46699500D01*
X149603769Y-46679815D01*
X149583127Y-46663181D01*
X148414674Y-45494727D01*
X148414673Y-45494726D01*
X148414669Y-45494723D01*
X148308127Y-45423535D01*
X148189744Y-45374499D01*
X148189738Y-45374497D01*
X148064071Y-45349500D01*
X148064069Y-45349500D01*
X140935931Y-45349500D01*
X140935929Y-45349500D01*
X140810261Y-45374497D01*
X140810255Y-45374499D01*
X140691870Y-45423535D01*
X140585331Y-45494722D01*
X140585324Y-45494728D01*
X138994724Y-47085328D01*
X138959676Y-47137781D01*
X138959677Y-47137782D01*
X138923534Y-47191874D01*
X138874499Y-47310255D01*
X138874497Y-47310261D01*
X138849500Y-47435928D01*
X138849500Y-47435931D01*
X138849500Y-50564069D01*
X138849500Y-50564071D01*
X138849499Y-50564071D01*
X138874497Y-50689738D01*
X138874499Y-50689744D01*
X138909430Y-50774076D01*
X138923535Y-50808127D01*
X138984023Y-50898655D01*
X138994726Y-50914673D01*
X138994727Y-50914674D01*
X140217873Y-52137819D01*
X140251358Y-52199142D01*
X140246374Y-52268834D01*
X140204502Y-52324767D01*
X140139038Y-52349184D01*
X140130192Y-52349500D01*
X139320808Y-52349500D01*
X139253769Y-52329815D01*
X139233127Y-52313181D01*
X124414674Y-37494727D01*
X124414673Y-37494726D01*
X124414669Y-37494723D01*
X124308127Y-37423535D01*
X124189744Y-37374499D01*
X124189738Y-37374497D01*
X124064071Y-37349500D01*
X124064069Y-37349500D01*
X105435931Y-37349500D01*
X105435929Y-37349500D01*
X105310261Y-37374497D01*
X105310255Y-37374499D01*
X105191874Y-37423534D01*
X105085326Y-37494726D01*
X100494727Y-42085325D01*
X100494721Y-42085332D01*
X100439210Y-42168411D01*
X100439211Y-42168412D01*
X100423534Y-42191874D01*
X100374499Y-42310255D01*
X100374497Y-42310261D01*
X100349500Y-42435928D01*
X100349500Y-126064071D01*
X100357071Y-126102129D01*
X100369319Y-126163703D01*
X100373468Y-126184565D01*
X100374499Y-126189745D01*
X100420305Y-126300330D01*
X100423535Y-126308127D01*
X100443692Y-126338294D01*
X100494726Y-126414673D01*
X100494727Y-126414674D01*
X106994724Y-132914669D01*
X107085327Y-133005272D01*
X107085332Y-133005277D01*
X107191866Y-133076461D01*
X107191872Y-133076464D01*
X107191873Y-133076465D01*
X107310256Y-133125501D01*
X107310260Y-133125501D01*
X107310261Y-133125502D01*
X107435928Y-133150500D01*
X107435931Y-133150500D01*
X184604071Y-133150500D01*
X184688615Y-133133682D01*
X184729744Y-133125501D01*
X184848127Y-133076465D01*
X184954669Y-133005277D01*
X187069289Y-130890654D01*
X187130610Y-130857171D01*
X187178753Y-130857693D01*
X187178945Y-130856484D01*
X187218804Y-130862797D01*
X187393713Y-130890500D01*
X187393714Y-130890500D01*
X187606286Y-130890500D01*
X187606287Y-130890500D01*
X187816243Y-130857246D01*
X188018412Y-130791557D01*
X188207816Y-130695051D01*
X188229789Y-130679086D01*
X188379786Y-130570109D01*
X188379788Y-130570106D01*
X188379792Y-130570104D01*
X188530104Y-130419792D01*
X188530106Y-130419788D01*
X188530109Y-130419786D01*
X188655048Y-130247820D01*
X188655047Y-130247820D01*
X188655051Y-130247816D01*
X188751557Y-130058412D01*
X188817246Y-129856243D01*
X188850500Y-129646287D01*
X188850500Y-129433713D01*
X188817246Y-129223757D01*
X188751557Y-129021588D01*
X188655051Y-128832184D01*
X188655049Y-128832181D01*
X188655048Y-128832179D01*
X188530109Y-128660213D01*
X188416569Y-128546673D01*
X188383084Y-128485350D01*
X188388068Y-128415658D01*
X188429940Y-128359725D01*
X188460915Y-128342810D01*
X188592331Y-128293796D01*
X188707546Y-128207546D01*
X188793796Y-128092331D01*
X188844091Y-127957483D01*
X188850500Y-127897873D01*
X188850499Y-126102128D01*
X188844737Y-126048525D01*
X188844091Y-126042516D01*
X188793797Y-125907671D01*
X188793793Y-125907664D01*
X188707547Y-125792455D01*
X188707544Y-125792452D01*
X188592335Y-125706206D01*
X188592328Y-125706202D01*
X188457482Y-125655908D01*
X188457483Y-125655908D01*
X188397883Y-125649501D01*
X188397881Y-125649500D01*
X188397873Y-125649500D01*
X188397864Y-125649500D01*
X186602129Y-125649500D01*
X186602123Y-125649501D01*
X186542516Y-125655908D01*
X186407671Y-125706202D01*
X186407664Y-125706206D01*
X186292455Y-125792452D01*
X186292452Y-125792455D01*
X186206206Y-125907664D01*
X186206202Y-125907671D01*
X186155908Y-126042517D01*
X186149501Y-126102116D01*
X186149501Y-126102123D01*
X186149500Y-126102135D01*
X186149500Y-126225500D01*
X186129815Y-126292539D01*
X186077011Y-126338294D01*
X186025500Y-126349500D01*
X185410808Y-126349500D01*
X185343769Y-126329815D01*
X185323127Y-126313181D01*
X184719733Y-125709787D01*
X184686248Y-125648464D01*
X184684941Y-125602713D01*
X184700500Y-125504481D01*
X184700500Y-125315519D01*
X184700500Y-125315513D01*
X184670940Y-125128881D01*
X184612545Y-124949163D01*
X184567290Y-124860347D01*
X184526760Y-124780801D01*
X184415690Y-124627927D01*
X184282073Y-124494310D01*
X184129199Y-124383240D01*
X184120024Y-124378565D01*
X183960836Y-124297454D01*
X183781118Y-124239059D01*
X183594486Y-124209500D01*
X183594481Y-124209500D01*
X183405519Y-124209500D01*
X183405514Y-124209500D01*
X183218881Y-124239059D01*
X183039163Y-124297454D01*
X182870800Y-124383240D01*
X182815743Y-124423242D01*
X182717927Y-124494310D01*
X182717925Y-124494312D01*
X182717924Y-124494312D01*
X182584312Y-124627924D01*
X182584312Y-124627925D01*
X182584310Y-124627927D01*
X182536610Y-124693579D01*
X182473240Y-124780800D01*
X182387454Y-124949163D01*
X182329059Y-125128881D01*
X182299500Y-125315513D01*
X182299500Y-125504486D01*
X182329059Y-125691118D01*
X182387454Y-125870836D01*
X182440963Y-125975852D01*
X182473240Y-126039199D01*
X182584310Y-126192073D01*
X182717927Y-126325690D01*
X182870801Y-126436760D01*
X182950347Y-126477290D01*
X183039163Y-126522545D01*
X183039165Y-126522545D01*
X183039168Y-126522547D01*
X183121508Y-126549301D01*
X183218881Y-126580940D01*
X183405514Y-126610500D01*
X183405519Y-126610500D01*
X183594479Y-126610500D01*
X183594481Y-126610500D01*
X183692711Y-126594941D01*
X183762000Y-126603895D01*
X183799787Y-126629733D01*
X184675325Y-127505272D01*
X184675332Y-127505278D01*
X184763320Y-127564069D01*
X184781874Y-127576466D01*
X184851221Y-127605189D01*
X184900256Y-127625501D01*
X184900259Y-127625501D01*
X184900260Y-127625502D01*
X185025928Y-127650500D01*
X185025931Y-127650500D01*
X186025501Y-127650500D01*
X186092540Y-127670185D01*
X186138295Y-127722989D01*
X186149501Y-127774500D01*
X186149501Y-127897876D01*
X186155908Y-127957483D01*
X186206202Y-128092328D01*
X186206206Y-128092335D01*
X186292452Y-128207544D01*
X186292455Y-128207547D01*
X186407664Y-128293793D01*
X186407671Y-128293797D01*
X186539082Y-128342810D01*
X186595016Y-128384681D01*
X186619433Y-128450145D01*
X186604582Y-128518418D01*
X186583431Y-128546673D01*
X186469889Y-128660215D01*
X186344951Y-128832179D01*
X186248444Y-129021585D01*
X186182753Y-129223760D01*
X186149500Y-129433713D01*
X186149500Y-129646286D01*
X186183516Y-129861055D01*
X186181879Y-129861314D01*
X186178734Y-129923895D01*
X186149342Y-129970711D01*
X184306873Y-131813181D01*
X184245550Y-131846666D01*
X184219192Y-131849500D01*
X183983693Y-131849500D01*
X183916654Y-131829815D01*
X183870899Y-131777011D01*
X183860955Y-131707853D01*
X183889980Y-131644297D01*
X183945374Y-131607569D01*
X183960832Y-131602547D01*
X184129199Y-131516760D01*
X184282073Y-131405690D01*
X184415690Y-131272073D01*
X184526760Y-131119199D01*
X184612547Y-130950832D01*
X184670940Y-130771118D01*
X184673601Y-130754315D01*
X184700500Y-130584486D01*
X184700500Y-130395513D01*
X184670940Y-130208881D01*
X184643846Y-130125497D01*
X184612547Y-130029168D01*
X184612545Y-130029165D01*
X184612545Y-130029163D01*
X184526759Y-129860800D01*
X184415690Y-129707927D01*
X184282073Y-129574310D01*
X184129199Y-129463240D01*
X184093303Y-129444950D01*
X183960836Y-129377454D01*
X183781118Y-129319059D01*
X183594486Y-129289500D01*
X183594481Y-129289500D01*
X183405519Y-129289500D01*
X183405514Y-129289500D01*
X183218881Y-129319059D01*
X183039163Y-129377454D01*
X182870800Y-129463240D01*
X182859696Y-129471308D01*
X182717927Y-129574310D01*
X182717925Y-129574312D01*
X182717924Y-129574312D01*
X182584311Y-129707925D01*
X182525853Y-129788386D01*
X182470522Y-129831051D01*
X182425535Y-129839500D01*
X181074465Y-129839500D01*
X181007426Y-129819815D01*
X180974147Y-129788386D01*
X180915690Y-129707927D01*
X180782073Y-129574310D01*
X180629199Y-129463240D01*
X180593303Y-129444950D01*
X180460836Y-129377454D01*
X180281118Y-129319059D01*
X180094486Y-129289500D01*
X180094481Y-129289500D01*
X179905519Y-129289500D01*
X179905514Y-129289500D01*
X179718881Y-129319059D01*
X179539163Y-129377454D01*
X179370800Y-129463240D01*
X179359696Y-129471308D01*
X179217927Y-129574310D01*
X179217925Y-129574312D01*
X179217924Y-129574312D01*
X179084312Y-129707924D01*
X179084312Y-129707925D01*
X179084310Y-129707927D01*
X179036610Y-129773579D01*
X178973240Y-129860800D01*
X178887454Y-130029163D01*
X178829059Y-130208881D01*
X178799500Y-130395513D01*
X178799500Y-130584486D01*
X178806804Y-130630602D01*
X178797849Y-130699896D01*
X178752853Y-130753348D01*
X178686102Y-130773987D01*
X178684331Y-130774000D01*
X175594000Y-130774000D01*
X175526961Y-130754315D01*
X175481206Y-130701511D01*
X175470000Y-130650000D01*
X175470000Y-130473500D01*
X174553012Y-130473500D01*
X174585925Y-130416493D01*
X174620000Y-130289326D01*
X174620000Y-130157674D01*
X174585925Y-130030507D01*
X174553012Y-129973500D01*
X175470000Y-129973500D01*
X175470000Y-129325672D01*
X175469999Y-129325655D01*
X175463598Y-129266127D01*
X175463596Y-129266120D01*
X175413354Y-129131413D01*
X175413350Y-129131406D01*
X175327190Y-129016312D01*
X175327187Y-129016309D01*
X175212093Y-128930149D01*
X175212088Y-128930146D01*
X175080528Y-128881077D01*
X175024595Y-128839205D01*
X175000178Y-128773741D01*
X175015030Y-128705468D01*
X175036175Y-128677220D01*
X175150104Y-128563292D01*
X175275051Y-128391316D01*
X175371557Y-128201912D01*
X175437246Y-127999743D01*
X175470500Y-127789787D01*
X175470500Y-127577213D01*
X175437246Y-127367257D01*
X175371557Y-127165088D01*
X175275051Y-126975684D01*
X175275049Y-126975681D01*
X175275048Y-126975679D01*
X175150109Y-126803713D01*
X174999786Y-126653390D01*
X174827819Y-126528451D01*
X174827818Y-126528450D01*
X174827816Y-126528449D01*
X174638412Y-126431943D01*
X174595137Y-126417882D01*
X179345669Y-126417882D01*
X179345670Y-126417883D01*
X179371059Y-126436329D01*
X179539362Y-126522085D01*
X179718997Y-126580451D01*
X179905553Y-126610000D01*
X180094447Y-126610000D01*
X180281002Y-126580451D01*
X180460637Y-126522085D01*
X180628937Y-126436331D01*
X180654328Y-126417883D01*
X180654328Y-126417882D01*
X180000001Y-125763554D01*
X180000000Y-125763554D01*
X179345669Y-126417882D01*
X174595137Y-126417882D01*
X174436243Y-126366254D01*
X174436241Y-126366253D01*
X174436240Y-126366253D01*
X174274957Y-126340708D01*
X174226287Y-126333000D01*
X174013713Y-126333000D01*
X173965042Y-126340708D01*
X173803760Y-126366253D01*
X173601585Y-126431944D01*
X173412175Y-126528453D01*
X173408028Y-126530995D01*
X173406826Y-126529033D01*
X173349942Y-126549301D01*
X173342919Y-126549500D01*
X170788508Y-126549500D01*
X170721469Y-126529815D01*
X170688191Y-126498386D01*
X170643104Y-126436331D01*
X170639672Y-126431607D01*
X170508393Y-126300328D01*
X170358193Y-126191201D01*
X170192771Y-126106915D01*
X170016200Y-126049543D01*
X170016197Y-126049542D01*
X170011567Y-126048038D01*
X170012277Y-126045852D01*
X169959914Y-126015797D01*
X169927740Y-125953776D01*
X169934205Y-125884206D01*
X169977256Y-125829176D01*
X170012004Y-125813307D01*
X170011567Y-125811962D01*
X170016197Y-125810457D01*
X170016200Y-125810457D01*
X170192771Y-125753085D01*
X170358193Y-125668799D01*
X170508393Y-125559672D01*
X170639672Y-125428393D01*
X170721656Y-125315552D01*
X178800000Y-125315552D01*
X178800000Y-125504447D01*
X178829548Y-125691002D01*
X178887914Y-125870637D01*
X178973666Y-126038933D01*
X178992116Y-126064328D01*
X179646446Y-125410000D01*
X179646446Y-125409999D01*
X179600369Y-125363922D01*
X179650000Y-125363922D01*
X179650000Y-125456078D01*
X179673852Y-125545095D01*
X179719930Y-125624905D01*
X179785095Y-125690070D01*
X179864905Y-125736148D01*
X179953922Y-125760000D01*
X180046078Y-125760000D01*
X180135095Y-125736148D01*
X180214905Y-125690070D01*
X180280070Y-125624905D01*
X180326148Y-125545095D01*
X180350000Y-125456078D01*
X180350000Y-125409999D01*
X180353554Y-125409999D01*
X180353554Y-125410000D01*
X181007882Y-126064328D01*
X181007883Y-126064328D01*
X181026331Y-126038937D01*
X181112085Y-125870637D01*
X181170451Y-125691002D01*
X181200000Y-125504447D01*
X181200000Y-125315552D01*
X181170451Y-125128997D01*
X181112085Y-124949362D01*
X181026329Y-124781059D01*
X181007883Y-124755670D01*
X181007882Y-124755669D01*
X180353554Y-125409999D01*
X180350000Y-125409999D01*
X180350000Y-125363922D01*
X180326148Y-125274905D01*
X180280070Y-125195095D01*
X180214905Y-125129930D01*
X180135095Y-125083852D01*
X180046078Y-125060000D01*
X179953922Y-125060000D01*
X179864905Y-125083852D01*
X179785095Y-125129930D01*
X179719930Y-125195095D01*
X179673852Y-125274905D01*
X179650000Y-125363922D01*
X179600369Y-125363922D01*
X178992116Y-124755669D01*
X178992116Y-124755670D01*
X178973669Y-124781060D01*
X178887914Y-124949362D01*
X178829548Y-125128997D01*
X178800000Y-125315552D01*
X170721656Y-125315552D01*
X170748799Y-125278193D01*
X170753386Y-125269189D01*
X170760928Y-125254390D01*
X170760928Y-125254389D01*
X170806333Y-125165275D01*
X170833085Y-125112771D01*
X170890457Y-124936200D01*
X170915070Y-124780800D01*
X170919500Y-124752834D01*
X170919500Y-124567172D01*
X170906587Y-124485644D01*
X170907288Y-124480218D01*
X170905376Y-124475092D01*
X170911717Y-124445941D01*
X170915541Y-124416351D01*
X170919373Y-124410745D01*
X170920228Y-124406819D01*
X170923749Y-124402116D01*
X179345669Y-124402116D01*
X180000000Y-125056446D01*
X180000001Y-125056446D01*
X180654328Y-124402116D01*
X180628933Y-124383666D01*
X180460637Y-124297914D01*
X180281002Y-124239548D01*
X180094447Y-124210000D01*
X179905553Y-124210000D01*
X179718997Y-124239548D01*
X179539362Y-124297914D01*
X179371060Y-124383669D01*
X179345670Y-124402116D01*
X179345669Y-124402116D01*
X170923749Y-124402116D01*
X170941375Y-124378569D01*
X172277277Y-123042669D01*
X172348465Y-122936127D01*
X172397501Y-122817744D01*
X172402607Y-122792073D01*
X172422500Y-122692069D01*
X172422500Y-120088807D01*
X172442185Y-120021768D01*
X172458814Y-120001131D01*
X183487819Y-108972125D01*
X183549142Y-108938641D01*
X183618834Y-108943625D01*
X183674767Y-108985497D01*
X183699184Y-109050961D01*
X183699500Y-109059807D01*
X183699500Y-109182351D01*
X183731522Y-109384534D01*
X183794781Y-109579223D01*
X183857764Y-109702831D01*
X183866103Y-109719199D01*
X183887715Y-109761613D01*
X184008028Y-109927213D01*
X184152786Y-110071971D01*
X184307749Y-110184556D01*
X184318390Y-110192287D01*
X184409840Y-110238883D01*
X184411080Y-110239515D01*
X184461876Y-110287490D01*
X184478671Y-110355311D01*
X184456134Y-110421446D01*
X184411080Y-110460485D01*
X184318386Y-110507715D01*
X184152786Y-110628028D01*
X184008028Y-110772786D01*
X183887715Y-110938386D01*
X183794781Y-111120776D01*
X183731522Y-111315465D01*
X183699500Y-111517648D01*
X183699500Y-111722351D01*
X183731522Y-111924534D01*
X183794781Y-112119223D01*
X183846568Y-112220858D01*
X183886027Y-112298302D01*
X183887715Y-112301613D01*
X184008028Y-112467213D01*
X184152786Y-112611971D01*
X184307749Y-112724556D01*
X184318390Y-112732287D01*
X184409840Y-112778883D01*
X184411080Y-112779515D01*
X184461876Y-112827490D01*
X184478671Y-112895311D01*
X184456134Y-112961446D01*
X184411080Y-113000485D01*
X184318386Y-113047715D01*
X184152786Y-113168028D01*
X184008028Y-113312786D01*
X183887715Y-113478386D01*
X183794781Y-113660776D01*
X183731522Y-113855465D01*
X183699500Y-114057648D01*
X183699500Y-114262351D01*
X183731522Y-114464534D01*
X183794781Y-114659223D01*
X183887715Y-114841613D01*
X184008028Y-115007213D01*
X184152786Y-115151971D01*
X184307749Y-115264556D01*
X184318390Y-115272287D01*
X184409840Y-115318883D01*
X184411080Y-115319515D01*
X184461876Y-115367490D01*
X184478671Y-115435311D01*
X184456134Y-115501446D01*
X184411080Y-115540485D01*
X184318386Y-115587715D01*
X184152786Y-115708028D01*
X184008028Y-115852786D01*
X183887715Y-116018386D01*
X183794781Y-116200776D01*
X183731522Y-116395465D01*
X183699500Y-116597648D01*
X183699500Y-116802351D01*
X183731522Y-117004534D01*
X183794781Y-117199223D01*
X183887715Y-117381613D01*
X184008028Y-117547213D01*
X184152786Y-117691971D01*
X184318385Y-117812284D01*
X184318387Y-117812285D01*
X184318390Y-117812287D01*
X184411080Y-117859515D01*
X184411630Y-117859795D01*
X184462426Y-117907770D01*
X184479221Y-117975591D01*
X184456684Y-118041725D01*
X184411630Y-118080765D01*
X184318644Y-118128143D01*
X184274077Y-118160523D01*
X184274077Y-118160524D01*
X184953554Y-118840000D01*
X184947339Y-118840000D01*
X184845606Y-118867259D01*
X184754394Y-118919920D01*
X184679920Y-118994394D01*
X184627259Y-119085606D01*
X184600000Y-119187339D01*
X184600000Y-119193553D01*
X183920524Y-118514077D01*
X183920523Y-118514077D01*
X183888143Y-118558644D01*
X183795244Y-118740968D01*
X183732009Y-118935582D01*
X183700000Y-119137682D01*
X183700000Y-119342317D01*
X183732009Y-119544417D01*
X183795244Y-119739031D01*
X183888141Y-119921350D01*
X183888147Y-119921359D01*
X183920523Y-119965921D01*
X183920524Y-119965922D01*
X184600000Y-119286446D01*
X184600000Y-119292661D01*
X184627259Y-119394394D01*
X184679920Y-119485606D01*
X184754394Y-119560080D01*
X184845606Y-119612741D01*
X184947339Y-119640000D01*
X184953553Y-119640000D01*
X184274076Y-120319474D01*
X184318650Y-120351859D01*
X184500968Y-120444755D01*
X184695582Y-120507990D01*
X184897683Y-120540000D01*
X185102317Y-120540000D01*
X185304417Y-120507990D01*
X185499031Y-120444755D01*
X185681349Y-120351859D01*
X185725921Y-120319474D01*
X185046447Y-119640000D01*
X185052661Y-119640000D01*
X185154394Y-119612741D01*
X185245606Y-119560080D01*
X185320080Y-119485606D01*
X185372741Y-119394394D01*
X185400000Y-119292661D01*
X185400000Y-119286447D01*
X186079474Y-119965921D01*
X186111859Y-119921349D01*
X186204755Y-119739031D01*
X186267990Y-119544417D01*
X186300000Y-119342317D01*
X186300000Y-119137682D01*
X186267990Y-118935582D01*
X186204755Y-118740968D01*
X186111859Y-118558650D01*
X186079474Y-118514077D01*
X186079474Y-118514076D01*
X185400000Y-119193551D01*
X185400000Y-119187339D01*
X185372741Y-119085606D01*
X185320080Y-118994394D01*
X185245606Y-118919920D01*
X185154394Y-118867259D01*
X185052661Y-118840000D01*
X185046446Y-118840000D01*
X185725922Y-118160524D01*
X185725921Y-118160523D01*
X185681359Y-118128147D01*
X185681350Y-118128141D01*
X185588369Y-118080765D01*
X185537573Y-118032790D01*
X185520778Y-117964969D01*
X185543315Y-117898835D01*
X185588370Y-117859795D01*
X185588920Y-117859515D01*
X185681610Y-117812287D01*
X185817488Y-117713567D01*
X185847213Y-117691971D01*
X185847215Y-117691968D01*
X185847219Y-117691966D01*
X185991966Y-117547219D01*
X185991968Y-117547215D01*
X185991971Y-117547213D01*
X186061062Y-117452116D01*
X186112287Y-117381610D01*
X186205220Y-117199219D01*
X186268477Y-117004534D01*
X186300500Y-116802352D01*
X186300500Y-116597648D01*
X186281292Y-116476373D01*
X186268477Y-116395465D01*
X186209734Y-116214674D01*
X186205220Y-116200781D01*
X186205218Y-116200778D01*
X186205218Y-116200776D01*
X186158009Y-116108125D01*
X186112287Y-116018390D01*
X186060358Y-115946915D01*
X185991971Y-115852786D01*
X185847213Y-115708028D01*
X185681614Y-115587715D01*
X185675006Y-115584348D01*
X185588917Y-115540483D01*
X185538123Y-115492511D01*
X185521328Y-115424690D01*
X185543865Y-115358555D01*
X185588917Y-115319516D01*
X185681610Y-115272287D01*
X185702770Y-115256913D01*
X185847213Y-115151971D01*
X185847215Y-115151968D01*
X185847219Y-115151966D01*
X185991966Y-115007219D01*
X185991968Y-115007215D01*
X185991971Y-115007213D01*
X186087035Y-114876366D01*
X186112287Y-114841610D01*
X186205220Y-114659219D01*
X186268477Y-114464534D01*
X186300500Y-114262352D01*
X186300500Y-114057648D01*
X186279332Y-113924003D01*
X186268477Y-113855465D01*
X186222371Y-113713566D01*
X186205220Y-113660781D01*
X186205218Y-113660778D01*
X186205218Y-113660776D01*
X186134757Y-113522490D01*
X186112287Y-113478390D01*
X186060358Y-113406915D01*
X185991971Y-113312786D01*
X185847213Y-113168028D01*
X185681614Y-113047715D01*
X185659497Y-113036446D01*
X185588917Y-113000483D01*
X185538123Y-112952511D01*
X185521328Y-112884690D01*
X185543865Y-112818555D01*
X185588917Y-112779516D01*
X185681610Y-112732287D01*
X185702770Y-112716913D01*
X185847213Y-112611971D01*
X185847215Y-112611968D01*
X185847219Y-112611966D01*
X185991966Y-112467219D01*
X185991968Y-112467215D01*
X185991971Y-112467213D01*
X186044732Y-112394590D01*
X186112287Y-112301610D01*
X186205220Y-112119219D01*
X186268477Y-111924534D01*
X186300500Y-111722352D01*
X186300500Y-111517648D01*
X186268477Y-111315466D01*
X186205220Y-111120781D01*
X186205218Y-111120778D01*
X186205218Y-111120776D01*
X186171503Y-111054607D01*
X186112287Y-110938390D01*
X186104556Y-110927749D01*
X185991971Y-110772786D01*
X185847213Y-110628028D01*
X185681614Y-110507715D01*
X185675006Y-110504348D01*
X185588917Y-110460483D01*
X185538123Y-110412511D01*
X185521328Y-110344690D01*
X185543865Y-110278555D01*
X185588917Y-110239516D01*
X185681610Y-110192287D01*
X185702770Y-110176913D01*
X185847213Y-110071971D01*
X185847215Y-110071968D01*
X185847219Y-110071966D01*
X185991966Y-109927219D01*
X185991968Y-109927215D01*
X185991971Y-109927213D01*
X186077585Y-109809373D01*
X186112287Y-109761610D01*
X186205220Y-109579219D01*
X186268477Y-109384534D01*
X186300500Y-109182352D01*
X186300500Y-108977648D01*
X186268477Y-108775466D01*
X186205220Y-108580781D01*
X186205218Y-108580778D01*
X186205218Y-108580776D01*
X186144087Y-108460801D01*
X186112287Y-108398390D01*
X186084977Y-108360801D01*
X185991971Y-108232786D01*
X185847213Y-108088028D01*
X185681614Y-107967715D01*
X185672831Y-107963240D01*
X185588917Y-107920483D01*
X185538123Y-107872511D01*
X185521328Y-107804690D01*
X185543865Y-107738555D01*
X185588917Y-107699516D01*
X185681610Y-107652287D01*
X185702770Y-107636913D01*
X185847213Y-107531971D01*
X185847215Y-107531968D01*
X185847219Y-107531966D01*
X185991966Y-107387219D01*
X185991968Y-107387215D01*
X185991971Y-107387213D01*
X186057161Y-107297485D01*
X186112287Y-107221610D01*
X186205220Y-107039219D01*
X186268477Y-106844534D01*
X186300500Y-106642352D01*
X186300500Y-106437648D01*
X186268477Y-106235466D01*
X186205220Y-106040781D01*
X186205218Y-106040778D01*
X186205218Y-106040776D01*
X186165280Y-105962394D01*
X186112287Y-105858390D01*
X186104556Y-105847749D01*
X185991971Y-105692786D01*
X185847213Y-105548028D01*
X185681614Y-105427715D01*
X185601857Y-105387077D01*
X185588917Y-105380483D01*
X185538123Y-105332511D01*
X185521328Y-105264690D01*
X185543865Y-105198555D01*
X185588917Y-105159516D01*
X185681610Y-105112287D01*
X185785565Y-105036760D01*
X185847213Y-104991971D01*
X185847215Y-104991968D01*
X185847219Y-104991966D01*
X185991966Y-104847219D01*
X185991968Y-104847215D01*
X185991971Y-104847213D01*
X186044799Y-104774500D01*
X186112287Y-104681610D01*
X186205220Y-104499219D01*
X186268477Y-104304534D01*
X186300500Y-104102352D01*
X186300500Y-103897648D01*
X186268477Y-103695466D01*
X186205220Y-103500781D01*
X186205218Y-103500778D01*
X186205218Y-103500776D01*
X186144087Y-103380801D01*
X186112287Y-103318390D01*
X186084977Y-103280801D01*
X185991971Y-103152786D01*
X185847219Y-103008034D01*
X185813093Y-102983240D01*
X185753547Y-102939978D01*
X185710882Y-102884649D01*
X185704903Y-102815036D01*
X185737508Y-102753240D01*
X185787426Y-102721955D01*
X185869334Y-102694814D01*
X186018656Y-102602712D01*
X186142712Y-102478656D01*
X186234814Y-102329334D01*
X186289999Y-102162797D01*
X186300500Y-102060009D01*
X186300499Y-100859992D01*
X186291116Y-100768142D01*
X186303885Y-100699452D01*
X186351766Y-100648568D01*
X186419556Y-100631647D01*
X186485732Y-100654063D01*
X186502155Y-100667862D01*
X190782181Y-104947887D01*
X190815666Y-105009210D01*
X190818500Y-105035568D01*
X190818500Y-118153069D01*
X190818500Y-118153071D01*
X190818499Y-118153071D01*
X190837390Y-118248034D01*
X190837390Y-118248035D01*
X190843496Y-118278737D01*
X190843498Y-118278742D01*
X190886229Y-118381902D01*
X190892535Y-118397127D01*
X190963723Y-118503669D01*
X190963726Y-118503673D01*
X191312862Y-118852809D01*
X191346347Y-118914132D01*
X191347654Y-118959888D01*
X191319500Y-119137648D01*
X191319500Y-119342351D01*
X191351522Y-119544534D01*
X191414781Y-119739223D01*
X191437262Y-119783343D01*
X191507585Y-119921359D01*
X191507715Y-119921613D01*
X191628028Y-120087213D01*
X191772786Y-120231971D01*
X191893226Y-120319474D01*
X191938390Y-120352287D01*
X192054607Y-120411503D01*
X192120776Y-120445218D01*
X192120778Y-120445218D01*
X192120781Y-120445220D01*
X192225137Y-120479127D01*
X192315465Y-120508477D01*
X192416557Y-120524488D01*
X192517648Y-120540500D01*
X192517649Y-120540500D01*
X192722351Y-120540500D01*
X192722352Y-120540500D01*
X192924534Y-120508477D01*
X193119219Y-120445220D01*
X193301610Y-120352287D01*
X193394590Y-120284732D01*
X193467213Y-120231971D01*
X193467215Y-120231968D01*
X193467219Y-120231966D01*
X193611966Y-120087219D01*
X193611968Y-120087215D01*
X193611971Y-120087213D01*
X193674516Y-120001126D01*
X193732287Y-119921610D01*
X193825220Y-119739219D01*
X193888477Y-119544534D01*
X193920500Y-119342352D01*
X193920500Y-119137648D01*
X193910735Y-119075996D01*
X193888477Y-118935465D01*
X193848232Y-118811604D01*
X193825220Y-118740781D01*
X193825218Y-118740778D01*
X193825218Y-118740776D01*
X193762709Y-118618097D01*
X193732287Y-118558390D01*
X193700092Y-118514077D01*
X193611971Y-118392786D01*
X193467213Y-118248028D01*
X193301614Y-118127715D01*
X193295006Y-118124348D01*
X193208917Y-118080483D01*
X193158123Y-118032511D01*
X193141328Y-117964690D01*
X193163865Y-117898555D01*
X193208917Y-117859516D01*
X193301610Y-117812287D01*
X193437488Y-117713567D01*
X193467213Y-117691971D01*
X193467215Y-117691968D01*
X193467219Y-117691966D01*
X193611966Y-117547219D01*
X193611968Y-117547215D01*
X193611971Y-117547213D01*
X193681062Y-117452116D01*
X193732287Y-117381610D01*
X193825220Y-117199219D01*
X193888477Y-117004534D01*
X193920500Y-116802352D01*
X193920500Y-116597648D01*
X193901292Y-116476373D01*
X193888477Y-116395465D01*
X193829734Y-116214674D01*
X193825220Y-116200781D01*
X193825218Y-116200778D01*
X193825218Y-116200776D01*
X193778009Y-116108125D01*
X193732287Y-116018390D01*
X193680358Y-115946915D01*
X193611971Y-115852786D01*
X193467213Y-115708028D01*
X193301614Y-115587715D01*
X193295006Y-115584348D01*
X193208917Y-115540483D01*
X193158123Y-115492511D01*
X193141328Y-115424690D01*
X193163865Y-115358555D01*
X193208917Y-115319516D01*
X193301610Y-115272287D01*
X193322770Y-115256913D01*
X193467213Y-115151971D01*
X193467215Y-115151968D01*
X193467219Y-115151966D01*
X193611966Y-115007219D01*
X193611968Y-115007215D01*
X193611971Y-115007213D01*
X193707035Y-114876366D01*
X193732287Y-114841610D01*
X193825220Y-114659219D01*
X193888477Y-114464534D01*
X193920500Y-114262352D01*
X193920500Y-114057648D01*
X193899332Y-113924003D01*
X193888477Y-113855465D01*
X193842371Y-113713566D01*
X193825220Y-113660781D01*
X193825218Y-113660778D01*
X193825218Y-113660776D01*
X193754757Y-113522490D01*
X193732287Y-113478390D01*
X193680358Y-113406915D01*
X193611971Y-113312786D01*
X193467213Y-113168028D01*
X193301614Y-113047715D01*
X193279497Y-113036446D01*
X193208917Y-113000483D01*
X193158123Y-112952511D01*
X193141328Y-112884690D01*
X193163865Y-112818555D01*
X193208917Y-112779516D01*
X193301610Y-112732287D01*
X193322770Y-112716913D01*
X193467213Y-112611971D01*
X193467215Y-112611968D01*
X193467219Y-112611966D01*
X193611966Y-112467219D01*
X193611968Y-112467215D01*
X193611971Y-112467213D01*
X193664732Y-112394590D01*
X193732287Y-112301610D01*
X193825220Y-112119219D01*
X193888477Y-111924534D01*
X193920500Y-111722352D01*
X193920500Y-111517648D01*
X193888477Y-111315466D01*
X193825220Y-111120781D01*
X193825218Y-111120778D01*
X193825218Y-111120776D01*
X193791503Y-111054607D01*
X193732287Y-110938390D01*
X193724556Y-110927749D01*
X193611971Y-110772786D01*
X193467213Y-110628028D01*
X193301614Y-110507715D01*
X193295006Y-110504348D01*
X193208917Y-110460483D01*
X193158123Y-110412511D01*
X193141328Y-110344690D01*
X193163865Y-110278555D01*
X193208917Y-110239516D01*
X193301610Y-110192287D01*
X193322770Y-110176913D01*
X193467213Y-110071971D01*
X193467215Y-110071968D01*
X193467219Y-110071966D01*
X193611966Y-109927219D01*
X193611968Y-109927215D01*
X193611971Y-109927213D01*
X193697585Y-109809373D01*
X193732287Y-109761610D01*
X193825220Y-109579219D01*
X193888477Y-109384534D01*
X193920500Y-109182352D01*
X193920500Y-109059807D01*
X193940185Y-108992769D01*
X193992989Y-108947014D01*
X194062147Y-108937070D01*
X194125703Y-108966095D01*
X194132181Y-108972127D01*
X197313181Y-112153127D01*
X197346666Y-112214450D01*
X197349500Y-112240808D01*
X197349500Y-127564069D01*
X197349500Y-127564071D01*
X197349499Y-127564071D01*
X197374497Y-127689738D01*
X197374499Y-127689744D01*
X197423535Y-127808127D01*
X197483507Y-127897883D01*
X197494726Y-127914673D01*
X197494727Y-127914674D01*
X198963681Y-129383627D01*
X198997166Y-129444950D01*
X199000000Y-129471308D01*
X199000000Y-136373430D01*
X198980315Y-136440469D01*
X198927511Y-136486224D01*
X198873457Y-136497404D01*
X103453606Y-134540072D01*
X103386984Y-134519017D01*
X103342322Y-134465285D01*
X103335260Y-134443697D01*
X103310316Y-134334409D01*
X103221267Y-134079921D01*
X103104284Y-133837003D01*
X102960838Y-133608711D01*
X102792734Y-133397915D01*
X102602085Y-133207266D01*
X102391289Y-133039162D01*
X102162997Y-132895716D01*
X102162994Y-132895714D01*
X101920082Y-132778734D01*
X101665602Y-132689687D01*
X101665594Y-132689684D01*
X101468446Y-132644687D01*
X101402732Y-132629688D01*
X101402728Y-132629687D01*
X101402719Y-132629686D01*
X101134813Y-132599500D01*
X101134809Y-132599500D01*
X100865191Y-132599500D01*
X100865186Y-132599500D01*
X100597280Y-132629686D01*
X100597268Y-132629688D01*
X100334405Y-132689684D01*
X100334397Y-132689687D01*
X100079917Y-132778734D01*
X99837005Y-132895714D01*
X99608712Y-133039161D01*
X99397915Y-133207265D01*
X99207264Y-133397916D01*
X99205518Y-133400106D01*
X99204953Y-133400502D01*
X99204941Y-133400516D01*
X99204937Y-133400513D01*
X99148325Y-133440241D01*
X99078513Y-133443084D01*
X99018247Y-133407733D01*
X98986660Y-133345411D01*
X98984579Y-133323392D01*
X98517633Y-37132427D01*
X98536992Y-37065294D01*
X98589574Y-37019283D01*
X98658683Y-37009004D01*
X98695431Y-37020105D01*
X98912782Y-37124776D01*
X98912788Y-37124778D01*
X99213488Y-37229998D01*
X99213500Y-37230002D01*
X99524109Y-37300896D01*
X99840697Y-37336567D01*
X99840698Y-37336568D01*
X99840702Y-37336568D01*
X100159302Y-37336568D01*
X100159302Y-37336567D01*
X100475891Y-37300896D01*
X100786500Y-37230002D01*
X101087218Y-37124776D01*
X101374263Y-36986542D01*
X101644027Y-36817039D01*
X101893115Y-36618397D01*
X102118397Y-36393115D01*
X102317039Y-36144027D01*
X102486542Y-35874263D01*
X102624776Y-35587218D01*
X102730002Y-35286500D01*
X102800896Y-34975891D01*
X102836568Y-34659298D01*
X102836568Y-34340702D01*
X102800896Y-34024109D01*
X102730002Y-33713500D01*
X102729998Y-33713488D01*
X102713016Y-33664955D01*
X102709454Y-33595176D01*
X102744182Y-33534549D01*
X102806175Y-33502321D01*
X102830057Y-33500000D01*
X198876000Y-33500000D01*
X198943039Y-33519685D01*
G37*
%TD.AperFunction*%
%TA.AperFunction,Conductor*%
G36*
X172717826Y-129170185D02*
G01*
X172763581Y-129222989D01*
X172774076Y-129287756D01*
X172770000Y-129325655D01*
X172770000Y-129973500D01*
X173686988Y-129973500D01*
X173654075Y-130030507D01*
X173620000Y-130157674D01*
X173620000Y-130289326D01*
X173654075Y-130416493D01*
X173686988Y-130473500D01*
X172770000Y-130473500D01*
X172770000Y-130650000D01*
X172750315Y-130717039D01*
X172697511Y-130762794D01*
X172646000Y-130774000D01*
X171745308Y-130774000D01*
X171678269Y-130754315D01*
X171657627Y-130737681D01*
X170955818Y-130035872D01*
X170922333Y-129974549D01*
X170919499Y-129948191D01*
X170919499Y-129274500D01*
X170939184Y-129207461D01*
X170991988Y-129161706D01*
X171043499Y-129150500D01*
X172650787Y-129150500D01*
X172717826Y-129170185D01*
G37*
%TD.AperFunction*%
%TD*%
M02*
