M48
; DRILL file {KiCad 9.0.7} date 2026-04-17T15:51:00+0530
; FORMAT={-:-/ absolute / metric / decimal}
; #@! TF.CreationDate,2026-04-17T15:51:00+05:30
; #@! TF.GenerationSoftware,Kicad,Pcbnew,9.0.7
; #@! TF.FileFunction,Plated,1,2,PTH
FMAT,2
METRIC
; #@! TA.AperFunction,Plated,PTH,ComponentDrill
T1C0.200
; #@! TA.AperFunction,Plated,PTH,ComponentDrill
T2C0.700
; #@! TA.AperFunction,Plated,PTH,ComponentDrill
T3C0.800
; #@! TA.AperFunction,Plated,PTH,ComponentDrill
T4C0.850
; #@! TA.AperFunction,Plated,PTH,ComponentDrill
T5C0.900
; #@! TA.AperFunction,Plated,PTH,ComponentDrill
T6C1.000
; #@! TA.AperFunction,Plated,PTH,ComponentDrill
T7C1.200
; #@! TA.AperFunction,Plated,PTH,ComponentDrill
T8C1.300
; #@! TA.AperFunction,Plated,PTH,ComponentDrill
T9C2.200
%
G90
G05
T1
X141.3Y-67.8
X141.3Y-69.2
X142.5Y-67.8
X142.5Y-69.2
X143.7Y-67.8
X143.7Y-69.2
T2
X145.01Y-63.5
X146.41Y-75.5
X148.91Y-88.5
X149.01Y-85.0
X150.09Y-63.5
X151.0Y-122.01
X151.0Y-127.09
X151.49Y-75.5
X153.99Y-88.5
X154.09Y-85.0
X155.5Y-104.01
X155.5Y-109.09
X168.5Y-103.91
X168.5Y-108.99
X180.0Y-125.41
X180.0Y-130.49
X183.5Y-125.41
X183.5Y-130.49
T3
X138.5Y-88.5
X138.5Y-93.5
X142.0Y-48.0
X142.0Y-53.0
X148.0Y-67.0
X148.0Y-72.0
X148.5Y-80.5
X150.0Y-48.0
X150.0Y-51.5
X153.5Y-80.5
X185.0Y-101.46
X185.0Y-104.0
X185.0Y-106.54
X185.0Y-109.08
X185.0Y-111.62
X185.0Y-114.16
X185.0Y-116.7
X185.0Y-119.24
X192.62Y-101.46
X192.62Y-104.0
X192.62Y-106.54
X192.62Y-109.08
X192.62Y-111.62
X192.62Y-114.16
X192.62Y-116.7
X192.62Y-119.24
X204.6Y-49.25
X206.0Y-41.75
T4
X154.5Y-114.5
X154.5Y-117.04
X154.5Y-119.58
X154.5Y-122.12
X154.5Y-124.66
X154.5Y-127.2
X154.5Y-129.74
X169.74Y-114.5
X169.74Y-117.04
X169.74Y-119.58
X169.74Y-122.12
X169.74Y-124.66
X169.74Y-127.2
X169.74Y-129.74
T5
X159.5Y-106.5
X162.0Y-106.5
X164.5Y-106.5
T6
X133.725Y-55.5
X136.265Y-55.5
X145.235Y-100.5
X147.775Y-100.5
X160.92Y-41.5
X160.92Y-56.5
X174.12Y-127.683
X174.12Y-130.224
X186.0Y-85.735
X186.0Y-88.275
X187.5Y-127.0
X187.5Y-129.54
X190.0Y-46.5
X190.0Y-51.5
X208.25Y-62.05
X208.25Y-74.05
X208.25Y-92.05
X208.25Y-104.05
X208.25Y-122.05
X208.25Y-134.05
T7
X139.5Y-110.5
X139.5Y-114.5
X139.5Y-118.5
X144.5Y-110.5
X144.5Y-114.5
X144.5Y-118.5
X218.0Y-41.332
X221.5Y-41.332
X225.0Y-41.332
X234.0Y-62.0
X234.0Y-65.5
X234.0Y-69.0
X234.0Y-92.0
X234.0Y-95.5
X234.0Y-99.0
X234.0Y-122.0
X234.0Y-125.5
X234.0Y-129.0
T8
X206.3Y-68.0
X206.3Y-98.0
X206.3Y-128.0
X220.45Y-74.05
X220.45Y-104.05
X220.45Y-134.05
X220.5Y-62.0
X220.5Y-92.0
X220.5Y-122.0
T9
X100.0Y-34.5
X101.0Y-135.0
X239.0Y-35.0
X240.0Y-135.5
M30
