%TF.GenerationSoftware,KiCad,Pcbnew,9.0.7*%
%TF.CreationDate,2026-04-17T15:52:38+05:30*%
%TF.ProjectId,lab,6c61622e-6b69-4636-9164-5f7063625858,rev?*%
%TF.SameCoordinates,Original*%
%TF.FileFunction,Soldermask,Top*%
%TF.FilePolarity,Negative*%
%FSLAX46Y46*%
G04 Gerber Fmt 4.6, Leading zero omitted, Abs format (unit mm)*
G04 Created by KiCad (PCBNEW 9.0.7) date 2026-04-17 15:52:38*
%MOMM*%
%LPD*%
G01*
G04 APERTURE LIST*
G04 Aperture macros list*
%AMRoundRect*
0 Rectangle with rounded corners*
0 $1 Rounding radius*
0 $2 $3 $4 $5 $6 $7 $8 $9 X,Y pos of 4 corners*
0 Add a 4 corners polygon primitive as box body*
4,1,4,$2,$3,$4,$5,$6,$7,$8,$9,$2,$3,0*
0 Add four circle primitives for the rounded corners*
1,1,$1+$1,$2,$3*
1,1,$1+$1,$4,$5*
1,1,$1+$1,$6,$7*
1,1,$1+$1,$8,$9*
0 Add four rect primitives between the rounded corners*
20,1,$1+$1,$2,$3,$4,$5,0*
20,1,$1+$1,$4,$5,$6,$7,0*
20,1,$1+$1,$6,$7,$8,$9,0*
20,1,$1+$1,$8,$9,$2,$3,0*%
G04 Aperture macros list end*
%ADD10C,3.800000*%
%ADD11RoundRect,0.250000X0.650000X-1.000000X0.650000X1.000000X-0.650000X1.000000X-0.650000X-1.000000X0*%
%ADD12C,1.600000*%
%ADD13RoundRect,0.150000X-0.150000X0.825000X-0.150000X-0.825000X0.150000X-0.825000X0.150000X0.825000X0*%
%ADD14R,3.300000X2.410000*%
%ADD15C,2.390000*%
%ADD16C,3.450000*%
%ADD17RoundRect,0.250003X-2.999997X3.499997X-2.999997X-3.499997X2.999997X-3.499997X2.999997X3.499997X0*%
%ADD18C,1.400000*%
%ADD19R,1.700000X1.700000*%
%ADD20C,1.700000*%
%ADD21RoundRect,0.250000X-0.262500X-0.450000X0.262500X-0.450000X0.262500X0.450000X-0.262500X0.450000X0*%
%ADD22C,3.000000*%
%ADD23C,2.500000*%
%ADD24RoundRect,0.150000X0.150000X-0.512500X0.150000X0.512500X-0.150000X0.512500X-0.150000X-0.512500X0*%
%ADD25RoundRect,0.250001X0.949999X-0.949999X0.949999X0.949999X-0.949999X0.949999X-0.949999X-0.949999X0*%
%ADD26C,2.400000*%
%ADD27R,1.800000X1.800000*%
%ADD28C,1.800000*%
%ADD29RoundRect,0.250001X0.949999X0.949999X-0.949999X0.949999X-0.949999X-0.949999X0.949999X-0.949999X0*%
%ADD30RoundRect,0.250000X1.000000X0.650000X-1.000000X0.650000X-1.000000X-0.650000X1.000000X-0.650000X0*%
%ADD31R,2.000000X2.000000*%
%ADD32C,2.000000*%
%ADD33RoundRect,0.235000X-1.465000X0.940000X-1.465000X-0.940000X1.465000X-0.940000X1.465000X0.940000X0*%
%ADD34RoundRect,0.250000X-0.550000X-0.550000X0.550000X-0.550000X0.550000X0.550000X-0.550000X0.550000X0*%
%ADD35RoundRect,0.250000X-0.550000X0.550000X-0.550000X-0.550000X0.550000X-0.550000X0.550000X0.550000X0*%
%ADD36RoundRect,0.102000X0.679000X0.679000X-0.679000X0.679000X-0.679000X-0.679000X0.679000X-0.679000X0*%
%ADD37C,1.562000*%
%ADD38RoundRect,0.102000X0.400000X-0.450000X0.400000X0.450000X-0.400000X0.450000X-0.400000X-0.450000X0*%
%ADD39RoundRect,0.250000X0.600000X0.750000X-0.600000X0.750000X-0.600000X-0.750000X0.600000X-0.750000X0*%
%ADD40O,1.700000X2.000000*%
G04 APERTURE END LIST*
D10*
%TO.C,2.2mm*%
X101000000Y-135000000D03*
%TD*%
%TO.C,2.2mm*%
X240000000Y-135500000D03*
%TD*%
%TO.C,2.2mm*%
X239000000Y-35000000D03*
%TD*%
%TO.C,2.2mm*%
X100000000Y-34500000D03*
%TD*%
D11*
%TO.C,D2*%
X143500000Y-91500000D03*
X143500000Y-87500000D03*
%TD*%
%TO.C,D4*%
X132500000Y-90500000D03*
X132500000Y-94500000D03*
%TD*%
D12*
%TO.C,C5*%
X148000000Y-67000000D03*
X148000000Y-72000000D03*
%TD*%
%TO.C,C4*%
X148500000Y-80500000D03*
X153500000Y-80500000D03*
%TD*%
%TO.C,C3*%
X138500000Y-88500000D03*
X138500000Y-93500000D03*
%TD*%
%TO.C,C1*%
X142000000Y-53000000D03*
X142000000Y-48000000D03*
%TD*%
D13*
%TO.C,U3*%
X144405000Y-66025000D03*
X143135000Y-66025000D03*
X141865000Y-66025000D03*
X140595000Y-66025000D03*
X140595000Y-70975000D03*
X141865000Y-70975000D03*
X143135000Y-70975000D03*
X144405000Y-70975000D03*
D14*
X142500000Y-68500000D03*
%TD*%
D15*
%TO.C,BT1*%
X123000000Y-50490000D03*
D16*
X107000000Y-59000000D03*
X123000000Y-114240000D03*
D17*
X115000000Y-46930000D03*
X115000000Y-126310000D03*
%TD*%
D18*
%TO.C,R2*%
X151490000Y-75500000D03*
X146410000Y-75500000D03*
%TD*%
%TO.C,Rg1*%
X149010000Y-85000000D03*
X154090000Y-85000000D03*
%TD*%
D19*
%TO.C,J8*%
X133725000Y-55500000D03*
D20*
X136265000Y-55500000D03*
%TD*%
D21*
%TO.C,R11*%
X201087500Y-61000000D03*
X202912500Y-61000000D03*
%TD*%
D22*
%TO.C,K2*%
X206300000Y-98000000D03*
D23*
X208250000Y-104050000D03*
D22*
X220450000Y-104050000D03*
X220500000Y-92000000D03*
D23*
X208250000Y-92050000D03*
%TD*%
D19*
%TO.C,J6*%
X186000000Y-88275000D03*
D20*
X186000000Y-85735000D03*
%TD*%
D24*
%TO.C,U4*%
X143531250Y-81931250D03*
X144481250Y-81931250D03*
X145431250Y-81931250D03*
X145431250Y-79656250D03*
X144481250Y-79656250D03*
X143531250Y-79656250D03*
%TD*%
D25*
%TO.C,J4*%
X234000000Y-129000000D03*
D26*
X234000000Y-125500000D03*
X234000000Y-122000000D03*
%TD*%
D18*
%TO.C,R3*%
X151000000Y-122010000D03*
X151000000Y-127090000D03*
%TD*%
D21*
%TO.C,R13*%
X201087500Y-121000000D03*
X202912500Y-121000000D03*
%TD*%
D19*
%TO.C,J5*%
X147775000Y-100500000D03*
D20*
X145235000Y-100500000D03*
%TD*%
D18*
%TO.C,R8*%
X155500000Y-104010000D03*
X155500000Y-109090000D03*
%TD*%
D11*
%TO.C,D3*%
X157000000Y-82000000D03*
X157000000Y-78000000D03*
%TD*%
D18*
%TO.C,Rf1*%
X153990000Y-88500000D03*
X148910000Y-88500000D03*
%TD*%
D21*
%TO.C,R12*%
X201087500Y-91000000D03*
X202912500Y-91000000D03*
%TD*%
D22*
%TO.C,K3*%
X206300000Y-128000000D03*
D23*
X208250000Y-134050000D03*
D22*
X220450000Y-134050000D03*
X220500000Y-122000000D03*
D23*
X208250000Y-122050000D03*
%TD*%
D27*
%TO.C,D1*%
X164500000Y-106500000D03*
D28*
X159500000Y-106500000D03*
X162000000Y-106500000D03*
%TD*%
D29*
%TO.C,J1*%
X225000000Y-41332500D03*
D26*
X221500000Y-41332500D03*
X218000000Y-41332500D03*
%TD*%
D28*
%TO.C,RV1*%
X204600000Y-49250000D03*
X206000000Y-41750000D03*
%TD*%
D18*
%TO.C,R9*%
X168500000Y-108990000D03*
X168500000Y-103910000D03*
%TD*%
D30*
%TO.C,D5*%
X138500000Y-60000000D03*
X134500000Y-60000000D03*
%TD*%
D18*
%TO.C,R7*%
X180000000Y-130490000D03*
X180000000Y-125410000D03*
%TD*%
D31*
%TO.C,SW2*%
X139500000Y-118500000D03*
D32*
X139500000Y-114500000D03*
X139500000Y-110500000D03*
X144500000Y-118500000D03*
X144500000Y-114500000D03*
X144500000Y-110500000D03*
%TD*%
D18*
%TO.C,R6*%
X183500000Y-130490000D03*
X183500000Y-125410000D03*
%TD*%
%TO.C,R1*%
X145010000Y-63500000D03*
X150090000Y-63500000D03*
%TD*%
D19*
%TO.C,SW1*%
X174120000Y-130223500D03*
D20*
X174120000Y-127683500D03*
%TD*%
D33*
%TO.C,L1*%
X136500000Y-78475000D03*
X136500000Y-84525000D03*
%TD*%
D34*
%TO.C,U2*%
X185000000Y-101460000D03*
D12*
X185000000Y-104000000D03*
X185000000Y-106540000D03*
X185000000Y-109080000D03*
X185000000Y-111620000D03*
X185000000Y-114160000D03*
X185000000Y-116700000D03*
X185000000Y-119240000D03*
X192620000Y-119240000D03*
X192620000Y-116700000D03*
X192620000Y-114160000D03*
X192620000Y-111620000D03*
X192620000Y-109080000D03*
X192620000Y-106540000D03*
X192620000Y-104000000D03*
X192620000Y-101460000D03*
%TD*%
D25*
%TO.C,J2*%
X234000000Y-69000000D03*
D26*
X234000000Y-65500000D03*
X234000000Y-62000000D03*
%TD*%
D19*
%TO.C,J7*%
X187500000Y-127000000D03*
D20*
X187500000Y-129540000D03*
%TD*%
D35*
%TO.C,C2*%
X150000000Y-48000000D03*
D12*
X150000000Y-51500000D03*
%TD*%
D36*
%TO.C,U1*%
X169740000Y-129740000D03*
D37*
X169740000Y-127200000D03*
X169740000Y-124660000D03*
X169740000Y-122120000D03*
X169740000Y-119580000D03*
X169740000Y-117040000D03*
X169740000Y-114500000D03*
X154500000Y-114500000D03*
X154500000Y-117040000D03*
X154500000Y-119580000D03*
X154500000Y-122120000D03*
X154500000Y-124660000D03*
X154500000Y-127200000D03*
X154500000Y-129740000D03*
%TD*%
D38*
%TO.C,Q1*%
X143500000Y-74500000D03*
X141600000Y-74500000D03*
X142550000Y-76600000D03*
%TD*%
D39*
%TO.C,PS1*%
X190000000Y-51500000D03*
D40*
X190000000Y-46500000D03*
X160920000Y-56500000D03*
X160920000Y-41500000D03*
%TD*%
D22*
%TO.C,K1*%
X206300000Y-68000000D03*
D23*
X208250000Y-74050000D03*
D22*
X220450000Y-74050000D03*
X220500000Y-62000000D03*
D23*
X208250000Y-62050000D03*
%TD*%
D25*
%TO.C,J3*%
X234000000Y-99000000D03*
D26*
X234000000Y-95500000D03*
X234000000Y-92000000D03*
%TD*%
M02*
